<?xml version="1.0" encoding="UTF-8"?>
<svg id="_圖層_2" data-name="圖層 2" xmlns="http://www.w3.org/2000/svg" xmlns:xlink="http://www.w3.org/1999/xlink" viewBox="0 0 54.78 73.82">
  <defs>
    <style>
      .cls-1 {
        fill: #fff;
      }

      .cls-2 {
        fill: url(#_未命名漸層_9-3);
      }

      .cls-3 {
        fill: url(#_未命名漸層_9-2);
      }

      .cls-4 {
        fill: url(#_未命名漸層_9-5);
      }

      .cls-5 {
        fill: url(#_未命名漸層_9);
      }

      .cls-6 {
        fill: url(#_未命名漸層_9-4);
      }
    </style>
    <linearGradient id="_未命名漸層_9" data-name="未命名漸層 9" x1="38.91" y1="7.27" x2="16" y2="43.74" gradientUnits="userSpaceOnUse">
      <stop offset="0" stop-color="#af9759"/>
      <stop offset=".52" stop-color="#eacc9a"/>
      <stop offset="1" stop-color="#c9b27b"/>
    </linearGradient>
    <linearGradient id="_未命名漸層_9-2" data-name="未命名漸層 9" x1="0" y1="70.82" x2="54.78" y2="70.82" gradientTransform="translate(0 -3)" xlink:href="#_未命名漸層_9"/>
    <linearGradient id="_未命名漸層_9-3" data-name="未命名漸層 9" x1="0" y1="70.82" x2="54.78" y2="70.82" gradientTransform="translate(0 -3)" xlink:href="#_未命名漸層_9"/>
    <linearGradient id="_未命名漸層_9-4" data-name="未命名漸層 9" x1="0" y1="70.82" x2="54.78" y2="70.82" gradientTransform="translate(0 -3)" xlink:href="#_未命名漸層_9"/>
    <linearGradient id="_未命名漸層_9-5" data-name="未命名漸層 9" x1="0" y1="70.82" x2="54.78" y2="70.82" gradientTransform="translate(0 -3)" xlink:href="#_未命名漸層_9"/>
  </defs>
  <g id="_圖層_1-2" data-name="圖層 1">
    <g>
      <polygon class="cls-5" points="9.64 17.88 9.64 21.67 5.58 25.73 12.49 32.47 12.49 15.03 20.52 6.91 20.52 40.5 23.29 43.26 23.29 4.23 27.35 0 31.49 4.14 31.49 42.75 34.17 40.5 34.17 6.99 42.2 14.94 42.2 32.56 49.11 25.73 44.79 21.67 44.79 17.62 52.82 25.65 39.44 39.03 39.44 16.32 36.85 13.56 36.85 41.97 28.73 50 28.73 5.53 27.35 4.06 25.96 5.53 25.96 50 17.76 41.54 17.76 13.64 15.26 16.15 15.26 38.86 1.96 25.56 9.64 17.88"/>
      <g>
        <g>
          <path class="cls-1" d="M5.06,70.51c-.25,.35-.85,1.12-1.5,1.87-.05,.19-.14,.35-.22,.43l-.92-.99c.39-.3,.45-.37,.45-.59v-4.21h-.79c-.05,2.51-.21,5-1.87,6.81l-.19-.19c1.05-1.92,1.05-4.33,1.06-6.61H.1l-.1-.37H1.99v-4.79l1.42,.14c-.01,.17-.12,.27-.39,.32v4.33h.61l.59-.76s.71,.53,1.12,.93c-.04,.14-.16,.21-.34,.21h-1.18v4.06c.36-.21,.76-.45,1.14-.7l.09,.14ZM.39,62.78c2.07,1.92,1.07,3.81,.31,2.93,.04-.92-.23-2.09-.5-2.87l.19-.06Zm2.88,3.19c.23-.96,.49-2.47,.58-3.2l1.18,.39c1.89-.04,1.64,1.46,.94,1.11-.19-.26-.49-.61-.9-.85-.08,.04-.17,.06-.28,.06-.26,.63-.81,1.72-1.37,2.56l-.14-.06Zm6.26-.03s.57,.05,.76,.05c.17,0,.19-.08,.19-.21v-.99c-.39,.25-.88,.54-1.45,.88-.04,.16-.14,.26-.26,.31l-.5-.97c.43-.09,1.28-.34,2.21-.61v-1.52h-1.96c-.1,.08-.28,.17-.49,.19v2.53c0,.25-.03,.44-.13,.59,1.67,.41,1.43,1.47,.92,1.61h1.16l.59-.79s.71,.54,1.14,.96c-.04,.14-.16,.21-.34,.21h-2.22v1.24h.59l.57-.74s.67,.52,1.06,.9c-.03,.14-.16,.21-.34,.21h-1.89v1.25h.59l.57-.74s.66,.53,1.06,.9c-.04,.14-.16,.21-.34,.21h-1.89v1.28h.99l.65-.81s.7,.57,1.14,.98c-.04,.14-.17,.21-.35,.21H6.54v.35c0,.08-.35,.35-.87,.35h-.18v-4.68c-.31,.35-.65,.67-.99,.93l-.14-.16c.71-.99,1.27-2.52,1.5-3.54l1.54,.45c-.05,.13-.16,.22-.46,.22-.1,.23-.26,.48-.41,.72l.18,.08h1.91c-.09-.03-.18-.08-.26-.17-.06-.37-.22-.94-.57-1.32-.17,.14-.45,.22-.92,.27-.03-.19-.05-.36-.17-.45-.1-.09-.26-.17-.62-.22v-.19s.57,.05,.78,.05c.17,0,.19-.08,.19-.22v-.84c-.43,.27-.96,.59-1.56,.97-.04,.17-.13,.27-.25,.32l-.52-.96c.43-.1,1.34-.37,2.33-.67v-1.51h-2.08l-.12-.37h2.07l.49-.57,1.09,.81-.08-.25h1.95l.49-.58,1.19,.89c-.08,.09-.28,.22-.54,.26v2.75c0,.61-.14,.92-1.2,1.01-.01-.21-.04-.37-.14-.47-.1-.09-.26-.18-.62-.23v-.19Zm-1.4,2.25h-1.6v1.24h1.6v-1.24Zm0,1.61h-1.6v1.25h1.6v-1.25Zm0,1.63h-1.6v1.28h1.6v-1.28Zm.46-8.28c1.95-.09,1.74,1.45,1.02,1.1-.25-.28-.59-.7-1.11-.93l.09-.17Z"/>
          <path class="cls-1" d="M18.6,66.19c-.1,.1-.25,.14-.54,.17-.46,2.52-1.59,4.92-3.88,6.45l-.14-.13c1.68-1.92,2.52-4.24,2.75-6.56h-2.35l-.12-.37h2.34l.7-.72,1.24,1.18Zm7.6-.4c-.08,.12-.21,.18-.49,.1-.63,.41-1.58,.98-2.49,1.4,.76,1.83,1.85,3.35,3.19,4.17l-.04,.13c-.45,.09-.84,.44-1.03,1.03-1.43-1.29-2.29-3.26-2.82-5.8-.05,.08-.16,.12-.28,.12h-1.43v1.41h.48l.57-.75s.65,.53,1.05,.9c-.03,.14-.15,.21-.34,.21h-1.76v1.54h.97l.63-.83s.72,.57,1.18,.99c-.04,.14-.17,.21-.35,.21h-2.43v1.67c0,.89-.22,1.4-1.83,1.54-.05-.36-.13-.63-.35-.81-.25-.18-.59-.32-1.33-.43v-.18s1.63,.1,1.95,.1c.26,0,.34-.08,.34-.27v-1.61h-2.58l-.1-.37h2.69v-1.54h-1.69l-.1-.36h1.8v-1.41h-1.33l-.1-.37h1.43v-2.2l1.09,.1c.63-.43,1.3-1.01,1.78-1.47h-6.26l-.12-.37h6.59l.74-.7,1.23,1.09c-.1,.1-.26,.13-.54,.16-.8,.45-1.86,.97-2.91,1.34h.1c-.04,.21-.16,.32-.46,.36v1.69h.23l.56-.7s.53,.43,.9,.79c-.14-.68-.25-1.41-.34-2.17l.19-.05c.18,.89,.44,1.76,.75,2.57,.63-.7,1.33-1.64,1.67-2.23l1.43,1.02Z"/>
          <path class="cls-1" d="M32.94,67.19c-.09,.12-.21,.17-.49,.19-.18,1.37-.52,2.67-1.2,3.82,1.4,.89,3.33,1.09,6.06,1.09,.71,0,2.29,0,3.11-.01v.17c-.5,.09-.74,.52-.77,1.01h-2.44c-2.97,0-4.97-.32-6.38-1.63-.58,.78-1.37,1.45-2.43,1.98l-.1-.18c.89-.66,1.54-1.46,1.99-2.38-.59-.76-1.07-1.8-1.45-3.13l.17-.09c.4,1.15,.92,1.99,1.54,2.61,.43-1.05,.65-2.21,.76-3.41h-1.06l-.43,.4-1.07-.74c.12-.09,.3-.18,.46-.25,.49-.87,1.16-2.27,1.52-3.19h-2.22l-.12-.37h2.33l.58-.59,1.15,1.05c-.1,.12-.32,.18-.59,.21-.36,.83-1.03,2.21-1.51,3.11h.85l.62-.63,1.12,.97Zm6.64-3.15s.66,.62,1.03,1.03c-.04,.14-.17,.21-.35,.21h-1.42v1.82c-.01,.09-.58,.32-.96,.32h-.18v-.44h-1.47v1.33h1.47l.63-.85s.76,.59,1.21,1.02c-.04,.14-.17,.21-.35,.21h-2.97v1.36h1.9l.71-.92s.84,.62,1.34,1.09c-.04,.14-.18,.21-.36,.21h-3.59v1.28c0,.12-.49,.35-.93,.35h-.25v-1.63h-2.85l-.1-.37h2.96v-1.36h-2.22l-.1-.37h2.33v-1.33h-2.07l-.12-.37h2.18v-1.33h-3.06l-.1-.37h3.16v-1.3h-2.14l-.12-.37h2.26v-1.41l1.65,.17c-.04,.18-.13,.31-.48,.36v.88h1.34l.57-.62,1.23,.94c-.09,.09-.28,.21-.53,.26v1.1h.17l.57-.87Zm-3.35,.87h1.47v-1.3h-1.47v1.3Zm1.47,.37h-1.47v1.33h1.47v-1.33Z"/>
          <path class="cls-1" d="M47.09,63.5s.7,.54,1.11,.94c-.03,.14-.16,.21-.32,.21h-5.19l-.1-.37h3.91l.59-.78Zm2.64,.25c0,1.09-.23,2.78-2.34,3.8,.09,.06,.17,.14,.23,.21-.04,.14-.16,.21-.34,.21h-4.04l-.1-.37h2.85l.58-.74s.41,.34,.8,.67l-.1-.13c1.19-1.11,1.34-2.48,1.34-3.64v-1.55l1.3,.5h1.41l.59-.62,1.11,.93c-.08,.09-.25,.16-.48,.19v2.36c0,.14,.04,.19,.22,.19h.41c.16,0,.31,0,.39-.01h.23c.08-.01,.18-.04,.27-.05h.17c.3,.13,.4,.23,.4,.45,0,.44-.39,.67-1.59,.67h-.65c-.84,0-.96-.25-.96-.94v-2.8h-1.73v.67Zm-3.73,2.17l.58-.72s.65,.5,1.05,.89c-.04,.14-.16,.21-.34,.21h-4.04l-.1-.37h2.85Zm1.25,6.95c-.01,.09-.54,.34-.9,.34h-.18v-.66h-1.76v.75c0,.12-.48,.36-.93,.36h-.16v-4.88l1.14,.49h1.58l.56-.59,1.18,.9c-.08,.09-.27,.19-.52,.25v3.05Zm-3.19-10.91c3.01,.41,2,2.64,.85,1.85-.12-.61-.57-1.34-.97-1.77l.12-.08Zm2.11,10.22v-2.53h-1.76v2.53h1.76Zm7.71-4.03c-.1,.13-.23,.17-.53,.18-.46,1.1-1.1,2.08-1.95,2.91,.97,.61,2.11,1.01,3.38,1.28v.14c-.53,.08-.89,.45-1.06,1.03-1.24-.44-2.26-.99-3.1-1.78-1.07,.83-2.44,1.47-4.16,1.9l-.1-.19c1.51-.57,2.74-1.34,3.71-2.31-.67-.83-1.18-1.86-1.5-3.16h-.68l-.12-.37h4.24l.72-.67,1.15,1.06Zm-5.06-.01c.4,1.05,1.02,1.89,1.81,2.56,.62-.77,1.1-1.64,1.42-2.56h-3.23Z"/>
        </g>
        <g>
          <path class="cls-3" d="M5.06,70.51c-.25,.35-.85,1.12-1.5,1.87-.05,.19-.14,.35-.22,.43l-.92-.99c.39-.3,.45-.37,.45-.59v-4.21h-.79c-.05,2.51-.21,5-1.87,6.81l-.19-.19c1.05-1.92,1.05-4.33,1.06-6.61H.1l-.1-.37H1.99v-4.79l1.42,.14c-.01,.17-.12,.27-.39,.32v4.33h.61l.59-.76s.71,.53,1.12,.93c-.04,.14-.16,.21-.34,.21h-1.18v4.06c.36-.21,.76-.45,1.14-.7l.09,.14ZM.39,62.78c2.07,1.92,1.07,3.81,.31,2.93,.04-.92-.23-2.09-.5-2.87l.19-.06Zm2.88,3.19c.23-.96,.49-2.47,.58-3.2l1.18,.39c1.89-.04,1.64,1.46,.94,1.11-.19-.26-.49-.61-.9-.85-.08,.04-.17,.06-.28,.06-.26,.63-.81,1.72-1.37,2.56l-.14-.06Zm6.26-.03s.57,.05,.76,.05c.17,0,.19-.08,.19-.21v-.99c-.39,.25-.88,.54-1.45,.88-.04,.16-.14,.26-.26,.31l-.5-.97c.43-.09,1.28-.34,2.21-.61v-1.52h-1.96c-.1,.08-.28,.17-.49,.19v2.53c0,.25-.03,.44-.13,.59,1.67,.41,1.43,1.47,.92,1.61h1.16l.59-.79s.71,.54,1.14,.96c-.04,.14-.16,.21-.34,.21h-2.22v1.24h.59l.57-.74s.67,.52,1.06,.9c-.03,.14-.16,.21-.34,.21h-1.89v1.25h.59l.57-.74s.66,.53,1.06,.9c-.04,.14-.16,.21-.34,.21h-1.89v1.28h.99l.65-.81s.7,.57,1.14,.98c-.04,.14-.17,.21-.35,.21H6.54v.35c0,.08-.35,.35-.87,.35h-.18v-4.68c-.31,.35-.65,.67-.99,.93l-.14-.16c.71-.99,1.27-2.52,1.5-3.54l1.54,.45c-.05,.13-.16,.22-.46,.22-.1,.23-.26,.48-.41,.72l.18,.08h1.91c-.09-.03-.18-.08-.26-.17-.06-.37-.22-.94-.57-1.32-.17,.14-.45,.22-.92,.27-.03-.19-.05-.36-.17-.45-.1-.09-.26-.17-.62-.22v-.19s.57,.05,.78,.05c.17,0,.19-.08,.19-.22v-.84c-.43,.27-.96,.59-1.56,.97-.04,.17-.13,.27-.25,.32l-.52-.96c.43-.1,1.34-.37,2.33-.67v-1.51h-2.08l-.12-.37h2.07l.49-.57,1.09,.81-.08-.25h1.95l.49-.58,1.19,.89c-.08,.09-.28,.22-.54,.26v2.75c0,.61-.14,.92-1.2,1.01-.01-.21-.04-.37-.14-.47-.1-.09-.26-.18-.62-.23v-.19Zm-1.4,2.25h-1.6v1.24h1.6v-1.24Zm0,1.61h-1.6v1.25h1.6v-1.25Zm0,1.63h-1.6v1.28h1.6v-1.28Zm.46-8.28c1.95-.09,1.74,1.45,1.02,1.1-.25-.28-.59-.7-1.11-.93l.09-.17Z"/>
          <path class="cls-2" d="M18.6,66.19c-.1,.1-.25,.14-.54,.17-.46,2.52-1.59,4.92-3.88,6.45l-.14-.13c1.68-1.92,2.52-4.24,2.75-6.56h-2.35l-.12-.37h2.34l.7-.72,1.24,1.18Zm7.6-.4c-.08,.12-.21,.18-.49,.1-.63,.41-1.58,.98-2.49,1.4,.76,1.83,1.85,3.35,3.19,4.17l-.04,.13c-.45,.09-.84,.44-1.03,1.03-1.43-1.29-2.29-3.26-2.82-5.8-.05,.08-.16,.12-.28,.12h-1.43v1.41h.48l.57-.75s.65,.53,1.05,.9c-.03,.14-.15,.21-.34,.21h-1.76v1.54h.97l.63-.83s.72,.57,1.18,.99c-.04,.14-.17,.21-.35,.21h-2.43v1.67c0,.89-.22,1.4-1.83,1.54-.05-.36-.13-.63-.35-.81-.25-.18-.59-.32-1.33-.43v-.18s1.63,.1,1.95,.1c.26,0,.34-.08,.34-.27v-1.61h-2.58l-.1-.37h2.69v-1.54h-1.69l-.1-.36h1.8v-1.41h-1.33l-.1-.37h1.43v-2.2l1.09,.1c.63-.43,1.3-1.01,1.78-1.47h-6.26l-.12-.37h6.59l.74-.7,1.23,1.09c-.1,.1-.26,.13-.54,.16-.8,.45-1.86,.97-2.91,1.34h.1c-.04,.21-.16,.32-.46,.36v1.69h.23l.56-.7s.53,.43,.9,.79c-.14-.68-.25-1.41-.34-2.17l.19-.05c.18,.89,.44,1.76,.75,2.57,.63-.7,1.33-1.64,1.67-2.23l1.43,1.02Z"/>
          <path class="cls-6" d="M32.94,67.19c-.09,.12-.21,.17-.49,.19-.18,1.37-.52,2.67-1.2,3.82,1.4,.89,3.33,1.09,6.06,1.09,.71,0,2.29,0,3.11-.01v.17c-.5,.09-.74,.52-.77,1.01h-2.44c-2.97,0-4.97-.32-6.38-1.63-.58,.78-1.37,1.45-2.43,1.98l-.1-.18c.89-.66,1.54-1.46,1.99-2.38-.59-.76-1.07-1.8-1.45-3.13l.17-.09c.4,1.15,.92,1.99,1.54,2.61,.43-1.05,.65-2.21,.76-3.41h-1.06l-.43,.4-1.07-.74c.12-.09,.3-.18,.46-.25,.49-.87,1.16-2.27,1.52-3.19h-2.22l-.12-.37h2.33l.58-.59,1.15,1.05c-.1,.12-.32,.18-.59,.21-.36,.83-1.03,2.21-1.51,3.11h.85l.62-.63,1.12,.97Zm6.64-3.15s.66,.62,1.03,1.03c-.04,.14-.17,.21-.35,.21h-1.42v1.82c-.01,.09-.58,.32-.96,.32h-.18v-.44h-1.47v1.33h1.47l.63-.85s.76,.59,1.21,1.02c-.04,.14-.17,.21-.35,.21h-2.97v1.36h1.9l.71-.92s.84,.62,1.34,1.09c-.04,.14-.18,.21-.36,.21h-3.59v1.28c0,.12-.49,.35-.93,.35h-.25v-1.63h-2.85l-.1-.37h2.96v-1.36h-2.22l-.1-.37h2.33v-1.33h-2.07l-.12-.37h2.18v-1.33h-3.06l-.1-.37h3.16v-1.3h-2.14l-.12-.37h2.26v-1.41l1.65,.17c-.04,.18-.13,.31-.48,.36v.88h1.34l.57-.62,1.23,.94c-.09,.09-.28,.21-.53,.26v1.1h.17l.57-.87Zm-3.35,.87h1.47v-1.3h-1.47v1.3Zm1.47,.37h-1.47v1.33h1.47v-1.33Z"/>
          <path class="cls-4" d="M47.09,63.5s.7,.54,1.11,.94c-.03,.14-.16,.21-.32,.21h-5.19l-.1-.37h3.91l.59-.78Zm2.64,.25c0,1.09-.23,2.78-2.34,3.8,.09,.06,.17,.14,.23,.21-.04,.14-.16,.21-.34,.21h-4.04l-.1-.37h2.85l.58-.74s.41,.34,.8,.67l-.1-.13c1.19-1.11,1.34-2.48,1.34-3.64v-1.55l1.3,.5h1.41l.59-.62,1.11,.93c-.08,.09-.25,.16-.48,.19v2.36c0,.14,.04,.19,.22,.19h.41c.16,0,.31,0,.39-.01h.23c.08-.01,.18-.04,.27-.05h.17c.3,.13,.4,.23,.4,.45,0,.44-.39,.67-1.59,.67h-.65c-.84,0-.96-.25-.96-.94v-2.8h-1.73v.67Zm-3.73,2.17l.58-.72s.65,.5,1.05,.89c-.04,.14-.16,.21-.34,.21h-4.04l-.1-.37h2.85Zm1.25,6.95c-.01,.09-.54,.34-.9,.34h-.18v-.66h-1.76v.75c0,.12-.48,.36-.93,.36h-.16v-4.88l1.14,.49h1.58l.56-.59,1.18,.9c-.08,.09-.27,.19-.52,.25v3.05Zm-3.19-10.91c3.01,.41,2,2.64,.85,1.85-.12-.61-.57-1.34-.97-1.77l.12-.08Zm2.11,10.22v-2.53h-1.76v2.53h1.76Zm7.71-4.03c-.1,.13-.23,.17-.53,.18-.46,1.1-1.1,2.08-1.95,2.91,.97,.61,2.11,1.01,3.38,1.28v.14c-.53,.08-.89,.45-1.06,1.03-1.24-.44-2.26-.99-3.1-1.78-1.07,.83-2.44,1.47-4.16,1.9l-.1-.19c1.51-.57,2.74-1.34,3.71-2.31-.67-.83-1.18-1.86-1.5-3.16h-.68l-.12-.37h4.24l.72-.67,1.15,1.06Zm-5.06-.01c.4,1.05,1.02,1.89,1.81,2.56,.62-.77,1.1-1.64,1.42-2.56h-3.23Z"/>
        </g>
      </g>
    </g>
  </g>
</svg>