<?xml version="1.0" encoding="UTF-8"?><svg id="_層_2" xmlns="http://www.w3.org/2000/svg" xmlns:xlink="http://www.w3.org/1999/xlink" viewBox="0 0 190.32 187.09"><defs><style>.cls-1{fill:url(#_命名漸層_17);}</style><linearGradient id="_命名漸層_17" x1="0" y1="93.54" x2="190.32" y2="93.54" gradientTransform="matrix(1, 0, 0, 1, 0, 0)" gradientUnits="userSpaceOnUse"><stop offset="0" stop-color="#40220f"/><stop offset="1" stop-color="#c9a063"/></linearGradient></defs><g id="_層_1-2"><polygon class="cls-1" points="28.76 66.89 28.76 81.1 13.57 96.29 39.42 121.49 39.42 56.22 69.47 25.85 69.47 151.55 79.81 161.89 79.81 15.83 95 0 110.51 15.51 110.51 159.95 120.53 151.55 120.53 26.17 150.58 55.9 150.58 121.82 176.43 96.29 160.27 81.1 160.27 65.92 190.32 95.97 140.24 146.05 140.24 61.07 130.54 50.73 130.54 157.04 100.17 187.09 100.17 20.68 95 15.19 89.83 20.68 89.83 187.09 59.13 155.42 59.13 51.05 49.76 60.42 49.76 145.41 0 95.64 28.76 66.89"/></g></svg>