<?xml version="1.0" encoding="UTF-8"?>
<svg id="_圖層_2" data-name="圖層 2" xmlns="http://www.w3.org/2000/svg" xmlns:xlink="http://www.w3.org/1999/xlink" viewBox="0 0 95.9 108.57">
  <defs>
    <style>
      .cls-1 {
        fill: #fff;
        font-family: NotoSerifTC-SemiBold-90ms-RKSJ-H, 'Noto Serif TC';
        font-size: 21.8px;
        letter-spacing: .1em;
      }

      .cls-2 {
        fill: url(#_未命名漸層_9-3);
      }

      .cls-3 {
        fill: url(#_未命名漸層_9-2);
      }

      .cls-4 {
        fill: url(#_未命名漸層_9-5);
      }

      .cls-5 {
        fill: url(#_未命名漸層_9);
      }

      .cls-6 {
        fill: url(#_未命名漸層_9-4);
      }
    </style>
    <linearGradient id="_未命名漸層_9" data-name="未命名漸層 9" x1="59.69" y1="8" x2="34.46" y2="48.15" gradientUnits="userSpaceOnUse">
      <stop offset="0" stop-color="#af9759"/>
      <stop offset=".52" stop-color="#eacc9a"/>
      <stop offset="1" stop-color="#c9b27b"/>
    </linearGradient>
    <linearGradient id="_未命名漸層_9-2" data-name="未命名漸層 9" x1=".78" y1="77.48" x2="93.21" y2="77.48" xlink:href="#_未命名漸層_9"/>
    <linearGradient id="_未命名漸層_9-3" data-name="未命名漸層 9" x1=".78" y1="77.48" x2="93.21" y2="77.48" xlink:href="#_未命名漸層_9"/>
    <linearGradient id="_未命名漸層_9-4" data-name="未命名漸層 9" x1=".78" y1="77.48" x2="93.21" y2="77.48" xlink:href="#_未命名漸層_9"/>
    <linearGradient id="_未命名漸層_9-5" data-name="未命名漸層 9" x1=".78" y1="77.48" x2="93.21" y2="77.48" xlink:href="#_未命名漸層_9"/>
  </defs>
  <g id="_圖層_1-2" data-name="圖層 1">
    <g>
      <polygon class="cls-5" points="27.46 19.68 27.46 23.86 22.99 28.33 30.6 35.75 30.6 16.54 39.44 7.61 39.44 44.59 42.49 47.63 42.49 4.66 46.96 0 51.52 4.56 51.52 47.06 54.47 44.59 54.47 7.7 63.31 16.45 63.31 35.84 70.91 28.33 66.16 23.86 66.16 19.4 75 28.24 60.26 42.97 60.26 17.97 57.41 14.93 57.41 46.21 48.48 55.05 48.48 6.08 46.96 4.47 45.43 6.08 45.43 55.05 36.4 45.73 36.4 15.02 33.64 17.78 33.64 42.78 19 28.14 27.46 19.68"/>
      <g>
        <text class="cls-1" transform="translate(0 85.75)"><tspan x="0" y="0">耀承建設</tspan></text>
        <g>
          <path class="cls-3" d="M9.33,82.02c-.41,.59-1.44,1.9-2.53,3.16-.09,.33-.24,.59-.37,.72l-1.55-1.68c.65-.5,.76-.63,.76-1v-7.1h-1.33c-.09,4.23-.35,8.43-3.16,11.48l-.33-.33c1.76-3.25,1.76-7.3,1.79-11.16H.96l-.17-.63h3.36v-8.08l2.4,.24c-.02,.28-.2,.46-.65,.54v7.3h1.02l1-1.29s1.2,.89,1.9,1.57c-.07,.24-.26,.35-.57,.35h-1.98v6.84c.61-.35,1.29-.76,1.92-1.18l.15,.24Zm-7.89-13.05c3.49,3.25,1.81,6.43,.52,4.95,.07-1.55-.39-3.53-.85-4.84l.33-.11Zm4.86,5.38c.39-1.61,.83-4.16,.98-5.4l1.98,.65c3.18-.07,2.77,2.46,1.59,1.87-.33-.44-.83-1.02-1.52-1.44-.13,.07-.28,.11-.48,.11-.44,1.07-1.37,2.9-2.31,4.31l-.24-.11Zm10.57-.04s.96,.09,1.29,.09c.28,0,.33-.13,.33-.35v-1.68c-.65,.41-1.48,.92-2.44,1.48-.07,.26-.24,.44-.44,.52l-.85-1.63c.72-.15,2.16-.57,3.73-1.02v-2.57h-3.31v-.02c-.17,.15-.48,.31-.83,.35v4.27c0,.41-.04,.74-.22,1,2.81,.7,2.42,2.48,1.55,2.72h1.96l1-1.33s1.2,.92,1.92,1.61c-.06,.24-.26,.35-.57,.35h-3.75v2.09h1l.96-1.24s1.13,.87,1.79,1.53c-.04,.24-.26,.35-.57,.35h-3.18v2.11h1l.96-1.24s1.11,.89,1.79,1.53c-.07,.24-.26,.35-.57,.35h-3.18v2.16h1.68l1.09-1.37s1.18,.96,1.92,1.66c-.07,.24-.28,.35-.59,.35H11.81v.59c0,.13-.59,.59-1.46,.59h-.31v-7.89c-.52,.59-1.09,1.13-1.68,1.57l-.24-.26c1.2-1.68,2.14-4.25,2.53-5.97l2.59,.76c-.09,.22-.26,.37-.78,.37-.17,.39-.44,.81-.7,1.22l.3,.13h3.23c-.15-.04-.31-.13-.44-.28-.11-.63-.37-1.59-.96-2.22-.28,.24-.76,.37-1.55,.46-.04-.33-.09-.61-.28-.76-.17-.15-.44-.28-1.05-.37v-.33s.96,.09,1.31,.09c.28,0,.33-.13,.33-.37v-1.42c-.72,.46-1.61,1-2.64,1.63-.07,.28-.22,.46-.41,.54l-.87-1.61c.72-.17,2.27-.63,3.92-1.13v-2.55h-3.51l-.2-.63h3.49l.83-.96,1.83,1.37-.13-.41h3.29l.83-.98,2,1.5c-.13,.15-.48,.37-.92,.44v4.64c0,1.02-.24,1.55-2.03,1.7-.02-.35-.07-.63-.24-.78-.17-.15-.44-.3-1.05-.39v-.33Zm-2.35,3.79h-2.7v2.09h2.7v-2.09Zm0,2.72h-2.7v2.11h2.7v-2.11Zm0,2.75h-2.7v2.16h2.7v-2.16Zm.78-13.97c3.29-.15,2.94,2.44,1.72,1.85-.41-.48-1-1.18-1.87-1.57l.15-.28Z"/>
          <path class="cls-2" d="M32.17,74.72c-.17,.17-.41,.24-.92,.28-.78,4.25-2.68,8.3-6.54,10.87l-.24-.22c2.83-3.25,4.25-7.15,4.64-11.07h-3.97l-.2-.63h3.94l1.18-1.22,2.09,1.98Zm12.81-.68c-.13,.2-.35,.31-.83,.17-1.07,.7-2.66,1.66-4.21,2.35,1.29,3.09,3.12,5.64,5.38,7.04l-.07,.22c-.76,.15-1.42,.74-1.74,1.74-2.42-2.18-3.86-5.49-4.75-9.78-.09,.13-.26,.2-.48,.2h-2.42v2.38h.81l.96-1.26s1.09,.89,1.77,1.53c-.04,.24-.26,.35-.57,.35h-2.96v2.59h1.63l1.07-1.39s1.22,.96,1.98,1.68c-.07,.24-.28,.35-.59,.35h-4.1v2.81c0,1.5-.37,2.35-3.09,2.59-.09-.61-.22-1.07-.59-1.37-.41-.31-1-.54-2.24-.72v-.31s2.75,.17,3.29,.17c.44,0,.57-.13,.57-.46v-2.72h-4.36l-.17-.63h4.53v-2.59h-2.85l-.17-.61h3.03v-2.38h-2.24l-.17-.63h2.42v-3.7l1.83,.17c1.07-.72,2.2-1.7,3.01-2.48h-10.57l-.2-.63h11.11l1.24-1.18,2.07,1.83c-.17,.17-.44,.22-.92,.26-1.35,.76-3.14,1.63-4.9,2.27l.17,.02c-.07,.33-.26,.52-.78,.59v2.85h.39l.94-1.18s.89,.72,1.53,1.33c-.24-1.15-.41-2.38-.57-3.66l.33-.09c.31,1.5,.74,2.96,1.26,4.34,1.07-1.18,2.24-2.77,2.81-3.77l2.42,1.72Z"/>
          <path class="cls-6" d="M56.36,76.42c-.15,.2-.35,.28-.83,.33-.31,2.31-.87,4.51-2.03,6.45,2.35,1.5,5.62,1.83,10.22,1.83,1.2,0,3.86,0,5.25-.02v.28c-.85,.15-1.24,.87-1.31,1.7h-4.12c-5.01,0-8.39-.54-10.76-2.75-.98,1.31-2.31,2.44-4.1,3.33l-.17-.3c1.5-1.11,2.59-2.46,3.36-4.01-1-1.29-1.81-3.03-2.44-5.27l.28-.15c.68,1.94,1.55,3.36,2.59,4.4,.72-1.76,1.09-3.73,1.29-5.75h-1.79l-.72,.68-1.81-1.24c.2-.15,.5-.31,.78-.41,.83-1.46,1.96-3.83,2.57-5.38h-3.75l-.2-.63h3.92l.98-1,1.94,1.77c-.17,.2-.54,.3-1,.35-.61,1.39-1.74,3.73-2.55,5.25h1.44l1.05-1.07,1.9,1.63Zm11.2-5.32s1.11,1.05,1.74,1.74c-.07,.24-.28,.35-.59,.35h-2.4v3.07c-.02,.15-.98,.54-1.61,.54h-.3v-.74h-2.48v2.24h2.48l1.07-1.44s1.29,1,2.05,1.72c-.07,.24-.28,.35-.59,.35h-5.01v2.29h3.2l1.2-1.55s1.42,1.05,2.27,1.83c-.07,.24-.3,.35-.61,.35h-6.06v2.16c0,.2-.83,.59-1.57,.59h-.41v-2.75h-4.82l-.17-.63h4.99v-2.29h-3.75l-.17-.63h3.92v-2.24h-3.49l-.2-.63h3.68v-2.24h-5.16l-.17-.63h5.34v-2.2h-3.62l-.2-.63h3.81v-2.38l2.79,.28c-.07,.3-.22,.52-.81,.61v1.48h2.27l.96-1.05,2.07,1.59c-.15,.15-.48,.35-.89,.44v1.85h.28l.96-1.46Zm-5.64,1.46h2.48v-2.2h-2.48v2.2Zm2.48,.63h-2.48v2.24h2.48v-2.24Z"/>
          <path class="cls-4" d="M80.25,70.19s1.18,.92,1.87,1.59c-.04,.24-.26,.35-.54,.35h-8.76l-.17-.63h6.6l1-1.31Zm4.45,.41c0,1.83-.39,4.68-3.94,6.41,.15,.11,.28,.24,.39,.35-.07,.24-.26,.35-.57,.35h-6.82l-.17-.63h4.82l.98-1.24s.7,.57,1.35,1.13l-.17-.22c2-1.87,2.27-4.18,2.27-6.14v-2.61l2.2,.85h2.38l1-1.05,1.87,1.57c-.13,.15-.41,.26-.81,.33v3.99c0,.24,.07,.33,.37,.33h.7c.26,0,.52,0,.65-.02h.39c.13-.02,.3-.06,.46-.09h.2l.09,.02c.5,.2,.67,.37,.67,.74,0,.74-.65,1.13-2.68,1.13h-1.09c-1.42,0-1.61-.41-1.61-1.59v-4.73h-2.92v1.13Zm-6.3,3.66l.98-1.22s1.09,.85,1.76,1.5c-.07,.24-.26,.35-.57,.35h-6.82l-.17-.63h4.82Zm2.11,11.72c-.02,.15-.92,.57-1.53,.57h-.3v-1.11h-2.96v1.26c0,.2-.81,.61-1.57,.61h-.26v-8.24l1.92,.83h2.66l.94-1,1.98,1.53c-.13,.15-.46,.33-.87,.41v5.14Zm-5.38-18.41c5.08,.7,3.38,4.44,1.44,3.12-.2-1.02-.96-2.27-1.63-2.99l.2-.13Zm3.55,17.24v-4.27h-2.96v4.27h2.96Zm13.01-6.8c-.17,.22-.39,.28-.89,.31-.79,1.85-1.85,3.51-3.29,4.9,1.63,1.02,3.55,1.7,5.71,2.16l-.02,.24c-.87,.13-1.48,.76-1.76,1.74-2.09-.74-3.81-1.68-5.23-3.01-1.81,1.39-4.12,2.48-7.02,3.2l-.17-.33c2.55-.96,4.62-2.27,6.25-3.9-1.13-1.39-1.98-3.14-2.53-5.34h-1.16l-.2-.63h7.15l1.22-1.13,1.94,1.79Zm-8.54-.02c.68,1.76,1.72,3.18,3.05,4.31,1.05-1.31,1.85-2.77,2.4-4.31h-5.45Z"/>
        </g>
      </g>
    </g>
  </g>
</svg>