<?xml version="1.0" encoding="UTF-8"?>
<svg id="_圖層_2" data-name="圖層 2" xmlns="http://www.w3.org/2000/svg" viewBox="0 0 639.09 28.08">
  <defs>
    <style>
      .cls-1 {
        fill: #c2996c;
      }

      .cls-2 {
        fill: #c29a6b;
      }
    </style>
  </defs>
  <g id="_圖層_1-2" data-name="圖層 1">
    <g>
      <g>
        <path class="cls-1" d="M23.79,5.01c-.06,2.85-.06,5.79-.06,8.73v1.62c0,2.88,0,5.79,.06,8.7l3.03,.33v1.14h-8.94v-1.14l2.85-.33c.06-2.85,.06-5.73,.06-8.61l.03-8.82-7.41,18.9h-1.41L4.32,6.69c.06,2.88,.18,6.72,.18,6.87v10.41l2.85,.42v1.14H0v-1.14l2.97-.42,.03-18.93-3-.36v-1.14H6l7.41,18.24L20.52,3.54h6.33v1.14l-3.06,.33Z"/>
        <path class="cls-1" d="M39,5.01c-.06,2.85-.06,5.79-.06,8.73v1.62c0,2.88,0,5.79,.06,8.67l3.06,.36v1.14h-9.24v-1.14l3.06-.33c.06-2.88,.06-5.76,.06-8.7v-1.62c0-2.94,0-5.85-.06-8.73l-3.06-.33v-1.14h9.24v1.14l-3.06,.33Z"/>
        <path class="cls-1" d="M67.89,5.01c-.06,2.85-.06,5.79-.06,8.73v1.62c0,2.88,0,5.79,.06,8.7l3.06,.33v1.14h-9.21v-1.14l3.03-.33c.06-2.82,.06-5.73,.06-9.15h-10.71c0,3.36,0,6.3,.06,9.15l3.03,.33v1.14h-9.21v-1.14l3.06-.33c.06-2.88,.06-5.76,.06-8.7v-1.62c0-2.94,0-5.85-.06-8.73l-3.06-.33v-1.14h9.21v1.14l-3.03,.33c-.06,2.82-.06,5.7-.06,8.61h10.71c0-2.88,0-5.76-.06-8.61l-3.03-.33v-1.14h9.21v1.14l-3.06,.33Z"/>
        <path class="cls-1" d="M94.02,2.22c-.33,.36-1.11,.57-2.13,.63,2.16,3,7.5,6.3,12.87,7.95l-.03,.36c-1.08,.24-2.01,1.11-2.31,2.16-4.65-2.46-9.24-6.33-11.4-10.5-3.09,4.89-8.49,9.09-14.37,11.61l-.27-.39c4.74-2.79,9.18-7.14,11.4-11.28h-5.94l-.27-.87h8.58l1.05-1.59,2.82,1.92Zm6.78,21.87s1.8,1.44,2.94,2.49c-.09,.33-.39,.45-.81,.45h-24.99l-.24-.87h11.4v-6.42h-8.16l-.24-.87h8.4v-5.64h-7.23l-.24-.87h13.5l1.5-1.77s1.65,1.26,2.73,2.16c-.09,.33-.39,.48-.81,.48h-6.96v5.64h5.1l1.53-1.86s1.74,1.29,2.79,2.25c-.06,.33-.33,.48-.75,.48h-8.67v6.42h7.56l1.65-2.07Z"/>
        <path class="cls-1" d="M119.91,18.06c-2.1,1.65-5.04,3.75-8.7,5.97-.06,.36-.27,.72-.6,.87l-1.35-2.79c.96-.3,2.37-.84,3.96-1.5V12.54h-3.15l-.24-.87h3.39V4.35h-3.3l-.24-.87h6.36l1.41-1.92s1.59,1.35,2.55,2.31c-.06,.33-.36,.48-.78,.48h-3.69v7.32h.81l1.26-1.86s1.44,1.35,2.28,2.25c-.09,.33-.36,.48-.78,.48h-3.57v7.08c1.38-.6,2.79-1.26,4.2-1.95l.18,.39Zm16.86-7.08c-.21,.27-.45,.33-.99,.24-1.32,1.23-3.33,2.88-4.98,4.14,1.77,3.51,4.2,5.58,6.87,7.11l-.09,.33c-1.02,.21-1.77,1.08-2.1,2.25-3.75-3.24-6-7.11-7.08-15.06v14.79c0,1.8-.39,2.85-3.45,3.15-.09-.72-.24-1.29-.66-1.62-.48-.39-1.17-.66-2.52-.87v-.45s2.97,.24,3.57,.24c.54,0,.69-.18,.69-.63v-6.57c-1.71,1.56-3.93,3.57-6.75,5.88,0,.36-.18,.72-.45,.9l-1.98-2.7c1.56-.69,5.31-2.76,9.18-4.98V7.32h-7.62l-.24-.87h7.86V.39l3.42,.39c-.06,.42-.3,.69-1.05,.81V6.45h4.62l1.2-1.47c-.36,.36-.93,.45-1.53,.09-.42-1.17-1.74-2.58-2.85-3.33l.27-.27c4.08,.45,4.83,2.43,4.23,3.36l.21-.27s1.68,1.32,2.73,2.28c-.09,.33-.36,.48-.78,.48h-8.01c.42,2.91,1.11,5.31,1.95,7.26,1.23-1.65,2.49-3.78,3.45-5.49l2.88,1.89Zm-16.8-1.5c6.42,3.21,4.08,7.77,1.92,5.82-.15-1.83-1.29-4.14-2.25-5.67l.33-.15Z"/>
        <path class="cls-1" d="M149.4,11.1c5.91,3,3.96,7.14,2.01,5.43-.18-1.47-1.11-3.3-2.01-4.68v15.3c0,.3-.99,.84-1.8,.84h-.48V14.49c-1.17,2.55-2.7,4.89-4.62,6.9l-.39-.36c2.28-3.54,3.75-8.25,4.53-12.84h-3.84l-.21-.87h4.53V.15l3.36,.39c-.09,.45-.3,.72-1.08,.84V7.32h.66l1.38-1.77s1.47,1.26,2.43,2.16c-.09,.33-.36,.48-.78,.48h-3.69v2.91Zm20.88,4.14c-.24,.33-.57,.42-1.26,.27-1.53,2.13-3.18,3.9-4.98,5.43,8.43,3,6.72,8.25,3.99,6.51-.78-1.89-2.85-4.29-4.59-6-3.63,2.97-7.83,4.98-12.6,6.45l-.24-.48c6.69-2.94,12.42-6.93,16.47-13.95l3.21,1.77Zm-17.52-8.79l-.24-.87h13.68l1.5-2.01s1.68,1.38,2.7,2.4c-.06,.33-.36,.48-.78,.48h-9.06l2.1,.84c-.15,.27-.51,.54-1.14,.45-1.32,1.65-3.48,3.69-5.49,5.16,1.65-.09,3.9-.24,6.27-.39,.9-1.2,1.74-2.52,2.52-3.9l3.03,1.62c-.18,.33-.51,.42-1.23,.27-3.81,5.61-8.82,9.3-15,11.79l-.27-.51c3.9-2.1,7.35-4.77,10.2-8.31-1.65,.45-3.78,.99-6,1.5-.24,.33-.48,.54-.75,.63l-.99-2.73s.54-.09,.75-.24c1.65-1.23,3.72-4.29,4.68-6.18h-6.48ZM158.7,.15c6.66,1.8,4.53,6.39,2.19,4.68-.33-1.47-1.5-3.36-2.49-4.5l.3-.18Z"/>
        <path class="cls-1" d="M179.61,9.42c1.53,5.31,.33,9.03-.87,10.74-.78,1.2-2.1,1.68-2.82,.99-.57-.57-.36-1.41,.21-2.13,1.56-1.56,3-5.46,2.97-9.57l.51-.03Zm7.02-3.36c-.03,.39-.3,.72-1.02,.81V23.19c0,.78,.3,1.05,1.89,1.05h4.05c1.8,0,3.15-.03,3.72-.09,.51-.03,.66-.18,.84-.51,.33-.63,.78-2.58,1.29-4.98h.39l.06,5.19c.9,.3,1.11,.6,1.11,1.08,0,1.23-1.32,1.68-7.53,1.68h-4.23c-3.06,0-3.99-.57-3.99-2.79V5.7l3.42,.36Zm5.13,2.73c-.63-2.58-2.82-5.88-4.65-7.98l.36-.21c8.91,4.23,7.02,10.29,4.29,8.19Zm9.21,11.61c-.42-2.7-1.47-7.2-4.05-10.2l.33-.27c8.79,6.09,5.97,13.11,3.72,10.47Z"/>
        <path class="cls-1" d="M224.31,24.51v1.02h-7.89v-1.02l2.49-.36-3.51-5.07-3.81,5.04,2.55,.39v1.02h-6.42v-1.02l2.1-.33,4.86-6.12-4.56-6.69-2.13-.33v-1.08h7.29v1.08l-2.13,.36,3.39,4.86,3.63-4.83-2.28-.39v-1.08h6.06v1.08l-1.92,.33-4.8,5.91,4.8,6.9,2.28,.33Z"/>
        <path class="cls-1" d="M241.32,13.35c-.18,.33-.42,.42-1.23,.3-2.13,4.74-6.27,10.41-10.86,13.62l-.33-.3c3.48-3.54,6.9-9.87,8.49-15.03l3.93,1.41Zm9.81-5.13l1.86-2.46s2.1,1.68,3.39,2.88c-.09,.33-.42,.48-.84,.48h-26.13l-.27-.9h21.99Zm-8.49-1.26c-.39-2.13-2.34-4.74-4.17-6.24l.3-.24c8.91,2.31,6.78,8.58,3.87,6.48Zm11.19,19.38c-1.02-4.29-4.98-10.11-8.01-13.86l.45-.24c12.15,8.79,10.68,16.62,7.56,14.1Z"/>
        <path class="cls-1" d="M276.75,10.05c1.05,5.64,4.32,11.55,13.08,15.42l-.03,.36c-1.29,.18-2.13,.78-2.43,2.16-7.92-4.47-10.29-11.67-11.16-17.67-.87,7.02-3.69,13.2-14.1,17.64l-.36-.48c8.67-4.8,11.16-10.68,11.91-17.43h-11.37l-.21-.87h11.67c.24-2.79,.21-5.76,.21-8.82l3.72,.39c-.09,.45-.33,.75-1.02,.84-.06,2.61-.09,5.13-.33,7.59h8.1l1.77-2.22s2.07,1.56,3.27,2.61c-.06,.33-.39,.48-.78,.48h-11.94Z"/>
        <path class="cls-1" d="M305.25,3.18s.96,.78,1.8,1.56c.63-1.17,1.17-2.31,1.62-3.42l3.03,1.47c-.18,.33-.51,.45-1.26,.33-1.17,2.28-2.73,4.68-4.68,6.99h1.65l1.44-1.8s1.59,1.26,2.58,2.22c-.09,.33-.39,.48-.81,.48h-5.64c-1.05,1.17-2.19,2.28-3.42,3.36h4.32l1.2-1.32,2.61,1.98c-.18,.24-.66,.48-1.26,.6v10.98c-.03,.18-1.17,.69-1.89,.69h-.36v-2.19h-5.94v1.89c0,.18-.75,.75-1.89,.75h-.33v-10.68c-1.08,.72-2.22,1.38-3.42,1.98l-.33-.39c1.32-.84,2.55-1.77,3.75-2.76v-2.52l1.89,.78c1.02-.99,1.98-2.07,2.88-3.15h-7.92l-.24-.9h5.67V5.88h-4.56l-.24-.87h4.8V.48l3.39,.33c-.06,.42-.33,.72-1.11,.84v3.36h1.35l1.32-1.83Zm-4.71,12.03l-.3,.24v3.81h5.94v-4.05h-5.64Zm5.64,9.03v-4.11h-5.94v4.11h5.94Zm-2.67-14.13c1.08-1.38,2.04-2.82,2.88-4.23h-3.81v4.23h.93Zm19.38-6.27c-.24,.27-.66,.33-1.35,.36-1.08,1.98-3.06,5.61-4.5,7.56,3.57,2.4,4.92,5.22,4.92,7.65,.03,2.94-1.17,4.5-4.5,4.62,0-.72-.12-1.56-.39-1.89-.27-.24-.96-.42-1.71-.54v-.48h2.61c.33,0,.51-.03,.78-.15,.54-.3,.87-.93,.87-2.13,0-2.22-.9-4.65-3.36-6.99,.78-2.04,1.98-5.76,2.67-8.28h-4.65V27.15c0,.18-.75,.78-1.92,.78h-.39V1.35l2.7,1.35h4.2l1.38-1.38,2.64,2.52Z"/>
        <path class="cls-1" d="M342.63,17.25c-.36,1.95-1.11,3.72-2.43,5.25,3.99,1.92,9.39,2.67,15.3,2.85v.36c-1.05,.3-1.71,1.08-1.92,2.22-5.97-.6-10.89-1.8-14.49-4.35-2.22,1.92-5.7,3.45-10.98,4.5l-.21-.48c4.8-1.5,7.86-3.15,9.75-5.19-1.11-1.02-2.1-2.22-2.88-3.66l.42-.36c.84,1.23,1.95,2.25,3.24,3.09,.93-1.23,1.47-2.64,1.77-4.23h-5.73v.96c0,.24-.99,.78-1.98,.78h-.39V6.03l2.55,1.08h5.88V3.63h-11.91l-.27-.84h21.96l1.68-2.07s1.92,1.44,3.06,2.43c-.03,.33-.36,.48-.78,.48h-11.31v3.48h5.94l1.23-1.35,2.7,2.04c-.18,.24-.63,.51-1.23,.63v9.69c-.03,.18-1.23,.69-2.04,.69h-.39v-1.56h-6.54Zm-8.16-9.27v3.72h6.06v-3.72h-6.06Zm5.88,8.4c.12-.96,.18-2.01,.18-3.12v-.72h-6.06v3.84h5.88Zm8.82,0v-3.84h-6.21v.63c0,1.11-.06,2.19-.18,3.21h6.39Zm-6.21-8.4v3.72h6.21v-3.72h-6.21Z"/>
        <path class="cls-1" d="M370.89,12.9c-1.05,.57-2.31,1.26-3.84,2.07v9.84c0,1.8-.36,2.85-3.18,3.15-.09-.72-.21-1.29-.57-1.68-.36-.39-1.02-.66-2.19-.81v-.48s2.52,.21,3.06,.21c.51,0,.63-.15,.63-.57v-8.52c-.81,.39-1.62,.81-2.52,1.23-.09,.39-.36,.66-.66,.78l-1.11-2.97c.87-.15,2.43-.51,4.29-1.02V7.71h-3.87l-.24-.87h4.11V.27l3.36,.36c-.09,.45-.39,.75-1.11,.84V6.84h.21l1.29-1.83s1.35,1.23,2.22,2.16c.66-.63,1.08-1.74,.87-2.85l.54-.03c.15,.42,.27,.84,.36,1.23h5.13V.3l3.24,.33c-.03,.39-.33,.69-1.05,.78V5.52h1.59c.78-1.44,1.71-3.39,2.25-4.83l3.21,.93c-.15,.36-.54,.6-1.17,.57-.87,.99-2.16,2.28-3.42,3.33h2.76l1.32-1.41,2.43,2.37c-.24,.24-.57,.27-1.14,.3-.63,.6-1.83,1.29-2.73,1.71l-.39-.21c.21-.48,.45-1.23,.63-1.89h-12.54c.12,1.47-.39,2.52-1.11,2.97-.63,.42-1.59,.39-1.89-.33-.18-.51,.03-.99,.36-1.32h-2.97v5.82c1.2-.33,2.46-.66,3.72-1.02l.12,.39Zm15.03,4.74s1.59,1.29,2.58,2.22c-.06,.33-.39,.48-.81,.48h-4.83v4.62c0,1.71-.45,2.79-3.48,3.06-.03-.66-.21-1.23-.57-1.56-.42-.33-1.17-.6-2.58-.78v-.45s2.97,.21,3.6,.21c.54,0,.69-.15,.69-.54v-3.42c-3,2.67-7.32,4.59-12.12,5.82l-.24-.42c4.11-1.56,7.8-3.93,10.23-6.54h-4.86l-1.02,1.05-2.28-1.71c.3-.24,.78-.45,1.23-.6,.39-.93,.84-2.07,1.14-2.91h-2.79l-.24-.87h13.89l1.32-1.65s1.53,1.17,2.49,2.04c-.09,.33-.39,.48-.81,.48h-3.6v3.3h1.65l1.41-1.83ZM372.36,.81c5.34,1.74,3.45,5.55,1.56,4.05-.15-1.32-1.05-2.88-1.86-3.87l.3-.18Zm10.02,13.41v-.99h-7.44v.51c0,.18-.96,.6-1.8,.6h-.33V7.62l2.28,.96h7.02l1.14-1.2,2.46,1.86c-.18,.21-.6,.45-1.14,.57v3.72c-.03,.18-1.08,.69-1.83,.69h-.36Zm-1.86,5.25v-3.3h-5.49c-.39,.99-.93,2.28-1.35,3.3h6.84Zm1.86-7.11v-2.88h-7.44v2.88h7.44Z"/>
        <path class="cls-1" d="M404.31,2.7c-.18,.24-.6,.45-1.14,.57V24.96c0,1.59-.33,2.55-2.94,2.79-.09-.6-.21-1.11-.57-1.38-.42-.3-1.02-.54-2.19-.72v-.48s2.52,.21,3.06,.21c.51,0,.66-.18,.66-.63V14.28c-.75,.75-1.71,1.68-2.76,2.73-.03,.33-.21,.69-.48,.84l-.78-1.5c-.21,4.02-.93,8.28-3.12,11.64l-.45-.24c1.74-4.92,1.68-11.04,1.68-16.53V1.05l2.34,1.02h3.3l.99-1.23,2.4,1.86Zm-7.05,8.55c0,1.29,0,2.7-.06,4.14,.93-.45,2.4-1.17,3.99-2.04v-3.45c-.21,.21-.57,.33-1.02,.24-.66-.57-1.8-1.26-2.91-1.74v2.85Zm0-8.31V7.59c2.25-.21,3.45,.36,3.93,1.02V2.94h-3.93Zm22.17,12.9s1.41,1.08,2.25,1.92c-.06,.33-.3,.48-.72,.48h-4.32c-.36,1.83-.99,3.45-2.46,4.95,8.79,2.82,6.09,5.73,3.9,4.47-1.32-1.02-3.18-2.1-5.46-3.18-1.92,1.35-4.71,2.46-8.85,3.48l-.27-.6c3.42-1.08,5.79-2.28,7.47-3.57-1.65-.69-3.45-1.35-5.4-1.95,.63-.84,1.41-2.19,2.16-3.6h-3.63l-.24-.87h4.32c.78-1.5,1.47-3.03,1.83-3.93l3.03,1.2c-.15,.27-.39,.54-1.26,.39-.33,.66-.75,1.5-1.26,2.34h4.05c.09-.75,.18-1.59,.21-2.46l3.27,.33c-.06,.39-.39,.72-1.08,.78-.06,.48-.12,.9-.18,1.35h1.44l1.2-1.53Zm-14.46-12.45l-.24-.9h12.69l1.41-1.74s1.56,1.23,2.55,2.16c-.06,.33-.36,.48-.75,.48h-4.92v3h2.1l1.11-1.17,2.4,1.83c-.15,.21-.6,.45-1.14,.54v5.94c-.03,.21-1.05,.69-1.74,.69h-.33v-.84h-10.83v.54c0,.21-.9,.63-1.74,.63h-.3V5.4l2.22,.99h2.25V3.39h-4.74Zm2.31,9.12h2.49V7.26h-2.49v5.25Zm2.73,5.73c-.69,1.2-1.44,2.46-2.1,3.39,1.62,.33,3.06,.66,4.32,.99,1.2-1.32,1.83-2.79,2.16-4.38h-4.38Zm1.5-10.98v5.25h2.37V7.26h-2.37Zm2.34-3.87h-2.28v3h2.28V3.39Zm1.8,3.87v5.25h2.46V7.26h-2.46Z"/>
        <path class="cls-1" d="M442.53,24.51v1.02h-7.89v-1.02l2.49-.36-3.51-5.07-3.81,5.04,2.55,.39v1.02h-6.42v-1.02l2.1-.33,4.86-6.12-4.56-6.69-2.13-.33v-1.08h7.29v1.08l-2.13,.36,3.39,4.86,3.63-4.83-2.28-.39v-1.08h6.06v1.08l-1.92,.33-4.8,5.91,4.8,6.9,2.28,.33Z"/>
        <path class="cls-1" d="M471.39,1.86s1.92,1.44,3.09,2.49c-.09,.33-.33,.48-.78,.48h-26.04l-.24-.87h13.14c-.39-1.29-1.83-2.85-3.06-3.66l.27-.27c5.01,.39,5.49,3.06,4.41,3.93h7.5l1.71-2.1Zm-.06,11.64l2.79,2.07c-.18,.21-.66,.48-1.26,.6v8.76c0,1.74-.39,2.76-3.48,3.06-.09-.72-.21-1.26-.63-1.62-.39-.36-1.08-.66-2.43-.84v-.42s2.79,.18,3.48,.18c.51,0,.66-.18,.66-.6V15.72h-18.72v11.4c0,.24-1.02,.81-1.98,.81h-.39V13.71l2.61,1.14h18.18l1.17-1.35Zm-5.52,.09v-1.2h-9.66v.75c0,.18-1.08,.69-2.01,.69h-.36V6.06l2.52,1.11h9.21l1.23-1.35,2.73,2.04c-.18,.24-.66,.51-1.26,.63v4.5c-.03,.18-1.23,.6-2.01,.6h-.39Zm.51,10.5c-.03,.18-1.14,.69-1.92,.69h-.36v-1.41h-6.3v1.11c0,.21-1.02,.72-1.92,.72h-.33v-8.16l2.4,1.05h5.88l1.17-1.2,2.52,1.86c-.18,.21-.63,.45-1.14,.54v4.8Zm-.51-12.57v-3.48h-9.66v3.48h9.66Zm-1.77,10.95v-3.51h-6.3v3.51h6.3Z"/>
        <path class="cls-1" d="M490.23,9.36c-.09,.42-.42,.69-1.11,.72-.63,2.73-1.71,6.66-2.85,9.99,1.29-.42,2.61-.84,3.9-1.29l.12,.39c-1.95,1.29-4.68,2.97-8.4,4.89-.12,.39-.36,.69-.66,.81l-1.5-3c1.23-.27,3.33-.84,5.7-1.53,.57-3.63,1.11-8.28,1.47-11.64l3.33,.66Zm-9.99-1.65l-.21-.87h6.93l1.44-1.92s1.59,1.32,2.58,2.31c-.09,.33-.39,.48-.81,.48h-9.93Zm1.23,1.2c5.13,6.84,2.1,11.97,.81,9.72,.09-2.22-.09-6.54-1.29-9.54l.48-.18Zm1.62-8.34c5.73,2.7,3.27,6.96,1.26,5.04-.03-1.59-.84-3.57-1.59-4.89l.33-.15Zm16.32,11.4c-.81,1.08-1.86,2.4-2.7,3.3h7.23l1.05-1.23,2.58,1.89c-.18,.24-.6,.48-1.17,.57v8.46c0,1.74-.27,2.7-2.64,2.94-.03-.69-.09-1.26-.33-1.62-.24-.36-.66-.6-1.41-.75v-.45s1.38,.12,1.74,.12,.45-.18,.45-.51v-8.52h-2.55v9.12c0,.12-.6,.57-1.47,.57h-.3v-9.69h-2.58v9.84c0,.12-.57,.57-1.47,.57h-.3v-10.41h-2.67v10.92c0,.24-.9,.75-1.8,.75h-.36V14.28l2.34,.99h2.64c.36-.96,.75-2.28,1.02-3.3h-6.66l-.21-.87h14.34l1.29-1.59c-.36,.12-.81,.24-1.26,.24h-.39v-1.14h-9.93l-.84,1.2-2.4-1.56c.21-.24,.54-.48,.87-.69V2.04l3.33,.33c-.06,.33-.3,.6-1.2,.72V7.71h3.99V.36l3.15,.33c-.06,.39-.33,.66-1.02,.78V7.71h4.05V1.98l3.27,.33c-.06,.42-.33,.72-1.11,.84v6c0,.09-.15,.21-.39,.3,.27,.24,1.59,1.26,2.46,2.04-.09,.33-.39,.48-.78,.48h-7.86Z"/>
        <path class="cls-1" d="M518.34,14.52c0,3.69-.39,9.54-5.01,13.41l-.36-.3c2.76-4.11,3.06-9.03,3.06-13.11v-4.41l2.76,1.11h17.13l1.59-1.98s1.8,1.38,2.94,2.37c-.09,.33-.39,.48-.81,.48h-21.3v2.43Zm19.44-12.6s1.8,1.32,2.88,2.31c-.09,.33-.36,.48-.78,.48h-6.72l1.86,1.23c-.21,.27-.48,.36-1.11,.15-.84,.54-1.89,1.08-3.06,1.56,4.26,1.86,3.48,3.9,1.83,3.45-.96-.72-2.49-1.59-4.44-2.43-2.97,.99-6.39,1.8-9.6,2.22l-.18-.45c2.55-.63,5.31-1.53,7.8-2.61-1.8-.72-3.87-1.41-6.06-1.95l.15-.51c3.45,.33,6.09,.87,8.13,1.44,1.35-.69,2.61-1.41,3.57-2.1h-17.61l-.27-.9h12.6c-.3-1.32-1.44-2.76-2.52-3.57l.27-.24c4.5,.42,4.92,2.91,3.96,3.81h7.77l1.53-1.89Zm-.18,22.11s1.8,1.32,2.94,2.34c-.09,.33-.39,.48-.81,.48h-21.72l-.27-.9h10.05v-4.05h-5.91l-.24-.87h6.15v-3.6h-4.95c-.99,1.5-2.16,2.79-3.39,3.69l-.42-.27c1.32-1.89,2.61-4.8,3.27-7.86l3.21,.99c-.15,.33-.51,.6-1.14,.57-.3,.72-.66,1.35-1.02,2.01h4.44v-3.9l3.36,.33c-.06,.42-.3,.69-.99,.78v2.79h3.69l1.5-1.83s1.68,1.23,2.76,2.22c-.09,.33-.39,.48-.78,.48h-7.17v3.6h3.18l1.44-1.8s1.65,1.26,2.67,2.19c-.09,.33-.36,.48-.78,.48h-6.51v4.05h5.88l1.56-1.92Z"/>
        <path class="cls-1" d="M546.03,26.67c2.82-1.35,6.24-3.72,8.7-6.57l2.7,1.98c-.21,.27-.51,.36-1.14,.18-2.79,2.43-6.87,4.14-10.08,4.83l-.18-.42Zm24.75-22.41s1.68,1.23,2.76,2.16c-.09,.33-.39,.48-.81,.48h-8.46l2.88,.84c-.12,.36-.51,.6-1.17,.54-.66,.84-1.74,1.8-2.85,2.64h4.65l1.47-1.77s1.68,1.23,2.7,2.16c-.09,.33-.39,.48-.75,.48h-10.2v2.76h5.04l1.41-1.68s1.56,1.17,2.58,2.07c-.09,.33-.36,.48-.81,.48h-8.22v2.94h7.86l1.56-1.86s1.68,1.29,2.79,2.25c-.09,.33-.39,.48-.81,.48h-11.4v8.07c-.03,.15-.78,.66-2.01,.66h-.39v-8.73h-11.61l-.27-.87h11.88v-2.94h-8.73l-.24-.87h8.97v-2.76h-10.2l-.27-.87h7.47c-.15-.06-.27-.15-.42-.27-.09-1.2-.99-2.67-1.8-3.51l.33-.21c4.11,1.08,3.99,3.45,2.85,3.99h5.43c.72-1.2,1.44-2.79,1.92-4.02h-17.31l-.24-.87h9.96V.33l3.12,.3c-.06,.39-.3,.66-.96,.75V6.03h2.85V.33l3.15,.3c-.06,.39-.3,.66-.96,.78V6.03h1.02c.99-1.44,2.13-3.54,2.82-5.1l3.18,1.14c-.18,.33-.57,.54-1.2,.45-.99,1.08-2.49,2.46-3.96,3.51h3.9l1.5-1.77Zm-20.64-3.24c6.21,1.77,4.29,6.18,2.19,4.53-.21-1.47-1.41-3.27-2.52-4.29l.33-.24Zm12.33,19.83c14.25,2.97,10.17,7.8,7.89,5.82-1.53-1.62-4.32-3.66-8.07-5.37l.18-.45Z"/>
        <path class="cls-1" d="M604.44,17.76s1.68,1.32,2.64,2.31c-.09,.33-.36,.48-.78,.48h-5.55v6.72c0,.21-.72,.75-1.95,.75h-.39v-7.47h-5.19l-.24-.87h5.43v-5.91h-4.41l-.24-.87h4.65V7.68h-3.63c-.09,.3-.36,.45-.72,.45h-2.61v5.49c-.03,.21-1.14,.72-1.92,.72h-.36v-1.38h-4.26c-.3,1.08-.63,2.16-1.08,3.24l1.14,.45h4.29l1.23-1.35,2.64,2.04c-.21,.21-.66,.45-1.23,.57v8.73c-.03,.18-1.2,.66-1.95,.66h-.39v-1.92h-4.98v1.65c0,.21-.72,.75-1.83,.75h-.36v-8.79c-.84,1.32-1.86,2.61-3.12,3.81l-.45-.48c2.22-2.91,3.42-6.12,4.08-9.36h-3l-.27-.9h3.42c.24-1.32,.39-2.64,.48-3.93h-4.32l-.24-.87h4.62c.06-1.38,.09-2.7,.12-3.96h-3.45l-.27-.87h8.88l1.23-1.35,2.64,2.04c-.21,.21-.66,.48-1.29,.6v3.54l1.2-1.74s.69,.6,1.35,1.29h6c.69-1.92,1.5-4.59,1.95-6.51l3.39,1.05c-.12,.36-.48,.6-1.14,.57-.87,1.38-2.16,3.33-3.48,4.89h1.98l1.47-1.89s1.68,1.32,2.67,2.28c-.09,.33-.39,.48-.78,.48h-5.31v5.22h1.62l1.41-1.86s1.68,1.29,2.64,2.25c-.09,.33-.36,.48-.78,.48h-4.89v5.91h2.22l1.47-1.92Zm-19.86-.24v6.99h4.98v-6.99h-4.98Zm4.59-9.39h-3.42c-.15,1.29-.33,2.61-.63,3.93h4.05v-3.93Zm-3.12-4.83c-.03,1.29-.12,2.61-.21,3.96h3.33V3.3h-3.12Zm8.88-2.85c5.7,2.79,3.27,7.08,1.32,5.13,.06-1.65-.81-3.66-1.65-4.95l.33-.18Z"/>
        <path class="cls-1" d="M612.39,11.97c.72-.06,1.74-.18,3-.36V2.82h-2.73l-.24-.87h11.37l1.44-1.77s1.65,1.23,2.7,2.16c-.06,.33-.39,.48-.78,.48h-2.22V13.92c0,.12-.75,.6-1.89,.6h-.39v-3.24c-2.01,.66-4.65,1.5-8.13,2.52-.15,.36-.42,.6-.66,.66l-1.47-2.49Zm8.82,6.06c-.12,.33-.51,.6-1.17,.54-.24,.51-.48,1.02-.75,1.47,5.97,2.43,4.35,6.48,2.25,4.98-.36-1.35-1.53-3.03-2.67-4.26-1.59,2.46-3.66,4.11-6.03,5.16l-.36-.36c2.43-1.8,4.53-4.83,5.55-8.73l3.18,1.2Zm14.82-2.73c-.3,.24-.87,.24-1.62-.12-2.1,.33-4.62,.63-7.35,.87v11.16c0,.18-.78,.75-1.95,.75h-.45v-11.7c-3.12,.21-6.39,.33-9.42,.33l-.09-.54c6.36-.54,14.34-1.89,18.57-3.12l2.31,2.37Zm-18.39-12.48v2.25h5.01V2.82h-5.01Zm0,5.22h5.01v-2.1h-5.01v2.1Zm0,3.27c1.53-.21,3.27-.48,5.01-.72v-1.65h-5.01v2.37Zm21.45-7.56c-.21,.27-.51,.36-1.2,.39-.63,1.47-1.5,2.85-2.61,4.08,4.8,3.15,3.39,5.85,1.56,4.8-.6-.87-1.68-2.04-3.09-3.27-1.89,1.56-4.23,2.82-7.14,3.72l-.24-.45c2.49-1.08,4.53-2.58,6.09-4.35-1.44-1.14-3.18-2.31-5.1-3.36l.24-.42c2.49,.75,4.44,1.56,6,2.37,.72-1.08,1.29-2.19,1.71-3.39h-8.25l-.27-.87h8.52l1.41-1.35,2.37,2.1Zm-3.96,13.5c-.12,.39-.48,.63-1.11,.6-.15,.39-.33,.81-.51,1.2,1.11,2.13,3.21,3.75,5.34,4.47l-.03,.33c-.87,.18-1.41,.81-1.68,1.92-1.83-1.29-3.18-3.27-4.02-5.91-1.38,2.55-3.24,4.44-5.46,5.64l-.36-.33c2.07-1.95,3.87-5.1,4.65-8.91l3.18,.99Z"/>
      </g>
      <g>
        <path class="cls-2" d="M23.79,5.01c-.06,2.85-.06,5.79-.06,8.73v1.62c0,2.88,0,5.79,.06,8.7l3.03,.33v1.14h-8.94v-1.14l2.85-.33c.06-2.85,.06-5.73,.06-8.61l.03-8.82-7.41,18.9h-1.41L4.32,6.69c.06,2.88,.18,6.72,.18,6.87v10.41l2.85,.42v1.14H0v-1.14l2.97-.42,.03-18.93-3-.36v-1.14H6l7.41,18.24L20.52,3.54h6.33v1.14l-3.06,.33Z"/>
        <path class="cls-2" d="M39,5.01c-.06,2.85-.06,5.79-.06,8.73v1.62c0,2.88,0,5.79,.06,8.67l3.06,.36v1.14h-9.24v-1.14l3.06-.33c.06-2.88,.06-5.76,.06-8.7v-1.62c0-2.94,0-5.85-.06-8.73l-3.06-.33v-1.14h9.24v1.14l-3.06,.33Z"/>
        <path class="cls-2" d="M67.89,5.01c-.06,2.85-.06,5.79-.06,8.73v1.62c0,2.88,0,5.79,.06,8.7l3.06,.33v1.14h-9.21v-1.14l3.03-.33c.06-2.82,.06-5.73,.06-9.15h-10.71c0,3.36,0,6.3,.06,9.15l3.03,.33v1.14h-9.21v-1.14l3.06-.33c.06-2.88,.06-5.76,.06-8.7v-1.62c0-2.94,0-5.85-.06-8.73l-3.06-.33v-1.14h9.21v1.14l-3.03,.33c-.06,2.82-.06,5.7-.06,8.61h10.71c0-2.88,0-5.76-.06-8.61l-3.03-.33v-1.14h9.21v1.14l-3.06,.33Z"/>
        <path class="cls-2" d="M94.02,2.22c-.33,.36-1.11,.57-2.13,.63,2.16,3,7.5,6.3,12.87,7.95l-.03,.36c-1.08,.24-2.01,1.11-2.31,2.16-4.65-2.46-9.24-6.33-11.4-10.5-3.09,4.89-8.49,9.09-14.37,11.61l-.27-.39c4.74-2.79,9.18-7.14,11.4-11.28h-5.94l-.27-.87h8.58l1.05-1.59,2.82,1.92Zm6.78,21.87s1.8,1.44,2.94,2.49c-.09,.33-.39,.45-.81,.45h-24.99l-.24-.87h11.4v-6.42h-8.16l-.24-.87h8.4v-5.64h-7.23l-.24-.87h13.5l1.5-1.77s1.65,1.26,2.73,2.16c-.09,.33-.39,.48-.81,.48h-6.96v5.64h5.1l1.53-1.86s1.74,1.29,2.79,2.25c-.06,.33-.33,.48-.75,.48h-8.67v6.42h7.56l1.65-2.07Z"/>
        <path class="cls-2" d="M119.91,18.06c-2.1,1.65-5.04,3.75-8.7,5.97-.06,.36-.27,.72-.6,.87l-1.35-2.79c.96-.3,2.37-.84,3.96-1.5V12.54h-3.15l-.24-.87h3.39V4.35h-3.3l-.24-.87h6.36l1.41-1.92s1.59,1.35,2.55,2.31c-.06,.33-.36,.48-.78,.48h-3.69v7.32h.81l1.26-1.86s1.44,1.35,2.28,2.25c-.09,.33-.36,.48-.78,.48h-3.57v7.08c1.38-.6,2.79-1.26,4.2-1.95l.18,.39Zm16.86-7.08c-.21,.27-.45,.33-.99,.24-1.32,1.23-3.33,2.88-4.98,4.14,1.77,3.51,4.2,5.58,6.87,7.11l-.09,.33c-1.02,.21-1.77,1.08-2.1,2.25-3.75-3.24-6-7.11-7.08-15.06v14.79c0,1.8-.39,2.85-3.45,3.15-.09-.72-.24-1.29-.66-1.62-.48-.39-1.17-.66-2.52-.87v-.45s2.97,.24,3.57,.24c.54,0,.69-.18,.69-.63v-6.57c-1.71,1.56-3.93,3.57-6.75,5.88,0,.36-.18,.72-.45,.9l-1.98-2.7c1.56-.69,5.31-2.76,9.18-4.98V7.32h-7.62l-.24-.87h7.86V.39l3.42,.39c-.06,.42-.3,.69-1.05,.81V6.45h4.62l1.2-1.47c-.36,.36-.93,.45-1.53,.09-.42-1.17-1.74-2.58-2.85-3.33l.27-.27c4.08,.45,4.83,2.43,4.23,3.36l.21-.27s1.68,1.32,2.73,2.28c-.09,.33-.36,.48-.78,.48h-8.01c.42,2.91,1.11,5.31,1.95,7.26,1.23-1.65,2.49-3.78,3.45-5.49l2.88,1.89Zm-16.8-1.5c6.42,3.21,4.08,7.77,1.92,5.82-.15-1.83-1.29-4.14-2.25-5.67l.33-.15Z"/>
        <path class="cls-2" d="M149.4,11.1c5.91,3,3.96,7.14,2.01,5.43-.18-1.47-1.11-3.3-2.01-4.68v15.3c0,.3-.99,.84-1.8,.84h-.48V14.49c-1.17,2.55-2.7,4.89-4.62,6.9l-.39-.36c2.28-3.54,3.75-8.25,4.53-12.84h-3.84l-.21-.87h4.53V.15l3.36,.39c-.09,.45-.3,.72-1.08,.84V7.32h.66l1.38-1.77s1.47,1.26,2.43,2.16c-.09,.33-.36,.48-.78,.48h-3.69v2.91Zm20.88,4.14c-.24,.33-.57,.42-1.26,.27-1.53,2.13-3.18,3.9-4.98,5.43,8.43,3,6.72,8.25,3.99,6.51-.78-1.89-2.85-4.29-4.59-6-3.63,2.97-7.83,4.98-12.6,6.45l-.24-.48c6.69-2.94,12.42-6.93,16.47-13.95l3.21,1.77Zm-17.52-8.79l-.24-.87h13.68l1.5-2.01s1.68,1.38,2.7,2.4c-.06,.33-.36,.48-.78,.48h-9.06l2.1,.84c-.15,.27-.51,.54-1.14,.45-1.32,1.65-3.48,3.69-5.49,5.16,1.65-.09,3.9-.24,6.27-.39,.9-1.2,1.74-2.52,2.52-3.9l3.03,1.62c-.18,.33-.51,.42-1.23,.27-3.81,5.61-8.82,9.3-15,11.79l-.27-.51c3.9-2.1,7.35-4.77,10.2-8.31-1.65,.45-3.78,.99-6,1.5-.24,.33-.48,.54-.75,.63l-.99-2.73s.54-.09,.75-.24c1.65-1.23,3.72-4.29,4.68-6.18h-6.48ZM158.7,.15c6.66,1.8,4.53,6.39,2.19,4.68-.33-1.47-1.5-3.36-2.49-4.5l.3-.18Z"/>
        <path class="cls-2" d="M179.61,9.42c1.53,5.31,.33,9.03-.87,10.74-.78,1.2-2.1,1.68-2.82,.99-.57-.57-.36-1.41,.21-2.13,1.56-1.56,3-5.46,2.97-9.57l.51-.03Zm7.02-3.36c-.03,.39-.3,.72-1.02,.81V23.19c0,.78,.3,1.05,1.89,1.05h4.05c1.8,0,3.15-.03,3.72-.09,.51-.03,.66-.18,.84-.51,.33-.63,.78-2.58,1.29-4.98h.39l.06,5.19c.9,.3,1.11,.6,1.11,1.08,0,1.23-1.32,1.68-7.53,1.68h-4.23c-3.06,0-3.99-.57-3.99-2.79V5.7l3.42,.36Zm5.13,2.73c-.63-2.58-2.82-5.88-4.65-7.98l.36-.21c8.91,4.23,7.02,10.29,4.29,8.19Zm9.21,11.61c-.42-2.7-1.47-7.2-4.05-10.2l.33-.27c8.79,6.09,5.97,13.11,3.72,10.47Z"/>
        <path class="cls-2" d="M224.31,24.51v1.02h-7.89v-1.02l2.49-.36-3.51-5.07-3.81,5.04,2.55,.39v1.02h-6.42v-1.02l2.1-.33,4.86-6.12-4.56-6.69-2.13-.33v-1.08h7.29v1.08l-2.13,.36,3.39,4.86,3.63-4.83-2.28-.39v-1.08h6.06v1.08l-1.92,.33-4.8,5.91,4.8,6.9,2.28,.33Z"/>
        <path class="cls-2" d="M241.32,13.35c-.18,.33-.42,.42-1.23,.3-2.13,4.74-6.27,10.41-10.86,13.62l-.33-.3c3.48-3.54,6.9-9.87,8.49-15.03l3.93,1.41Zm9.81-5.13l1.86-2.46s2.1,1.68,3.39,2.88c-.09,.33-.42,.48-.84,.48h-26.13l-.27-.9h21.99Zm-8.49-1.26c-.39-2.13-2.34-4.74-4.17-6.24l.3-.24c8.91,2.31,6.78,8.58,3.87,6.48Zm11.19,19.38c-1.02-4.29-4.98-10.11-8.01-13.86l.45-.24c12.15,8.79,10.68,16.62,7.56,14.1Z"/>
        <path class="cls-2" d="M276.75,10.05c1.05,5.64,4.32,11.55,13.08,15.42l-.03,.36c-1.29,.18-2.13,.78-2.43,2.16-7.92-4.47-10.29-11.67-11.16-17.67-.87,7.02-3.69,13.2-14.1,17.64l-.36-.48c8.67-4.8,11.16-10.68,11.91-17.43h-11.37l-.21-.87h11.67c.24-2.79,.21-5.76,.21-8.82l3.72,.39c-.09,.45-.33,.75-1.02,.84-.06,2.61-.09,5.13-.33,7.59h8.1l1.77-2.22s2.07,1.56,3.27,2.61c-.06,.33-.39,.48-.78,.48h-11.94Z"/>
        <path class="cls-2" d="M305.25,3.18s.96,.78,1.8,1.56c.63-1.17,1.17-2.31,1.62-3.42l3.03,1.47c-.18,.33-.51,.45-1.26,.33-1.17,2.28-2.73,4.68-4.68,6.99h1.65l1.44-1.8s1.59,1.26,2.58,2.22c-.09,.33-.39,.48-.81,.48h-5.64c-1.05,1.17-2.19,2.28-3.42,3.36h4.32l1.2-1.32,2.61,1.98c-.18,.24-.66,.48-1.26,.6v10.98c-.03,.18-1.17,.69-1.89,.69h-.36v-2.19h-5.94v1.89c0,.18-.75,.75-1.89,.75h-.33v-10.68c-1.08,.72-2.22,1.38-3.42,1.98l-.33-.39c1.32-.84,2.55-1.77,3.75-2.76v-2.52l1.89,.78c1.02-.99,1.98-2.07,2.88-3.15h-7.92l-.24-.9h5.67V5.88h-4.56l-.24-.87h4.8V.48l3.39,.33c-.06,.42-.33,.72-1.11,.84v3.36h1.35l1.32-1.83Zm-4.71,12.03l-.3,.24v3.81h5.94v-4.05h-5.64Zm5.64,9.03v-4.11h-5.94v4.11h5.94Zm-2.67-14.13c1.08-1.38,2.04-2.82,2.88-4.23h-3.81v4.23h.93Zm19.38-6.27c-.24,.27-.66,.33-1.35,.36-1.08,1.98-3.06,5.61-4.5,7.56,3.57,2.4,4.92,5.22,4.92,7.65,.03,2.94-1.17,4.5-4.5,4.62,0-.72-.12-1.56-.39-1.89-.27-.24-.96-.42-1.71-.54v-.48h2.61c.33,0,.51-.03,.78-.15,.54-.3,.87-.93,.87-2.13,0-2.22-.9-4.65-3.36-6.99,.78-2.04,1.98-5.76,2.67-8.28h-4.65V27.15c0,.18-.75,.78-1.92,.78h-.39V1.35l2.7,1.35h4.2l1.38-1.38,2.64,2.52Z"/>
        <path class="cls-2" d="M342.63,17.25c-.36,1.95-1.11,3.72-2.43,5.25,3.99,1.92,9.39,2.67,15.3,2.85v.36c-1.05,.3-1.71,1.08-1.92,2.22-5.97-.6-10.89-1.8-14.49-4.35-2.22,1.92-5.7,3.45-10.98,4.5l-.21-.48c4.8-1.5,7.86-3.15,9.75-5.19-1.11-1.02-2.1-2.22-2.88-3.66l.42-.36c.84,1.23,1.95,2.25,3.24,3.09,.93-1.23,1.47-2.64,1.77-4.23h-5.73v.96c0,.24-.99,.78-1.98,.78h-.39V6.03l2.55,1.08h5.88V3.63h-11.91l-.27-.84h21.96l1.68-2.07s1.92,1.44,3.06,2.43c-.03,.33-.36,.48-.78,.48h-11.31v3.48h5.94l1.23-1.35,2.7,2.04c-.18,.24-.63,.51-1.23,.63v9.69c-.03,.18-1.23,.69-2.04,.69h-.39v-1.56h-6.54Zm-8.16-9.27v3.72h6.06v-3.72h-6.06Zm5.88,8.4c.12-.96,.18-2.01,.18-3.12v-.72h-6.06v3.84h5.88Zm8.82,0v-3.84h-6.21v.63c0,1.11-.06,2.19-.18,3.21h6.39Zm-6.21-8.4v3.72h6.21v-3.72h-6.21Z"/>
        <path class="cls-2" d="M370.89,12.9c-1.05,.57-2.31,1.26-3.84,2.07v9.84c0,1.8-.36,2.85-3.18,3.15-.09-.72-.21-1.29-.57-1.68-.36-.39-1.02-.66-2.19-.81v-.48s2.52,.21,3.06,.21c.51,0,.63-.15,.63-.57v-8.52c-.81,.39-1.62,.81-2.52,1.23-.09,.39-.36,.66-.66,.78l-1.11-2.97c.87-.15,2.43-.51,4.29-1.02V7.71h-3.87l-.24-.87h4.11V.27l3.36,.36c-.09,.45-.39,.75-1.11,.84V6.84h.21l1.29-1.83s1.35,1.23,2.22,2.16c.66-.63,1.08-1.74,.87-2.85l.54-.03c.15,.42,.27,.84,.36,1.23h5.13V.3l3.24,.33c-.03,.39-.33,.69-1.05,.78V5.52h1.59c.78-1.44,1.71-3.39,2.25-4.83l3.21,.93c-.15,.36-.54,.6-1.17,.57-.87,.99-2.16,2.28-3.42,3.33h2.76l1.32-1.41,2.43,2.37c-.24,.24-.57,.27-1.14,.3-.63,.6-1.83,1.29-2.73,1.71l-.39-.21c.21-.48,.45-1.23,.63-1.89h-12.54c.12,1.47-.39,2.52-1.11,2.97-.63,.42-1.59,.39-1.89-.33-.18-.51,.03-.99,.36-1.32h-2.97v5.82c1.2-.33,2.46-.66,3.72-1.02l.12,.39Zm15.03,4.74s1.59,1.29,2.58,2.22c-.06,.33-.39,.48-.81,.48h-4.83v4.62c0,1.71-.45,2.79-3.48,3.06-.03-.66-.21-1.23-.57-1.56-.42-.33-1.17-.6-2.58-.78v-.45s2.97,.21,3.6,.21c.54,0,.69-.15,.69-.54v-3.42c-3,2.67-7.32,4.59-12.12,5.82l-.24-.42c4.11-1.56,7.8-3.93,10.23-6.54h-4.86l-1.02,1.05-2.28-1.71c.3-.24,.78-.45,1.23-.6,.39-.93,.84-2.07,1.14-2.91h-2.79l-.24-.87h13.89l1.32-1.65s1.53,1.17,2.49,2.04c-.09,.33-.39,.48-.81,.48h-3.6v3.3h1.65l1.41-1.83ZM372.36,.81c5.34,1.74,3.45,5.55,1.56,4.05-.15-1.32-1.05-2.88-1.86-3.87l.3-.18Zm10.02,13.41v-.99h-7.44v.51c0,.18-.96,.6-1.8,.6h-.33V7.62l2.28,.96h7.02l1.14-1.2,2.46,1.86c-.18,.21-.6,.45-1.14,.57v3.72c-.03,.18-1.08,.69-1.83,.69h-.36Zm-1.86,5.25v-3.3h-5.49c-.39,.99-.93,2.28-1.35,3.3h6.84Zm1.86-7.11v-2.88h-7.44v2.88h7.44Z"/>
        <path class="cls-2" d="M404.31,2.7c-.18,.24-.6,.45-1.14,.57V24.96c0,1.59-.33,2.55-2.94,2.79-.09-.6-.21-1.11-.57-1.38-.42-.3-1.02-.54-2.19-.72v-.48s2.52,.21,3.06,.21c.51,0,.66-.18,.66-.63V14.28c-.75,.75-1.71,1.68-2.76,2.73-.03,.33-.21,.69-.48,.84l-.78-1.5c-.21,4.02-.93,8.28-3.12,11.64l-.45-.24c1.74-4.92,1.68-11.04,1.68-16.53V1.05l2.34,1.02h3.3l.99-1.23,2.4,1.86Zm-7.05,8.55c0,1.29,0,2.7-.06,4.14,.93-.45,2.4-1.17,3.99-2.04v-3.45c-.21,.21-.57,.33-1.02,.24-.66-.57-1.8-1.26-2.91-1.74v2.85Zm0-8.31V7.59c2.25-.21,3.45,.36,3.93,1.02V2.94h-3.93Zm22.17,12.9s1.41,1.08,2.25,1.92c-.06,.33-.3,.48-.72,.48h-4.32c-.36,1.83-.99,3.45-2.46,4.95,8.79,2.82,6.09,5.73,3.9,4.47-1.32-1.02-3.18-2.1-5.46-3.18-1.92,1.35-4.71,2.46-8.85,3.48l-.27-.6c3.42-1.08,5.79-2.28,7.47-3.57-1.65-.69-3.45-1.35-5.4-1.95,.63-.84,1.41-2.19,2.16-3.6h-3.63l-.24-.87h4.32c.78-1.5,1.47-3.03,1.83-3.93l3.03,1.2c-.15,.27-.39,.54-1.26,.39-.33,.66-.75,1.5-1.26,2.34h4.05c.09-.75,.18-1.59,.21-2.46l3.27,.33c-.06,.39-.39,.72-1.08,.78-.06,.48-.12,.9-.18,1.35h1.44l1.2-1.53Zm-14.46-12.45l-.24-.9h12.69l1.41-1.74s1.56,1.23,2.55,2.16c-.06,.33-.36,.48-.75,.48h-4.92v3h2.1l1.11-1.17,2.4,1.83c-.15,.21-.6,.45-1.14,.54v5.94c-.03,.21-1.05,.69-1.74,.69h-.33v-.84h-10.83v.54c0,.21-.9,.63-1.74,.63h-.3V5.4l2.22,.99h2.25V3.39h-4.74Zm2.31,9.12h2.49V7.26h-2.49v5.25Zm2.73,5.73c-.69,1.2-1.44,2.46-2.1,3.39,1.62,.33,3.06,.66,4.32,.99,1.2-1.32,1.83-2.79,2.16-4.38h-4.38Zm1.5-10.98v5.25h2.37V7.26h-2.37Zm2.34-3.87h-2.28v3h2.28V3.39Zm1.8,3.87v5.25h2.46V7.26h-2.46Z"/>
        <path class="cls-2" d="M442.53,24.51v1.02h-7.89v-1.02l2.49-.36-3.51-5.07-3.81,5.04,2.55,.39v1.02h-6.42v-1.02l2.1-.33,4.86-6.12-4.56-6.69-2.13-.33v-1.08h7.29v1.08l-2.13,.36,3.39,4.86,3.63-4.83-2.28-.39v-1.08h6.06v1.08l-1.92,.33-4.8,5.91,4.8,6.9,2.28,.33Z"/>
        <path class="cls-2" d="M471.39,1.86s1.92,1.44,3.09,2.49c-.09,.33-.33,.48-.78,.48h-26.04l-.24-.87h13.14c-.39-1.29-1.83-2.85-3.06-3.66l.27-.27c5.01,.39,5.49,3.06,4.41,3.93h7.5l1.71-2.1Zm-.06,11.64l2.79,2.07c-.18,.21-.66,.48-1.26,.6v8.76c0,1.74-.39,2.76-3.48,3.06-.09-.72-.21-1.26-.63-1.62-.39-.36-1.08-.66-2.43-.84v-.42s2.79,.18,3.48,.18c.51,0,.66-.18,.66-.6V15.72h-18.72v11.4c0,.24-1.02,.81-1.98,.81h-.39V13.71l2.61,1.14h18.18l1.17-1.35Zm-5.52,.09v-1.2h-9.66v.75c0,.18-1.08,.69-2.01,.69h-.36V6.06l2.52,1.11h9.21l1.23-1.35,2.73,2.04c-.18,.24-.66,.51-1.26,.63v4.5c-.03,.18-1.23,.6-2.01,.6h-.39Zm.51,10.5c-.03,.18-1.14,.69-1.92,.69h-.36v-1.41h-6.3v1.11c0,.21-1.02,.72-1.92,.72h-.33v-8.16l2.4,1.05h5.88l1.17-1.2,2.52,1.86c-.18,.21-.63,.45-1.14,.54v4.8Zm-.51-12.57v-3.48h-9.66v3.48h9.66Zm-1.77,10.95v-3.51h-6.3v3.51h6.3Z"/>
        <path class="cls-2" d="M490.23,9.36c-.09,.42-.42,.69-1.11,.72-.63,2.73-1.71,6.66-2.85,9.99,1.29-.42,2.61-.84,3.9-1.29l.12,.39c-1.95,1.29-4.68,2.97-8.4,4.89-.12,.39-.36,.69-.66,.81l-1.5-3c1.23-.27,3.33-.84,5.7-1.53,.57-3.63,1.11-8.28,1.47-11.64l3.33,.66Zm-9.99-1.65l-.21-.87h6.93l1.44-1.92s1.59,1.32,2.58,2.31c-.09,.33-.39,.48-.81,.48h-9.93Zm1.23,1.2c5.13,6.84,2.1,11.97,.81,9.72,.09-2.22-.09-6.54-1.29-9.54l.48-.18Zm1.62-8.34c5.73,2.7,3.27,6.96,1.26,5.04-.03-1.59-.84-3.57-1.59-4.89l.33-.15Zm16.32,11.4c-.81,1.08-1.86,2.4-2.7,3.3h7.23l1.05-1.23,2.58,1.89c-.18,.24-.6,.48-1.17,.57v8.46c0,1.74-.27,2.7-2.64,2.94-.03-.69-.09-1.26-.33-1.62-.24-.36-.66-.6-1.41-.75v-.45s1.38,.12,1.74,.12,.45-.18,.45-.51v-8.52h-2.55v9.12c0,.12-.6,.57-1.47,.57h-.3v-9.69h-2.58v9.84c0,.12-.57,.57-1.47,.57h-.3v-10.41h-2.67v10.92c0,.24-.9,.75-1.8,.75h-.36V14.28l2.34,.99h2.64c.36-.96,.75-2.28,1.02-3.3h-6.66l-.21-.87h14.34l1.29-1.59c-.36,.12-.81,.24-1.26,.24h-.39v-1.14h-9.93l-.84,1.2-2.4-1.56c.21-.24,.54-.48,.87-.69V2.04l3.33,.33c-.06,.33-.3,.6-1.2,.72V7.71h3.99V.36l3.15,.33c-.06,.39-.33,.66-1.02,.78V7.71h4.05V1.98l3.27,.33c-.06,.42-.33,.72-1.11,.84v6c0,.09-.15,.21-.39,.3,.27,.24,1.59,1.26,2.46,2.04-.09,.33-.39,.48-.78,.48h-7.86Z"/>
        <path class="cls-2" d="M518.34,14.52c0,3.69-.39,9.54-5.01,13.41l-.36-.3c2.76-4.11,3.06-9.03,3.06-13.11v-4.41l2.76,1.11h17.13l1.59-1.98s1.8,1.38,2.94,2.37c-.09,.33-.39,.48-.81,.48h-21.3v2.43Zm19.44-12.6s1.8,1.32,2.88,2.31c-.09,.33-.36,.48-.78,.48h-6.72l1.86,1.23c-.21,.27-.48,.36-1.11,.15-.84,.54-1.89,1.08-3.06,1.56,4.26,1.86,3.48,3.9,1.83,3.45-.96-.72-2.49-1.59-4.44-2.43-2.97,.99-6.39,1.8-9.6,2.22l-.18-.45c2.55-.63,5.31-1.53,7.8-2.61-1.8-.72-3.87-1.41-6.06-1.95l.15-.51c3.45,.33,6.09,.87,8.13,1.44,1.35-.69,2.61-1.41,3.57-2.1h-17.61l-.27-.9h12.6c-.3-1.32-1.44-2.76-2.52-3.57l.27-.24c4.5,.42,4.92,2.91,3.96,3.81h7.77l1.53-1.89Zm-.18,22.11s1.8,1.32,2.94,2.34c-.09,.33-.39,.48-.81,.48h-21.72l-.27-.9h10.05v-4.05h-5.91l-.24-.87h6.15v-3.6h-4.95c-.99,1.5-2.16,2.79-3.39,3.69l-.42-.27c1.32-1.89,2.61-4.8,3.27-7.86l3.21,.99c-.15,.33-.51,.6-1.14,.57-.3,.72-.66,1.35-1.02,2.01h4.44v-3.9l3.36,.33c-.06,.42-.3,.69-.99,.78v2.79h3.69l1.5-1.83s1.68,1.23,2.76,2.22c-.09,.33-.39,.48-.78,.48h-7.17v3.6h3.18l1.44-1.8s1.65,1.26,2.67,2.19c-.09,.33-.36,.48-.78,.48h-6.51v4.05h5.88l1.56-1.92Z"/>
        <path class="cls-2" d="M546.03,26.67c2.82-1.35,6.24-3.72,8.7-6.57l2.7,1.98c-.21,.27-.51,.36-1.14,.18-2.79,2.43-6.87,4.14-10.08,4.83l-.18-.42Zm24.75-22.41s1.68,1.23,2.76,2.16c-.09,.33-.39,.48-.81,.48h-8.46l2.88,.84c-.12,.36-.51,.6-1.17,.54-.66,.84-1.74,1.8-2.85,2.64h4.65l1.47-1.77s1.68,1.23,2.7,2.16c-.09,.33-.39,.48-.75,.48h-10.2v2.76h5.04l1.41-1.68s1.56,1.17,2.58,2.07c-.09,.33-.36,.48-.81,.48h-8.22v2.94h7.86l1.56-1.86s1.68,1.29,2.79,2.25c-.09,.33-.39,.48-.81,.48h-11.4v8.07c-.03,.15-.78,.66-2.01,.66h-.39v-8.73h-11.61l-.27-.87h11.88v-2.94h-8.73l-.24-.87h8.97v-2.76h-10.2l-.27-.87h7.47c-.15-.06-.27-.15-.42-.27-.09-1.2-.99-2.67-1.8-3.51l.33-.21c4.11,1.08,3.99,3.45,2.85,3.99h5.43c.72-1.2,1.44-2.79,1.92-4.02h-17.31l-.24-.87h9.96V.33l3.12,.3c-.06,.39-.3,.66-.96,.75V6.03h2.85V.33l3.15,.3c-.06,.39-.3,.66-.96,.78V6.03h1.02c.99-1.44,2.13-3.54,2.82-5.1l3.18,1.14c-.18,.33-.57,.54-1.2,.45-.99,1.08-2.49,2.46-3.96,3.51h3.9l1.5-1.77Zm-20.64-3.24c6.21,1.77,4.29,6.18,2.19,4.53-.21-1.47-1.41-3.27-2.52-4.29l.33-.24Zm12.33,19.83c14.25,2.97,10.17,7.8,7.89,5.82-1.53-1.62-4.32-3.66-8.07-5.37l.18-.45Z"/>
        <path class="cls-2" d="M604.44,17.76s1.68,1.32,2.64,2.31c-.09,.33-.36,.48-.78,.48h-5.55v6.72c0,.21-.72,.75-1.95,.75h-.39v-7.47h-5.19l-.24-.87h5.43v-5.91h-4.41l-.24-.87h4.65V7.68h-3.63c-.09,.3-.36,.45-.72,.45h-2.61v5.49c-.03,.21-1.14,.72-1.92,.72h-.36v-1.38h-4.26c-.3,1.08-.63,2.16-1.08,3.24l1.14,.45h4.29l1.23-1.35,2.64,2.04c-.21,.21-.66,.45-1.23,.57v8.73c-.03,.18-1.2,.66-1.95,.66h-.39v-1.92h-4.98v1.65c0,.21-.72,.75-1.83,.75h-.36v-8.79c-.84,1.32-1.86,2.61-3.12,3.81l-.45-.48c2.22-2.91,3.42-6.12,4.08-9.36h-3l-.27-.9h3.42c.24-1.32,.39-2.64,.48-3.93h-4.32l-.24-.87h4.62c.06-1.38,.09-2.7,.12-3.96h-3.45l-.27-.87h8.88l1.23-1.35,2.64,2.04c-.21,.21-.66,.48-1.29,.6v3.54l1.2-1.74s.69,.6,1.35,1.29h6c.69-1.92,1.5-4.59,1.95-6.51l3.39,1.05c-.12,.36-.48,.6-1.14,.57-.87,1.38-2.16,3.33-3.48,4.89h1.98l1.47-1.89s1.68,1.32,2.67,2.28c-.09,.33-.39,.48-.78,.48h-5.31v5.22h1.62l1.41-1.86s1.68,1.29,2.64,2.25c-.09,.33-.36,.48-.78,.48h-4.89v5.91h2.22l1.47-1.92Zm-19.86-.24v6.99h4.98v-6.99h-4.98Zm4.59-9.39h-3.42c-.15,1.29-.33,2.61-.63,3.93h4.05v-3.93Zm-3.12-4.83c-.03,1.29-.12,2.61-.21,3.96h3.33V3.3h-3.12Zm8.88-2.85c5.7,2.79,3.27,7.08,1.32,5.13,.06-1.65-.81-3.66-1.65-4.95l.33-.18Z"/>
        <path class="cls-2" d="M612.39,11.97c.72-.06,1.74-.18,3-.36V2.82h-2.73l-.24-.87h11.37l1.44-1.77s1.65,1.23,2.7,2.16c-.06,.33-.39,.48-.78,.48h-2.22V13.92c0,.12-.75,.6-1.89,.6h-.39v-3.24c-2.01,.66-4.65,1.5-8.13,2.52-.15,.36-.42,.6-.66,.66l-1.47-2.49Zm8.82,6.06c-.12,.33-.51,.6-1.17,.54-.24,.51-.48,1.02-.75,1.47,5.97,2.43,4.35,6.48,2.25,4.98-.36-1.35-1.53-3.03-2.67-4.26-1.59,2.46-3.66,4.11-6.03,5.16l-.36-.36c2.43-1.8,4.53-4.83,5.55-8.73l3.18,1.2Zm14.82-2.73c-.3,.24-.87,.24-1.62-.12-2.1,.33-4.62,.63-7.35,.87v11.16c0,.18-.78,.75-1.95,.75h-.45v-11.7c-3.12,.21-6.39,.33-9.42,.33l-.09-.54c6.36-.54,14.34-1.89,18.57-3.12l2.31,2.37Zm-18.39-12.48v2.25h5.01V2.82h-5.01Zm0,5.22h5.01v-2.1h-5.01v2.1Zm0,3.27c1.53-.21,3.27-.48,5.01-.72v-1.65h-5.01v2.37Zm21.45-7.56c-.21,.27-.51,.36-1.2,.39-.63,1.47-1.5,2.85-2.61,4.08,4.8,3.15,3.39,5.85,1.56,4.8-.6-.87-1.68-2.04-3.09-3.27-1.89,1.56-4.23,2.82-7.14,3.72l-.24-.45c2.49-1.08,4.53-2.58,6.09-4.35-1.44-1.14-3.18-2.31-5.1-3.36l.24-.42c2.49,.75,4.44,1.56,6,2.37,.72-1.08,1.29-2.19,1.71-3.39h-8.25l-.27-.87h8.52l1.41-1.35,2.37,2.1Zm-3.96,13.5c-.12,.39-.48,.63-1.11,.6-.15,.39-.33,.81-.51,1.2,1.11,2.13,3.21,3.75,5.34,4.47l-.03,.33c-.87,.18-1.41,.81-1.68,1.92-1.83-1.29-3.18-3.27-4.02-5.91-1.38,2.55-3.24,4.44-5.46,5.64l-.36-.33c2.07-1.95,3.87-5.1,4.65-8.91l3.18,.99Z"/>
      </g>
    </g>
  </g>
</svg>