<?xml version="1.0" encoding="UTF-8"?>
<svg id="_圖層_2" data-name="圖層 2" xmlns="http://www.w3.org/2000/svg" viewBox="0 0 258.74 289.94">
  <defs>
    <style>
      .cls-1 {
        fill: #a67c52;
      }

      .cls-2 {
        fill: #c69c6d;
      }
    </style>
  </defs>
  <g id="_圖層_2-2" data-name="圖層 2">
    <g>
      <g>
        <path class="cls-1" d="M29.91,5.62c-.04,3.64-.04,7.27-.04,10.87v1.76c0,3.64,0,7.27,.04,10.87l3.46,.32v1.26h-11.88v-1.26l3.31-.32c.11-3.56,.04-7.16,.11-10.29l.07-11.34-8.78,23.22h-1.76L5.4,7.63c.11,3.6,.18,8.39,.18,9.9v11.48l3.78,.43v1.26H0v-1.26l3.82-.43,.14-23.25L.18,5.29v-1.3H8.96l7.99,20.3L24.73,4h8.64v1.3l-3.46,.32Z"/>
        <path class="cls-1" d="M48.81,5.62c-.11,3.6-.11,7.2-.11,10.87v1.76c0,3.6,0,7.27,.11,10.87l3.42,.32v1.26h-12.02v-1.26l3.42-.32c.07-3.56,.07-7.2,.07-10.87v-1.76c0-3.6,0-7.23-.07-10.87l-3.42-.32v-1.3h12.02v1.3l-3.42,.32Z"/>
        <path class="cls-1" d="M83.59,5.62c-.04,3.6-.04,7.2-.04,10.87v1.76c0,3.6,0,7.27,.04,10.87l3.42,.32v1.26h-11.84v-1.26l3.28-.29c.07-3.56,.07-7.23,.07-11.41h-11.01c0,4.14,0,7.81,.11,11.41l3.28,.29v1.26h-11.84v-1.26l3.42-.32c.04-3.56,.04-7.2,.04-10.87v-1.76c0-3.6,0-7.23-.04-10.83l-3.42-.36v-1.3h11.84v1.3l-3.28,.32c-.11,3.53-.11,7.13-.11,10.73h11.01c0-3.56,0-7.16-.07-10.73l-3.28-.32v-1.3h11.84v1.3l-3.42,.32Z"/>
        <path class="cls-1" d="M127.76,2.59c-.4,.47-1.55,.79-3.02,.86,2.66,3.31,9.18,6.77,15.62,8.28v.43c-1.87,.54-3.35,2.23-3.85,3.96-5.22-2.92-10.26-7.52-12.63-12.56-3.64,6.05-10.37,11.09-17.82,13.97l-.22-.36c5.47-3.46,10.51-8.82,12.71-13.82h-5.98l-.32-1.04h10.47l1.33-2.16,3.71,2.45Zm7.09,26.06s2.63,2.02,4.25,3.46c-.11,.4-.47,.58-1.01,.58h-30.34l-.29-1.01h13.1v-7.7h-9.29l-.29-1.01h9.57v-6.88h-7.95l-.29-1.04h15.08l2.12-2.63s2.41,1.8,3.92,3.1c-.11,.4-.5,.58-1.01,.58h-7.45v6.88h4.82l2.23-2.84s2.48,1.94,4.03,3.28c-.07,.4-.47,.58-.97,.58h-10.11v7.7h7.49l2.38-3.02Z"/>
        <path class="cls-1" d="M158.36,21.09c-2.2,2.02-5.58,4.86-10.22,8.1-.07,.47-.4,.9-.83,1.08l-2.12-4.57c1.01-.29,2.56-.83,4.36-1.48V15.01h-3.38l-.29-1.04h3.67V5.08h-3.64l-.29-1.04h7.6l1.98-2.88s2.23,1.98,3.53,3.35c-.11,.4-.47,.58-.97,.58h-4.21V13.97h.29l1.69-2.66s1.91,1.87,2.95,3.13c-.07,.4-.43,.58-.94,.58h-4v7.67c1.55-.61,3.13-1.3,4.68-1.98l.14,.4Zm20.52-7.81c-.25,.32-.54,.4-1.26,.29-1.62,1.3-4,2.92-5.9,4.28,2.05,4.28,4.97,6.66,8.14,8.39l-.11,.36c-1.73,.43-3.06,2.02-3.64,4.1-4.1-4.14-6.16-9.03-7.13-18.83V29.16c0,2.81-.65,4.36-5.36,4.72-.11-1.19-.25-2.12-.83-2.7-.58-.58-1.33-1.01-3.13-1.3v-.5s3.64,.25,4.39,.25c.61,0,.79-.18,.79-.65v-7.05c-1.73,1.91-4,4.32-6.95,7.09-.04,.5-.29,.97-.65,1.19l-3.1-4.36c1.84-.79,6.16-3.02,10.69-5.47V8.71h-8.5l-.29-1.04h8.78V.25l5.4,.54c-.07,.5-.36,.83-1.26,.97V7.67h4.32l1.15-1.55c-.29-.07-.58-.18-.9-.36-.32-1.48-1.62-3.17-2.84-4.1l.29-.25c5.76-.07,6.48,2.84,5.29,4.14,.83,.68,2.09,1.76,3.02,2.59-.11,.4-.5,.58-1.01,.58h-9.21c.47,3.17,1.19,5.8,2.09,7.99,1.15-2.05,2.3-4.46,3.24-6.52l4.46,3.1Zm-20.88-2.38c9,3.56,4.79,10.26,1.51,7.02,0-2.34-.94-4.97-1.87-6.88l.36-.14Z"/>
        <path class="cls-1" d="M194.22,13.64c7.74,3.38,4.39,9.07,1.62,6.48,0-1.8-.79-3.92-1.62-5.58v18.14c0,.4-1.69,1.26-3.17,1.26h-.79v-14.51c-1.4,2.27-3.1,4.36-5.11,6.23l-.43-.43c2.63-4.18,4.28-9.94,5.11-15.41h-4.32l-.29-1.04h5.04V.07l5.26,.5c-.07,.54-.32,.9-1.3,1.04v7.16h.5l1.8-2.45s1.98,1.73,3.2,2.92c-.11,.4-.47,.58-.97,.58h-4.54v3.82Zm.83,19.69c7.77-3.53,14.4-8.42,19.15-17.03l4.93,2.74c-.29,.43-.72,.54-1.62,.4-1.69,2.27-3.46,4.18-5.36,5.83,10.22,3.1,6.91,10.55,2.84,7.7-.65-2.27-2.3-4.82-3.89-6.84-4.61,3.74-9.79,6.08-15.84,7.74l-.22-.54Zm2.99-25.81l-.29-1.04h15.44l2.09-2.99s2.45,2.05,3.85,3.46c-.11,.4-.47,.58-1.01,.58h-10.98l2.99,.97c-.14,.36-.54,.65-1.22,.65-1.66,1.87-4.32,4.14-6.77,5.76,1.87-.04,4.28-.11,6.8-.18,1.12-1.55,2.12-3.2,3.06-5l4.72,2.56c-.22,.36-.65,.5-1.51,.36-5.04,7.06-11.23,11.41-19.01,14.25l-.29-.54c4.57-2.56,8.53-5.76,11.88-10.04-1.84,.58-3.96,1.26-6.3,1.91-.36,.5-.72,.83-1.12,.97l-1.37-4.32s.72-.14,1.08-.36c1.62-1.22,3.71-4.68,4.64-6.98h-6.7Zm6.52-7.52c9.72,1.33,5.9,8.42,2.16,5.62-.25-1.87-1.4-4-2.45-5.4l.29-.22Z"/>
        <path class="cls-1" d="M229.64,10.98c2.7,6.55,1.66,11.09-.04,13.5-1.15,1.76-3.2,1.98-4.32,.86-.83-1.04-.58-2.34,.32-3.35,1.84-1.69,3.64-6.16,3.56-10.98l.47-.04Zm9.61-3.78c-.04,.47-.36,.86-1.26,.97V26.82c0,.9,.43,1.19,2.05,1.19h4.39c1.62,0,2.95-.04,3.6-.07,.61-.07,.94-.22,1.22-.65,.47-.76,1.15-2.88,1.94-5.62h.4l.14,5.87c1.3,.5,1.62,1.01,1.62,1.84,0,2.02-1.8,2.92-9.32,2.92h-4.61c-4.28,0-5.69-.76-5.69-4.21V6.66l5.51,.54Zm4.86,3.53c-.68-3.35-2.92-7.23-5.08-9.86l.32-.22c12.56,4.18,9.14,13.43,4.75,10.08Zm10.29,14.25c-.22-3.49-1.19-9.04-4.07-12.92l.32-.29c13.07,7.88,7.16,17.71,3.74,13.21Z"/>
        <path class="cls-1" d="M125.06,77.28l2.48,3.74c.65,.97,1.19,1.87,1.76,2.84h.11c.58-1.04,1.15-1.94,1.73-2.88l2.45-3.71h3.42l-5.94,8.42,6.12,9h-3.6l-2.56-3.92c-.68-1.01-1.26-1.98-1.87-3.02h-.07c-.58,1.04-1.19,1.98-1.84,3.02l-2.52,3.92h-3.49l6.19-8.89-5.9-8.53h3.53Z"/>
        <path class="cls-1" d="M29.68,143.95c-.18,.4-.47,.58-1.51,.43-2.84,6.23-8.1,12.92-14.43,16.67l-.29-.29c4.14-4.36,8.03-12.42,9.68-19.04l6.55,2.23Zm9.79-6.19l2.77-3.78s3.06,2.52,4.9,4.21c-.11,.4-.54,.58-1.08,.58H14.02l-.29-1.01h25.74Zm-10.37-1.62c-.29-2.74-2.05-5.76-4.21-7.56l.25-.22c12.81,1.44,8.71,11.34,3.96,7.77Zm13.43,23.47c-1.19-5.65-5.22-12.42-8.89-17.24l.47-.22c16.74,9.61,13.64,21.74,8.42,17.46Z"/>
        <path class="cls-1" d="M71.55,140.02c1.26,6.66,5.44,13.28,15.51,17.35l-.07,.4c-2.2,.4-3.49,1.73-3.89,4.18-8.39-5.11-11.09-13.86-12.06-21.06-1.08,8.57-4.68,15.91-17.75,21.06l-.32-.54c10.01-6.05,12.81-13.17,13.61-21.38h-12.99l-.29-1.04h13.35c.25-3.38,.22-6.98,.22-10.73l6.05,.58c-.11,.54-.43,.9-1.3,1.04-.07,3.13-.11,6.19-.36,9.11h8.1l2.66-3.28s2.92,2.2,4.72,3.74c-.11,.4-.5,.58-1.04,.58h-14.15Z"/>
        <path class="cls-1" d="M126.88,132.93c-.29,.36-.76,.47-1.62,.5-1.37,2.38-3.64,6.34-5.62,8.75,4.36,2.56,6.12,6.26,6.12,9.29,.04,3.64-1.51,5.83-5.83,5.9,0-1.19-.14-2.81-.47-3.31-.32-.4-.97-.72-1.87-.9v-.5h2.63c.36,0,.54-.04,.83-.18,.54-.32,.86-.97,.86-2.16,0-2.63-.86-5.51-3.17-8.06,.68-2.45,1.66-6.95,2.16-9.97h-4v28.29c0,.32-1.22,1.3-3.28,1.3h-.72v-20.95c-.14,.32-.47,.47-.94,.47h-6.77c-1.15,1.3-2.41,2.59-3.82,3.82h3.67l1.87-1.98,3.89,2.92c-.22,.25-.72,.58-1.4,.72v13.35c-.04,.25-1.98,1.04-3.31,1.04h-.68v-2.99h-5.4v2.27c0,.29-1.22,1.15-3.17,1.15h-.68v-12.56c-1.22,.76-2.48,1.48-3.82,2.12l-.32-.43c1.44-1.01,2.84-2.09,4.14-3.28v-3.89l2.81,1.04c.97-1.08,1.91-2.16,2.77-3.31h-9.14l-.29-1.01h6.19v-5.33h-4.93l-.29-1.04h5.22v-5.62l5.33,.47c-.07,.5-.36,.86-1.33,1.01v4.14h.65l1.76-2.56s.94,.83,1.87,1.73c.65-1.3,1.19-2.59,1.66-3.82l4.46,2.2v-2.41l4.5,2.12h3.2l2.16-2.12,4.1,3.78Zm-26.71,13.32l-.14,.14v4.82h5.4v-4.97h-5.26Zm5.26,10.98v-4.97h-5.4v4.97h5.4Zm-2.92-22.17v5.29c1.26-1.73,2.38-3.53,3.35-5.29h-3.35Zm7.02,2.74s2.12,1.76,3.38,2.99v-8.93c-.25,.25-.61,.36-1.33,.22-1.4,2.7-3.24,5.54-5.51,8.31h1.55l1.91-2.59Z"/>
        <path class="cls-1" d="M151.03,148.52c-.36,2.45-1.12,4.68-2.7,6.62,4.79,1.8,11.01,2.34,17.42,2.3v.47c-1.76,.58-2.77,1.94-3.1,4-6.59-.68-12.13-1.98-16.27-4.9-2.77,2.2-7.05,3.89-13.68,4.97l-.18-.43c5.83-1.87,9.39-3.92,11.52-6.48-1.26-1.3-2.38-2.81-3.24-4.61l.4-.36c1.01,1.4,2.3,2.59,3.89,3.53,.9-1.51,1.4-3.2,1.69-5.11h-5.51v.94c0,.4-1.84,1.33-3.56,1.33h-.61v-16.05l4.43,1.73h5.47v-4.03h-13.64l-.29-1.04h25.12l2.52-3.06s2.81,2.09,4.54,3.53c-.11,.4-.5,.58-1.01,.58h-12.99v4.03h5.58l1.94-2.12,4.07,3.1c-.22,.29-.65,.61-1.4,.76v11.34c-.04,.29-2.16,1.04-3.53,1.04h-.72v-2.05h-6.16Zm-9.75-11.01v4.39h5.72v-4.39h-5.72Zm5.62,10.01c.07-.9,.11-1.84,.11-2.84v-1.73h-5.72v4.57h5.62Zm10.29,0v-4.57h-5.94v1.62c0,1.01-.04,2.02-.11,2.95h6.05Zm-5.94-10.01v4.39h5.94v-4.39h-5.94Z"/>
        <path class="cls-1" d="M202.19,148.66s2.23,1.87,3.6,3.2c-.07,.4-.47,.58-.97,.58h-5.69v5.04c0,2.66-.65,4.28-5.22,4.64-.07-1.19-.25-2.09-.72-2.63-.5-.5-1.22-.94-2.95-1.22v-.47s3.35,.22,4.07,.22c.58,0,.72-.22,.72-.61v-3.06c-3.38,3.06-8.35,5.26-14.04,6.66l-.25-.5c4.46-1.91,8.28-4.9,10.69-8.06h-3.35l-1.51,1.66-3.67-2.41c.32-.29,.9-.61,1.44-.83,.5-1.08,1.08-2.41,1.44-3.46h-2.88l-.29-1.01h16.74l1.8-2.3c-.5,.32-1.91,.83-2.92,.83h-.61v-1.19h-8.03v.5c0,.29-1.62,1.08-3.1,1.08h-.5v-6.8c-.29,.54-.72,.94-1.19,1.15-1.01,.47-2.34,.14-2.66-1.04-.14-.5-.04-.97,.18-1.33h-2.27v6.44c1.4-.32,2.88-.65,4.32-1.01l.11,.4c-1.15,.76-2.59,1.69-4.43,2.77v11.34c0,2.81-.54,4.32-4.79,4.75-.07-1.26-.25-2.2-.68-2.81-.43-.61-1.12-1.04-2.56-1.3v-.5s2.84,.22,3.49,.22c.54,0,.68-.18,.68-.61v-8.89c-.72,.4-1.48,.79-2.27,1.22-.18,.47-.54,.83-.97,.94l-1.55-4.79c.97-.14,2.7-.47,4.79-.9v-7.27h-4.39l-.25-1.04h4.64v-8.13l5.18,.54c-.07,.47-.43,.83-1.33,.94v6.23l1.44-2.38s1.37,1.4,2.41,2.63c.83-.58,1.48-1.69,1.33-2.81l.54-.04c.22,.5,.4,1.01,.5,1.48h5.36v-6.55l4.97,.43c-.04,.5-.32,.79-1.19,.97v5.15h1.48c.72-1.84,1.58-4.28,2.09-6.08l4.86,1.3c-.14,.43-.61,.72-1.37,.68-1.15,1.19-2.99,2.81-4.61,4.1h2.66l1.98-2.02,3.53,3.38c-.25,.25-.65,.36-1.33,.4-.9,.58-2.27,1.26-3.46,1.69l1.4,1.04c-.22,.25-.68,.54-1.33,.68v4.03s0,.04-.04,.07c.29,.22,2.2,1.73,3.42,2.84-.11,.4-.47,.58-.97,.58h-4.61v4h1.01l2.05-2.74Zm-16.74-19.8c7.7,1.58,4.54,7.27,1.62,4.93-.11-1.62-1.08-3.53-1.98-4.72l.36-.22Zm4.32,9.47h7.49l1.73-1.87,1.48,1.08c.11-.54,.25-1.19,.32-1.8h-14.33c.07,.47,.04,.86,0,1.26l3.31,1.33Zm5.26,13.07v-4h-5c-.5,1.22-1.19,2.77-1.76,4h6.77Zm2.59-8.71v-3.35h-8.03v3.35h8.03Z"/>
        <path class="cls-1" d="M223.25,157.55c0,2.41-.47,3.74-4.14,4.1-.07-1.01-.22-1.84-.61-2.3-.4-.5-1.04-.86-2.34-1.08v-.54s2.59,.18,3.17,.18,.68-.22,.68-.68v-11.05c-.61,.76-1.33,1.66-2.09,2.63-.04,.43-.29,.86-.65,1.08l-1.12-2.23c-.29,5-1.26,10.26-4.54,14.33l-.54-.29c2.09-5.9,1.98-13.35,1.98-19.98v-12.67l3.74,1.44h2.88l1.51-1.8,3.38,2.63c-.22,.29-.68,.54-1.33,.68v25.56Zm-6.98-15.87c0,1.37,0,2.88-.04,4.43,.94-.43,2.3-1.12,3.78-1.84v-4.03c-.29,.14-.65,.18-1.04,.11-.61-.61-1.66-1.33-2.7-1.91v3.24Zm0-10.15v5.54c1.84-.29,3.02,0,3.74,.5v-6.05h-3.74Zm26.02,15.37s1.87,1.51,3.06,2.66c-.11,.4-.47,.58-.97,.58h-5.04c-.43,2.02-1.19,3.85-2.7,5.47,11.45,3.2,6.77,7.7,3.49,5.87-1.4-1.19-3.42-2.48-5.94-3.74-2.38,1.58-5.87,2.95-10.98,4.14l-.29-.61c4.03-1.48,6.8-3.02,8.75-4.72-1.84-.79-3.85-1.55-6.05-2.2,.65-.97,1.44-2.56,2.23-4.21h-3.78l-.29-1.04h4.54c.83-1.87,1.58-3.67,1.94-4.79h-1.62v.5c0,.32-1.51,1.08-2.95,1.08h-.5v-11.63l3.67,1.48h1.69v-3.74h-5.44l-.29-1.01h14.25l2.02-2.59s2.23,1.76,3.64,3.02c-.11,.4-.47,.58-.97,.58h-5.62v3.74h1.58l1.66-1.76,3.49,2.63c-.18,.25-.68,.54-1.3,.68v7.09c-.04,.29-1.76,1.01-2.92,1.01h-.58v-1.08h-9.72l4.64,1.44c-.14,.36-.47,.72-1.55,.65-.36,.76-.83,1.69-1.37,2.7h3.53c.14-1.01,.22-2.05,.29-3.17l5.15,.43c-.07,.5-.47,.9-1.3,.97-.07,.61-.14,1.19-.25,1.76h1.08l1.69-2.2Zm-13.64-3.6h2.02v-6.52h-2.02v6.52Zm2.95,6.84c-.76,1.44-1.58,2.92-2.27,4,1.44,.22,2.77,.43,3.96,.68,1.15-1.44,1.8-2.99,2.16-4.68h-3.85Zm1.76-13.35v6.52h2.02v-6.52h-2.02Zm.11-1.04h1.8v-3.74h-1.8v3.74Zm4.61,1.04v6.52h2.02v-6.52h-2.02Z"/>
        <path class="cls-1" d="M125.06,205.28l2.48,3.74c.65,.97,1.19,1.87,1.76,2.84h.11c.58-1.04,1.15-1.94,1.73-2.88l2.45-3.71h3.42l-5.94,8.42,6.12,9h-3.6l-2.56-3.92c-.68-1.01-1.26-1.98-1.87-3.02h-.07c-.58,1.04-1.19,1.98-1.84,3.02l-2.52,3.92h-3.49l6.19-8.89-5.9-8.53h3.53Z"/>
        <path class="cls-1" d="M42.46,257.58s2.88,2.09,4.61,3.56c-.11,.4-.5,.58-1.01,.58H14.06l-.32-1.01h15.3c-.4-1.66-1.76-3.42-3.02-4.43l.25-.22c6.88-.36,7.45,3.28,5.83,4.64h7.88l2.48-3.13Zm.07,14.11l4.18,3.1c-.22,.29-.72,.61-1.48,.76v9.79c0,2.7-.61,4.25-5.29,4.61-.11-1.22-.25-2.16-.76-2.74-.5-.58-1.19-1.04-2.88-1.33v-.47s3.17,.22,4,.22c.54,0,.68-.25,.68-.68v-10.11H19.96v13.71c0,.43-1.84,1.37-3.56,1.37h-.61v-17.85l4.5,1.76h20.34l1.91-2.12Zm-7.13,.76v-1.62h-9.93v.79c0,.32-1.87,1.22-3.6,1.22h-.58v-10.01l4.39,1.73h9.36l1.91-2.12,4.1,3.1c-.22,.29-.68,.61-1.4,.76v5.29c-.04,.22-2.2,.86-3.53,.86h-.72Zm1.62,12.24c-.04,.25-1.91,1.04-3.24,1.04h-.65v-1.76h-5.65v1.15c0,.32-1.76,1.15-3.31,1.15h-.54v-10.19l4,1.58h5.15l1.8-1.87,3.78,2.77c-.22,.29-.65,.58-1.33,.72v5.4Zm-1.62-14.87v-4.21h-9.93v4.21h9.93Zm-2.27,13.14v-4.25h-5.65v4.25h5.65Z"/>
        <path class="cls-1" d="M66.11,267.59c-.14,.5-.54,.83-1.4,.86-.86,3.06-2.27,7.56-3.85,11.52,1.58-.43,3.13-.94,4.72-1.44l.07,.4c-2.16,1.73-5.29,4.1-9.86,6.84-.14,.5-.5,.9-.9,1.04l-2.23-4.86c1.55-.25,4.1-.86,6.98-1.62,.58-4.46,1.15-9.97,1.44-13.97l5.04,1.22Zm-12.81-2.23l-.29-1.04h8.17l1.94-2.81s2.16,1.94,3.46,3.28c-.11,.4-.47,.58-.97,.58h-12.31Zm1.4,1.33c7.7,8.06,2.38,14.65,.54,11.12,.22-2.63,.18-7.49-1.08-10.94l.54-.18Zm1.66-10.11c8.75,2.84,4.46,9.29,1.19,6.16,.04-2.09-.76-4.39-1.55-6.01l.36-.14Zm20.77,13.86c-1.12,1.26-2.48,2.74-3.71,3.85h7.85l1.69-1.94,3.82,2.81c-.22,.29-.68,.58-1.4,.76v9.4c0,2.7-.43,4.1-4.1,4.46,0-1.19-.04-2.12-.29-2.74-.25-.58-.65-.94-1.48-1.15v.5c0,.14-.86,.68-2.3,.68h-.47v-11.77h-2.12v11.95c0,.18-.86,.76-2.3,.76h-.47v-12.71h-2.16v13.28c0,.36-1.58,1.19-3.17,1.19h-.54v-17.1l3.92,1.62h2.02c.29-1.15,.58-2.66,.72-3.85h-7.2l-.29-1.04h16.49l1.51-1.94c-.43,.07-.94,.14-1.44,.14h-.65v-1.12h-10.29l-1.19,1.91-3.85-2.3c.29-.32,.68-.68,1.12-1.01v-6.7l5.04,.47c-.07,.43-.4,.72-1.4,.9v5.72h3.46v-9.25l4.86,.43c-.07,.47-.36,.79-1.19,.94v7.88h3.46v-7.09l5.08,.43c-.07,.5-.36,.83-1.37,1.01v6.95c0,.14-.32,.32-.83,.47,.68,.54,2.12,1.73,3.1,2.63-.11,.4-.47,.58-.97,.58h-8.93Zm2.38,4.86v10.08c.22,.04,1.22,.11,1.62,.11s.5-.22,.5-.61v-9.57h-2.12Z"/>
        <path class="cls-1" d="M121.87,266.62s2.7,1.94,4.36,3.35c-.11,.4-.54,.58-1.04,.58h-25.02v3.02c0,4.5-.58,11.88-7.34,16.34l-.29-.32c3.2-4.97,3.49-11.16,3.49-16.02v-5.76l3.46,1.22-.18-.36c2.92-.79,6.05-1.91,8.93-3.17-2.2-.86-4.57-1.73-7.09-2.45l.14-.54c4.43,.18,7.81,.68,10.33,1.37,1.44-.76,2.74-1.51,3.78-2.27h-20.95l-.29-1.01h15.12c-.11-.04-.25-.11-.36-.18-.29-1.58-1.51-3.35-2.66-4.25l.25-.22c7.02-.5,7.09,3.56,5,4.64h7.99l2.34-2.88s2.66,1.94,4.28,3.31c-.11,.4-.47,.58-1.01,.58h-8.17l3.1,1.87c-.25,.36-.61,.5-1.37,.32-.9,.5-1.94,1.01-3.17,1.51,3.46,1.84,3.13,3.92,1.58,4.21h2.45l2.34-2.92Zm-.22,18.03s2.66,1.94,4.32,3.35c-.11,.4-.5,.58-1.01,.58h-26.31l-.29-1.04h11.7v-5.04h-6.73l-.29-1.04h7.02v-4.28h-4.86c-1.22,1.73-2.66,3.17-4.25,4.18l-.47-.29c1.33-2.34,2.52-5.98,3.1-9.5l5.04,1.48c-.14,.43-.61,.76-1.4,.76-.4,.79-.83,1.58-1.3,2.34h4.14v-4.9l5.36,.47c-.07,.5-.32,.83-1.19,.94v3.49h2.81l2.2-2.66s2.38,1.73,3.96,3.13c-.11,.4-.47,.58-1.01,.58h-7.96v4.28h2.41l2.09-2.56s2.3,1.76,3.78,3.02c-.11,.4-.47,.58-.97,.58h-7.31v5.04h5.04l2.38-2.88Zm-20.81-15.12h15.51c-.11,0-.22-.04-.32-.07-1.08-.76-2.74-1.69-4.82-2.66-3.56,1.08-7.63,1.94-11.37,2.38l1.01,.36Z"/>
        <path class="cls-1" d="M132.14,288.29c3.28-1.73,7.23-4.93,10.01-8.57l4.54,3.13c-.29,.36-.68,.47-1.55,.29-3.49,3.1-8.85,4.93-12.85,5.58l-.14-.43Zm29.66-27.54s2.45,1.69,3.92,2.99c-.11,.4-.47,.58-1.01,.58h-11.05l4.72,1.33c-.11,.43-.54,.68-1.33,.65-.97,.94-2.41,2.09-3.92,3.1h4.64l2.2-2.59s2.45,1.73,4,3.02c-.11,.4-.5,.58-.97,.58h-11.88v3.24h4.61l2.05-2.48s2.38,1.66,3.85,2.92c-.11,.4-.47,.58-1.01,.58h-9.5v3.49h7.92l2.27-2.7s2.52,1.8,4.03,3.17c-.07,.4-.47,.58-.94,.58h-13.28v9.75c-.04,.22-1.33,1.01-3.49,1.01h-.76v-10.76h-13.61l-.29-1.04h13.89v-3.49h-10.11l-.29-1.01h10.4v-3.24h-11.91l-.29-1.01h9.25c-.36-.07-.76-.29-1.12-.58-.04-1.51-.83-3.17-1.66-4.18l.32-.22c6.3,.83,5.54,4.46,3.46,4.97h6.59c.68-1.58,1.33-3.53,1.73-5.08h-20.27l-.29-1.04h7.34c-.36-.07-.76-.25-1.15-.58-.07-1.91-1.19-4.03-2.41-5.33l.32-.22c7.05,1.19,6.33,5.65,4.07,6.12h3.31v-7.13l4.82,.43c-.04,.43-.32,.76-1.12,.9v5.8h2.48v-7.13l4.9,.43c-.07,.43-.32,.76-1.15,.9v5.8h1.04c.9-1.87,1.84-4.46,2.38-6.37l5.08,1.58c-.18,.43-.61,.72-1.4,.61-1.26,1.3-3.24,2.92-5.18,4.18h3.64l2.16-2.52Zm-9.61,20.37c19.26,2.48,11.99,10.08,8.5,6.88-1.51-1.87-4.43-4.43-8.71-6.41l.22-.47Z"/>
        <path class="cls-1" d="M202.33,276.73s2.34,1.94,3.74,3.31c-.11,.4-.5,.58-1.01,.58h-6.16v8.21c0,.25-1.26,1.08-3.38,1.08h-.76v-9.29h-5.65l-.29-1.04h5.94v-6.98h-4.9l-.29-1.04h5.18v-6.37h-3.35c-.14,.29-.47,.43-.86,.43h-3.13v6.84c-.04,.22-2.02,.94-3.28,.94h-.65v-1.94h-4.18c-.36,1.33-.79,2.63-1.33,3.89l1.8,.68h3.74l1.87-2.05,3.92,2.99c-.25,.25-.68,.54-1.37,.68v10.29c-.04,.29-2.05,1.04-3.38,1.04h-.68v-2.38h-4.57v1.91c0,.29-1.15,1.15-3.06,1.15h-.68v-10.01c-.97,1.33-2.09,2.59-3.46,3.78l-.5-.5c2.41-3.64,3.67-7.56,4.32-11.48h-3.17l-.32-1.01h3.64c.22-1.62,.36-3.24,.43-4.82h-4.46l-.29-1.04h4.79c.07-1.58,.07-3.13,.11-4.64h-3.42l-.32-1.01h10.22l1.84-2.05,3.92,2.99c-.25,.29-.76,.61-1.48,.76v3.38l1.22-1.91s1.08,1.04,2.05,2.09h6.33c.68-2.38,1.4-5.76,1.76-8.06l5.33,1.62c-.14,.4-.58,.72-1.37,.65-1.19,1.66-3.06,3.96-4.9,5.8h2.23l2.05-2.74s2.3,1.87,3.71,3.17c-.11,.4-.47,.58-.97,.58h-5.98v6.37h1.01l2.02-2.7s2.2,1.87,3.53,3.17c-.07,.4-.47,.58-.97,.58h-5.58v6.98h1.33l2.09-2.84Zm-23,.29v8.53h4.57v-8.53h-4.57Zm4.18-11.41h-3.17c-.18,1.62-.43,3.24-.76,4.82h3.92v-4.82Zm-2.84-5.69c-.04,1.51-.11,3.1-.25,4.64h3.1v-4.64h-2.84Zm10.44-3.6c8.24,3.2,3.96,9.36,.97,6.26,.18-2.09-.54-4.46-1.33-6.08l.36-.18Z"/>
        <path class="cls-1" d="M211.77,270c.83-.07,2.02-.22,3.46-.36v-10.19h-2.99l-.29-1.04h13.61l2.12-2.56s2.41,1.76,3.89,3.02c-.07,.4-.47,.58-.97,.58h-2.95v13.03c0,.18-1.22,.86-3.24,.86h-.68v-3.74c-2.16,.9-4.93,2.02-8.71,3.38-.22,.47-.54,.76-.9,.86l-2.34-3.85Zm11.41,7.95c-.14,.43-.65,.76-1.44,.68-.25,.5-.54,1.01-.83,1.48,7.06,2.77,4.07,8.28,1.01,5.87-.22-1.48-1.01-3.17-1.91-4.57-2.09,2.77-4.75,4.61-7.74,5.8l-.4-.4c2.74-2.3,5.15-6.19,6.23-10.76l5.08,1.91Zm16.92-.76c-.14,.47-.61,.79-1.4,.76-.18,.43-.4,.86-.61,1.3,1.4,2.05,3.82,3.6,6.26,4.25l-.04,.4c-1.33,.4-2.23,1.55-2.63,3.46-2.05-1.58-3.35-3.89-4.18-7.06-1.76,3.06-4.07,5.26-6.8,6.66l-.4-.32v2.12c0,.25-1.33,1.15-3.46,1.15h-.79v-14.25c-3.56,.22-7.2,.29-10.58,.25l-.07-.61c7.38-.83,16.92-2.7,21.85-4.25l3.6,3.71c-.4,.29-1.19,.29-2.27-.18-2.38,.32-5.18,.61-8.28,.83v11.16c2.2-2.56,3.96-6.48,4.75-10.91l5.04,1.55Zm-21.02-17.75v2.56h4.64v-2.56h-4.64Zm0,6.01h4.64v-2.41h-4.64v2.41Zm0,3.71c1.48-.18,3.02-.4,4.64-.61v-2.05h-4.64v2.66Zm25.81-8.53c-.25,.36-.61,.47-1.37,.5-.76,1.62-1.76,3.1-3.02,4.46,5.69,3.6,3.31,7.52,.54,6.05-.65-.97-1.76-2.23-3.28-3.6-2.27,1.69-5,3.06-8.31,3.96l-.25-.47c2.7-1.3,4.93-3.06,6.66-5.15-1.66-1.37-3.64-2.74-5.83-3.96l.22-.43c3.02,.58,5.4,1.3,7.31,2.09,.68-1.08,1.26-2.23,1.69-3.42h-9.4l-.32-1.04h9.65l2.16-2.05,3.56,3.06Z"/>
      </g>
      <g>
        <path class="cls-2" d="M29.91,5.62c-.04,3.64-.04,7.27-.04,10.87v1.76c0,3.64,0,7.27,.04,10.87l3.46,.32v1.26h-11.88v-1.26l3.31-.32c.11-3.56,.04-7.16,.11-10.29l.07-11.34-8.78,23.22h-1.76L5.4,7.63c.11,3.6,.18,8.39,.18,9.9v11.48l3.78,.43v1.26H0v-1.26l3.82-.43,.14-23.25L.18,5.29v-1.3H8.96l7.99,20.3L24.73,4h8.64v1.3l-3.46,.32Z"/>
        <path class="cls-2" d="M48.81,5.62c-.11,3.6-.11,7.2-.11,10.87v1.76c0,3.6,0,7.27,.11,10.87l3.42,.32v1.26h-12.02v-1.26l3.42-.32c.07-3.56,.07-7.2,.07-10.87v-1.76c0-3.6,0-7.23-.07-10.87l-3.42-.32v-1.3h12.02v1.3l-3.42,.32Z"/>
        <path class="cls-2" d="M83.59,5.62c-.04,3.6-.04,7.2-.04,10.87v1.76c0,3.6,0,7.27,.04,10.87l3.42,.32v1.26h-11.84v-1.26l3.28-.29c.07-3.56,.07-7.23,.07-11.41h-11.01c0,4.14,0,7.81,.11,11.41l3.28,.29v1.26h-11.84v-1.26l3.42-.32c.04-3.56,.04-7.2,.04-10.87v-1.76c0-3.6,0-7.23-.04-10.83l-3.42-.36v-1.3h11.84v1.3l-3.28,.32c-.11,3.53-.11,7.13-.11,10.73h11.01c0-3.56,0-7.16-.07-10.73l-3.28-.32v-1.3h11.84v1.3l-3.42,.32Z"/>
        <path class="cls-2" d="M127.76,2.59c-.4,.47-1.55,.79-3.02,.86,2.66,3.31,9.18,6.77,15.62,8.28v.43c-1.87,.54-3.35,2.23-3.85,3.96-5.22-2.92-10.26-7.52-12.63-12.56-3.64,6.05-10.37,11.09-17.82,13.97l-.22-.36c5.47-3.46,10.51-8.82,12.71-13.82h-5.98l-.32-1.04h10.47l1.33-2.16,3.71,2.45Zm7.09,26.06s2.63,2.02,4.25,3.46c-.11,.4-.47,.58-1.01,.58h-30.34l-.29-1.01h13.1v-7.7h-9.29l-.29-1.01h9.57v-6.88h-7.95l-.29-1.04h15.08l2.12-2.63s2.41,1.8,3.92,3.1c-.11,.4-.5,.58-1.01,.58h-7.45v6.88h4.82l2.23-2.84s2.48,1.94,4.03,3.28c-.07,.4-.47,.58-.97,.58h-10.11v7.7h7.49l2.38-3.02Z"/>
        <path class="cls-2" d="M158.36,21.09c-2.2,2.02-5.58,4.86-10.22,8.1-.07,.47-.4,.9-.83,1.08l-2.12-4.57c1.01-.29,2.56-.83,4.36-1.48V15.01h-3.38l-.29-1.04h3.67V5.08h-3.64l-.29-1.04h7.6l1.98-2.88s2.23,1.98,3.53,3.35c-.11,.4-.47,.58-.97,.58h-4.21V13.97h.29l1.69-2.66s1.91,1.87,2.95,3.13c-.07,.4-.43,.58-.94,.58h-4v7.67c1.55-.61,3.13-1.3,4.68-1.98l.14,.4Zm20.52-7.81c-.25,.32-.54,.4-1.26,.29-1.62,1.3-4,2.92-5.9,4.28,2.05,4.28,4.97,6.66,8.14,8.39l-.11,.36c-1.73,.43-3.06,2.02-3.64,4.1-4.1-4.14-6.16-9.03-7.13-18.83V29.16c0,2.81-.65,4.36-5.36,4.72-.11-1.19-.25-2.12-.83-2.7-.58-.58-1.33-1.01-3.13-1.3v-.5s3.64,.25,4.39,.25c.61,0,.79-.18,.79-.65v-7.05c-1.73,1.91-4,4.32-6.95,7.09-.04,.5-.29,.97-.65,1.19l-3.1-4.36c1.84-.79,6.16-3.02,10.69-5.47V8.71h-8.5l-.29-1.04h8.78V.25l5.4,.54c-.07,.5-.36,.83-1.26,.97V7.67h4.32l1.15-1.55c-.29-.07-.58-.18-.9-.36-.32-1.48-1.62-3.17-2.84-4.1l.29-.25c5.76-.07,6.48,2.84,5.29,4.14,.83,.68,2.09,1.76,3.02,2.59-.11,.4-.5,.58-1.01,.58h-9.21c.47,3.17,1.19,5.8,2.09,7.99,1.15-2.05,2.3-4.46,3.24-6.52l4.46,3.1Zm-20.88-2.38c9,3.56,4.79,10.26,1.51,7.02,0-2.34-.94-4.97-1.87-6.88l.36-.14Z"/>
        <path class="cls-2" d="M194.22,13.64c7.74,3.38,4.39,9.07,1.62,6.48,0-1.8-.79-3.92-1.62-5.58v18.14c0,.4-1.69,1.26-3.17,1.26h-.79v-14.51c-1.4,2.27-3.1,4.36-5.11,6.23l-.43-.43c2.63-4.18,4.28-9.94,5.11-15.41h-4.32l-.29-1.04h5.04V.07l5.26,.5c-.07,.54-.32,.9-1.3,1.04v7.16h.5l1.8-2.45s1.98,1.73,3.2,2.92c-.11,.4-.47,.58-.97,.58h-4.54v3.82Zm.83,19.69c7.77-3.53,14.4-8.42,19.15-17.03l4.93,2.74c-.29,.43-.72,.54-1.62,.4-1.69,2.27-3.46,4.18-5.36,5.83,10.22,3.1,6.91,10.55,2.84,7.7-.65-2.27-2.3-4.82-3.89-6.84-4.61,3.74-9.79,6.08-15.84,7.74l-.22-.54Zm2.99-25.81l-.29-1.04h15.44l2.09-2.99s2.45,2.05,3.85,3.46c-.11,.4-.47,.58-1.01,.58h-10.98l2.99,.97c-.14,.36-.54,.65-1.22,.65-1.66,1.87-4.32,4.14-6.77,5.76,1.87-.04,4.28-.11,6.8-.18,1.12-1.55,2.12-3.2,3.06-5l4.72,2.56c-.22,.36-.65,.5-1.51,.36-5.04,7.06-11.23,11.41-19.01,14.25l-.29-.54c4.57-2.56,8.53-5.76,11.88-10.04-1.84,.58-3.96,1.26-6.3,1.91-.36,.5-.72,.83-1.12,.97l-1.37-4.32s.72-.14,1.08-.36c1.62-1.22,3.71-4.68,4.64-6.98h-6.7Zm6.52-7.52c9.72,1.33,5.9,8.42,2.16,5.62-.25-1.87-1.4-4-2.45-5.4l.29-.22Z"/>
        <path class="cls-2" d="M229.64,10.98c2.7,6.55,1.66,11.09-.04,13.5-1.15,1.76-3.2,1.98-4.32,.86-.83-1.04-.58-2.34,.32-3.35,1.84-1.69,3.64-6.16,3.56-10.98l.47-.04Zm9.61-3.78c-.04,.47-.36,.86-1.26,.97V26.82c0,.9,.43,1.19,2.05,1.19h4.39c1.62,0,2.95-.04,3.6-.07,.61-.07,.94-.22,1.22-.65,.47-.76,1.15-2.88,1.94-5.62h.4l.14,5.87c1.3,.5,1.62,1.01,1.62,1.84,0,2.02-1.8,2.92-9.32,2.92h-4.61c-4.28,0-5.69-.76-5.69-4.21V6.66l5.51,.54Zm4.86,3.53c-.68-3.35-2.92-7.23-5.08-9.86l.32-.22c12.56,4.18,9.14,13.43,4.75,10.08Zm10.29,14.25c-.22-3.49-1.19-9.04-4.07-12.92l.32-.29c13.07,7.88,7.16,17.71,3.74,13.21Z"/>
        <path class="cls-2" d="M125.06,77.28l2.48,3.74c.65,.97,1.19,1.87,1.76,2.84h.11c.58-1.04,1.15-1.94,1.73-2.88l2.45-3.71h3.42l-5.94,8.42,6.12,9h-3.6l-2.56-3.92c-.68-1.01-1.26-1.98-1.87-3.02h-.07c-.58,1.04-1.19,1.98-1.84,3.02l-2.52,3.92h-3.49l6.19-8.89-5.9-8.53h3.53Z"/>
        <path class="cls-2" d="M29.68,143.95c-.18,.4-.47,.58-1.51,.43-2.84,6.23-8.1,12.92-14.43,16.67l-.29-.29c4.14-4.36,8.03-12.42,9.68-19.04l6.55,2.23Zm9.79-6.19l2.77-3.78s3.06,2.52,4.9,4.21c-.11,.4-.54,.58-1.08,.58H14.02l-.29-1.01h25.74Zm-10.37-1.62c-.29-2.74-2.05-5.76-4.21-7.56l.25-.22c12.81,1.44,8.71,11.34,3.96,7.77Zm13.43,23.47c-1.19-5.65-5.22-12.42-8.89-17.24l.47-.22c16.74,9.61,13.64,21.74,8.42,17.46Z"/>
        <path class="cls-2" d="M71.55,140.02c1.26,6.66,5.44,13.28,15.51,17.35l-.07,.4c-2.2,.4-3.49,1.73-3.89,4.18-8.39-5.11-11.09-13.86-12.06-21.06-1.08,8.57-4.68,15.91-17.75,21.06l-.32-.54c10.01-6.05,12.81-13.17,13.61-21.38h-12.99l-.29-1.04h13.35c.25-3.38,.22-6.98,.22-10.73l6.05,.58c-.11,.54-.43,.9-1.3,1.04-.07,3.13-.11,6.19-.36,9.11h8.1l2.66-3.28s2.92,2.2,4.72,3.74c-.11,.4-.5,.58-1.04,.58h-14.15Z"/>
        <path class="cls-2" d="M126.88,132.93c-.29,.36-.76,.47-1.62,.5-1.37,2.38-3.64,6.34-5.62,8.75,4.36,2.56,6.12,6.26,6.12,9.29,.04,3.64-1.51,5.83-5.83,5.9,0-1.19-.14-2.81-.47-3.31-.32-.4-.97-.72-1.87-.9v-.5h2.63c.36,0,.54-.04,.83-.18,.54-.32,.86-.97,.86-2.16,0-2.63-.86-5.51-3.17-8.06,.68-2.45,1.66-6.95,2.16-9.97h-4v28.29c0,.32-1.22,1.3-3.28,1.3h-.72v-20.95c-.14,.32-.47,.47-.94,.47h-6.77c-1.15,1.3-2.41,2.59-3.82,3.82h3.67l1.87-1.98,3.89,2.92c-.22,.25-.72,.58-1.4,.72v13.35c-.04,.25-1.98,1.04-3.31,1.04h-.68v-2.99h-5.4v2.27c0,.29-1.22,1.15-3.17,1.15h-.68v-12.56c-1.22,.76-2.48,1.48-3.82,2.12l-.32-.43c1.44-1.01,2.84-2.09,4.14-3.28v-3.89l2.81,1.04c.97-1.08,1.91-2.16,2.77-3.31h-9.14l-.29-1.01h6.19v-5.33h-4.93l-.29-1.04h5.22v-5.62l5.33,.47c-.07,.5-.36,.86-1.33,1.01v4.14h.65l1.76-2.56s.94,.83,1.87,1.73c.65-1.3,1.19-2.59,1.66-3.82l4.46,2.2v-2.41l4.5,2.12h3.2l2.16-2.12,4.1,3.78Zm-26.71,13.32l-.14,.14v4.82h5.4v-4.97h-5.26Zm5.26,10.98v-4.97h-5.4v4.97h5.4Zm-2.92-22.17v5.29c1.26-1.73,2.38-3.53,3.35-5.29h-3.35Zm7.02,2.74s2.12,1.76,3.38,2.99v-8.93c-.25,.25-.61,.36-1.33,.22-1.4,2.7-3.24,5.54-5.51,8.31h1.55l1.91-2.59Z"/>
        <path class="cls-2" d="M151.03,148.52c-.36,2.45-1.12,4.68-2.7,6.62,4.79,1.8,11.01,2.34,17.42,2.3v.47c-1.76,.58-2.77,1.94-3.1,4-6.59-.68-12.13-1.98-16.27-4.9-2.77,2.2-7.05,3.89-13.68,4.97l-.18-.43c5.83-1.87,9.39-3.92,11.52-6.48-1.26-1.3-2.38-2.81-3.24-4.61l.4-.36c1.01,1.4,2.3,2.59,3.89,3.53,.9-1.51,1.4-3.2,1.69-5.11h-5.51v.94c0,.4-1.84,1.33-3.56,1.33h-.61v-16.05l4.43,1.73h5.47v-4.03h-13.64l-.29-1.04h25.12l2.52-3.06s2.81,2.09,4.54,3.53c-.11,.4-.5,.58-1.01,.58h-12.99v4.03h5.58l1.94-2.12,4.07,3.1c-.22,.29-.65,.61-1.4,.76v11.34c-.04,.29-2.16,1.04-3.53,1.04h-.72v-2.05h-6.16Zm-9.75-11.01v4.39h5.72v-4.39h-5.72Zm5.62,10.01c.07-.9,.11-1.84,.11-2.84v-1.73h-5.72v4.57h5.62Zm10.29,0v-4.57h-5.94v1.62c0,1.01-.04,2.02-.11,2.95h6.05Zm-5.94-10.01v4.39h5.94v-4.39h-5.94Z"/>
        <path class="cls-2" d="M202.19,148.66s2.23,1.87,3.6,3.2c-.07,.4-.47,.58-.97,.58h-5.69v5.04c0,2.66-.65,4.28-5.22,4.64-.07-1.19-.25-2.09-.72-2.63-.5-.5-1.22-.94-2.95-1.22v-.47s3.35,.22,4.07,.22c.58,0,.72-.22,.72-.61v-3.06c-3.38,3.06-8.35,5.26-14.04,6.66l-.25-.5c4.46-1.91,8.28-4.9,10.69-8.06h-3.35l-1.51,1.66-3.67-2.41c.32-.29,.9-.61,1.44-.83,.5-1.08,1.08-2.41,1.44-3.46h-2.88l-.29-1.01h16.74l1.8-2.3c-.5,.32-1.91,.83-2.92,.83h-.61v-1.19h-8.03v.5c0,.29-1.62,1.08-3.1,1.08h-.5v-6.8c-.29,.54-.72,.94-1.19,1.15-1.01,.47-2.34,.14-2.66-1.04-.14-.5-.04-.97,.18-1.33h-2.27v6.44c1.4-.32,2.88-.65,4.32-1.01l.11,.4c-1.15,.76-2.59,1.69-4.43,2.77v11.34c0,2.81-.54,4.32-4.79,4.75-.07-1.26-.25-2.2-.68-2.81-.43-.61-1.12-1.04-2.56-1.3v-.5s2.84,.22,3.49,.22c.54,0,.68-.18,.68-.61v-8.89c-.72,.4-1.48,.79-2.27,1.22-.18,.47-.54,.83-.97,.94l-1.55-4.79c.97-.14,2.7-.47,4.79-.9v-7.27h-4.39l-.25-1.04h4.64v-8.13l5.18,.54c-.07,.47-.43,.83-1.33,.94v6.23l1.44-2.38s1.37,1.4,2.41,2.63c.83-.58,1.48-1.69,1.33-2.81l.54-.04c.22,.5,.4,1.01,.5,1.48h5.36v-6.55l4.97,.43c-.04,.5-.32,.79-1.19,.97v5.15h1.48c.72-1.84,1.58-4.28,2.09-6.08l4.86,1.3c-.14,.43-.61,.72-1.37,.68-1.15,1.19-2.99,2.81-4.61,4.1h2.66l1.98-2.02,3.53,3.38c-.25,.25-.65,.36-1.33,.4-.9,.58-2.27,1.26-3.46,1.69l1.4,1.04c-.22,.25-.68,.54-1.33,.68v4.03s0,.04-.04,.07c.29,.22,2.2,1.73,3.42,2.84-.11,.4-.47,.58-.97,.58h-4.61v4h1.01l2.05-2.74Zm-16.74-19.8c7.7,1.58,4.54,7.27,1.62,4.93-.11-1.62-1.08-3.53-1.98-4.72l.36-.22Zm4.32,9.47h7.49l1.73-1.87,1.48,1.08c.11-.54,.25-1.19,.32-1.8h-14.33c.07,.47,.04,.86,0,1.26l3.31,1.33Zm5.26,13.07v-4h-5c-.5,1.22-1.19,2.77-1.76,4h6.77Zm2.59-8.71v-3.35h-8.03v3.35h8.03Z"/>
        <path class="cls-2" d="M223.25,157.55c0,2.41-.47,3.74-4.14,4.1-.07-1.01-.22-1.84-.61-2.3-.4-.5-1.04-.86-2.34-1.08v-.54s2.59,.18,3.17,.18,.68-.22,.68-.68v-11.05c-.61,.76-1.33,1.66-2.09,2.63-.04,.43-.29,.86-.65,1.08l-1.12-2.23c-.29,5-1.26,10.26-4.54,14.33l-.54-.29c2.09-5.9,1.98-13.35,1.98-19.98v-12.67l3.74,1.44h2.88l1.51-1.8,3.38,2.63c-.22,.29-.68,.54-1.33,.68v25.56Zm-6.98-15.87c0,1.37,0,2.88-.04,4.43,.94-.43,2.3-1.12,3.78-1.84v-4.03c-.29,.14-.65,.18-1.04,.11-.61-.61-1.66-1.33-2.7-1.91v3.24Zm0-10.15v5.54c1.84-.29,3.02,0,3.74,.5v-6.05h-3.74Zm26.02,15.37s1.87,1.51,3.06,2.66c-.11,.4-.47,.58-.97,.58h-5.04c-.43,2.02-1.19,3.85-2.7,5.47,11.45,3.2,6.77,7.7,3.49,5.87-1.4-1.19-3.42-2.48-5.94-3.74-2.38,1.58-5.87,2.95-10.98,4.14l-.29-.61c4.03-1.48,6.8-3.02,8.75-4.72-1.84-.79-3.85-1.55-6.05-2.2,.65-.97,1.44-2.56,2.23-4.21h-3.78l-.29-1.04h4.54c.83-1.87,1.58-3.67,1.94-4.79h-1.62v.5c0,.32-1.51,1.08-2.95,1.08h-.5v-11.63l3.67,1.48h1.69v-3.74h-5.44l-.29-1.01h14.25l2.02-2.59s2.23,1.76,3.64,3.02c-.11,.4-.47,.58-.97,.58h-5.62v3.74h1.58l1.66-1.76,3.49,2.63c-.18,.25-.68,.54-1.3,.68v7.09c-.04,.29-1.76,1.01-2.92,1.01h-.58v-1.08h-9.72l4.64,1.44c-.14,.36-.47,.72-1.55,.65-.36,.76-.83,1.69-1.37,2.7h3.53c.14-1.01,.22-2.05,.29-3.17l5.15,.43c-.07,.5-.47,.9-1.3,.97-.07,.61-.14,1.19-.25,1.76h1.08l1.69-2.2Zm-13.64-3.6h2.02v-6.52h-2.02v6.52Zm2.95,6.84c-.76,1.44-1.58,2.92-2.27,4,1.44,.22,2.77,.43,3.96,.68,1.15-1.44,1.8-2.99,2.16-4.68h-3.85Zm1.76-13.35v6.52h2.02v-6.52h-2.02Zm.11-1.04h1.8v-3.74h-1.8v3.74Zm4.61,1.04v6.52h2.02v-6.52h-2.02Z"/>
        <path class="cls-2" d="M125.06,205.28l2.48,3.74c.65,.97,1.19,1.87,1.76,2.84h.11c.58-1.04,1.15-1.94,1.73-2.88l2.45-3.71h3.42l-5.94,8.42,6.12,9h-3.6l-2.56-3.92c-.68-1.01-1.26-1.98-1.87-3.02h-.07c-.58,1.04-1.19,1.98-1.84,3.02l-2.52,3.92h-3.49l6.19-8.89-5.9-8.53h3.53Z"/>
        <path class="cls-2" d="M42.46,257.58s2.88,2.09,4.61,3.56c-.11,.4-.5,.58-1.01,.58H14.06l-.32-1.01h15.3c-.4-1.66-1.76-3.42-3.02-4.43l.25-.22c6.88-.36,7.45,3.28,5.83,4.64h7.88l2.48-3.13Zm.07,14.11l4.18,3.1c-.22,.29-.72,.61-1.48,.76v9.79c0,2.7-.61,4.25-5.29,4.61-.11-1.22-.25-2.16-.76-2.74-.5-.58-1.19-1.04-2.88-1.33v-.47s3.17,.22,4,.22c.54,0,.68-.25,.68-.68v-10.11H19.96v13.71c0,.43-1.84,1.37-3.56,1.37h-.61v-17.85l4.5,1.76h20.34l1.91-2.12Zm-7.13,.76v-1.62h-9.93v.79c0,.32-1.87,1.22-3.6,1.22h-.58v-10.01l4.39,1.73h9.36l1.91-2.12,4.1,3.1c-.22,.29-.68,.61-1.4,.76v5.29c-.04,.22-2.2,.86-3.53,.86h-.72Zm1.62,12.24c-.04,.25-1.91,1.04-3.24,1.04h-.65v-1.76h-5.65v1.15c0,.32-1.76,1.15-3.31,1.15h-.54v-10.19l4,1.58h5.15l1.8-1.87,3.78,2.77c-.22,.29-.65,.58-1.33,.72v5.4Zm-1.62-14.87v-4.21h-9.93v4.21h9.93Zm-2.27,13.14v-4.25h-5.65v4.25h5.65Z"/>
        <path class="cls-2" d="M66.11,267.59c-.14,.5-.54,.83-1.4,.86-.86,3.06-2.27,7.56-3.85,11.52,1.58-.43,3.13-.94,4.72-1.44l.07,.4c-2.16,1.73-5.29,4.1-9.86,6.84-.14,.5-.5,.9-.9,1.04l-2.23-4.86c1.55-.25,4.1-.86,6.98-1.62,.58-4.46,1.15-9.97,1.44-13.97l5.04,1.22Zm-12.81-2.23l-.29-1.04h8.17l1.94-2.81s2.16,1.94,3.46,3.28c-.11,.4-.47,.58-.97,.58h-12.31Zm1.4,1.33c7.7,8.06,2.38,14.65,.54,11.12,.22-2.63,.18-7.49-1.08-10.94l.54-.18Zm1.66-10.11c8.75,2.84,4.46,9.29,1.19,6.16,.04-2.09-.76-4.39-1.55-6.01l.36-.14Zm20.77,13.86c-1.12,1.26-2.48,2.74-3.71,3.85h7.85l1.69-1.94,3.82,2.81c-.22,.29-.68,.58-1.4,.76v9.4c0,2.7-.43,4.1-4.1,4.46,0-1.19-.04-2.12-.29-2.74-.25-.58-.65-.94-1.48-1.15v.5c0,.14-.86,.68-2.3,.68h-.47v-11.77h-2.12v11.95c0,.18-.86,.76-2.3,.76h-.47v-12.71h-2.16v13.28c0,.36-1.58,1.19-3.17,1.19h-.54v-17.1l3.92,1.62h2.02c.29-1.15,.58-2.66,.72-3.85h-7.2l-.29-1.04h16.49l1.51-1.94c-.43,.07-.94,.14-1.44,.14h-.65v-1.12h-10.29l-1.19,1.91-3.85-2.3c.29-.32,.68-.68,1.12-1.01v-6.7l5.04,.47c-.07,.43-.4,.72-1.4,.9v5.72h3.46v-9.25l4.86,.43c-.07,.47-.36,.79-1.19,.94v7.88h3.46v-7.09l5.08,.43c-.07,.5-.36,.83-1.37,1.01v6.95c0,.14-.32,.32-.83,.47,.68,.54,2.12,1.73,3.1,2.63-.11,.4-.47,.58-.97,.58h-8.93Zm2.38,4.86v10.08c.22,.04,1.22,.11,1.62,.11s.5-.22,.5-.61v-9.57h-2.12Z"/>
        <path class="cls-2" d="M121.87,266.62s2.7,1.94,4.36,3.35c-.11,.4-.54,.58-1.04,.58h-25.02v3.02c0,4.5-.58,11.88-7.34,16.34l-.29-.32c3.2-4.97,3.49-11.16,3.49-16.02v-5.76l3.46,1.22-.18-.36c2.92-.79,6.05-1.91,8.93-3.17-2.2-.86-4.57-1.73-7.09-2.45l.14-.54c4.43,.18,7.81,.68,10.33,1.37,1.44-.76,2.74-1.51,3.78-2.27h-20.95l-.29-1.01h15.12c-.11-.04-.25-.11-.36-.18-.29-1.58-1.51-3.35-2.66-4.25l.25-.22c7.02-.5,7.09,3.56,5,4.64h7.99l2.34-2.88s2.66,1.94,4.28,3.31c-.11,.4-.47,.58-1.01,.58h-8.17l3.1,1.87c-.25,.36-.61,.5-1.37,.32-.9,.5-1.94,1.01-3.17,1.51,3.46,1.84,3.13,3.92,1.58,4.21h2.45l2.34-2.92Zm-.22,18.03s2.66,1.94,4.32,3.35c-.11,.4-.5,.58-1.01,.58h-26.31l-.29-1.04h11.7v-5.04h-6.73l-.29-1.04h7.02v-4.28h-4.86c-1.22,1.73-2.66,3.17-4.25,4.18l-.47-.29c1.33-2.34,2.52-5.98,3.1-9.5l5.04,1.48c-.14,.43-.61,.76-1.4,.76-.4,.79-.83,1.58-1.3,2.34h4.14v-4.9l5.36,.47c-.07,.5-.32,.83-1.19,.94v3.49h2.81l2.2-2.66s2.38,1.73,3.96,3.13c-.11,.4-.47,.58-1.01,.58h-7.96v4.28h2.41l2.09-2.56s2.3,1.76,3.78,3.02c-.11,.4-.47,.58-.97,.58h-7.31v5.04h5.04l2.38-2.88Zm-20.81-15.12h15.51c-.11,0-.22-.04-.32-.07-1.08-.76-2.74-1.69-4.82-2.66-3.56,1.08-7.63,1.94-11.37,2.38l1.01,.36Z"/>
        <path class="cls-2" d="M132.14,288.29c3.28-1.73,7.23-4.93,10.01-8.57l4.54,3.13c-.29,.36-.68,.47-1.55,.29-3.49,3.1-8.85,4.93-12.85,5.58l-.14-.43Zm29.66-27.54s2.45,1.69,3.92,2.99c-.11,.4-.47,.58-1.01,.58h-11.05l4.72,1.33c-.11,.43-.54,.68-1.33,.65-.97,.94-2.41,2.09-3.92,3.1h4.64l2.2-2.59s2.45,1.73,4,3.02c-.11,.4-.5,.58-.97,.58h-11.88v3.24h4.61l2.05-2.48s2.38,1.66,3.85,2.92c-.11,.4-.47,.58-1.01,.58h-9.5v3.49h7.92l2.27-2.7s2.52,1.8,4.03,3.17c-.07,.4-.47,.58-.94,.58h-13.28v9.75c-.04,.22-1.33,1.01-3.49,1.01h-.76v-10.76h-13.61l-.29-1.04h13.89v-3.49h-10.11l-.29-1.01h10.4v-3.24h-11.91l-.29-1.01h9.25c-.36-.07-.76-.29-1.12-.58-.04-1.51-.83-3.17-1.66-4.18l.32-.22c6.3,.83,5.54,4.46,3.46,4.97h6.59c.68-1.58,1.33-3.53,1.73-5.08h-20.27l-.29-1.04h7.34c-.36-.07-.76-.25-1.15-.58-.07-1.91-1.19-4.03-2.41-5.33l.32-.22c7.05,1.19,6.33,5.65,4.07,6.12h3.31v-7.13l4.82,.43c-.04,.43-.32,.76-1.12,.9v5.8h2.48v-7.13l4.9,.43c-.07,.43-.32,.76-1.15,.9v5.8h1.04c.9-1.87,1.84-4.46,2.38-6.37l5.08,1.58c-.18,.43-.61,.72-1.4,.61-1.26,1.3-3.24,2.92-5.18,4.18h3.64l2.16-2.52Zm-9.61,20.37c19.26,2.48,11.99,10.08,8.5,6.88-1.51-1.87-4.43-4.43-8.71-6.41l.22-.47Z"/>
        <path class="cls-2" d="M202.33,276.73s2.34,1.94,3.74,3.31c-.11,.4-.5,.58-1.01,.58h-6.16v8.21c0,.25-1.26,1.08-3.38,1.08h-.76v-9.29h-5.65l-.29-1.04h5.94v-6.98h-4.9l-.29-1.04h5.18v-6.37h-3.35c-.14,.29-.47,.43-.86,.43h-3.13v6.84c-.04,.22-2.02,.94-3.28,.94h-.65v-1.94h-4.18c-.36,1.33-.79,2.63-1.33,3.89l1.8,.68h3.74l1.87-2.05,3.92,2.99c-.25,.25-.68,.54-1.37,.68v10.29c-.04,.29-2.05,1.04-3.38,1.04h-.68v-2.38h-4.57v1.91c0,.29-1.15,1.15-3.06,1.15h-.68v-10.01c-.97,1.33-2.09,2.59-3.46,3.78l-.5-.5c2.41-3.64,3.67-7.56,4.32-11.48h-3.17l-.32-1.01h3.64c.22-1.62,.36-3.24,.43-4.82h-4.46l-.29-1.04h4.79c.07-1.58,.07-3.13,.11-4.64h-3.42l-.32-1.01h10.22l1.84-2.05,3.92,2.99c-.25,.29-.76,.61-1.48,.76v3.38l1.22-1.91s1.08,1.04,2.05,2.09h6.33c.68-2.38,1.4-5.76,1.76-8.06l5.33,1.62c-.14,.4-.58,.72-1.37,.65-1.19,1.66-3.06,3.96-4.9,5.8h2.23l2.05-2.74s2.3,1.87,3.71,3.17c-.11,.4-.47,.58-.97,.58h-5.98v6.37h1.01l2.02-2.7s2.2,1.87,3.53,3.17c-.07,.4-.47,.58-.97,.58h-5.58v6.98h1.33l2.09-2.84Zm-23,.29v8.53h4.57v-8.53h-4.57Zm4.18-11.41h-3.17c-.18,1.62-.43,3.24-.76,4.82h3.92v-4.82Zm-2.84-5.69c-.04,1.51-.11,3.1-.25,4.64h3.1v-4.64h-2.84Zm10.44-3.6c8.24,3.2,3.96,9.36,.97,6.26,.18-2.09-.54-4.46-1.33-6.08l.36-.18Z"/>
        <path class="cls-2" d="M211.77,270c.83-.07,2.02-.22,3.46-.36v-10.19h-2.99l-.29-1.04h13.61l2.12-2.56s2.41,1.76,3.89,3.02c-.07,.4-.47,.58-.97,.58h-2.95v13.03c0,.18-1.22,.86-3.24,.86h-.68v-3.74c-2.16,.9-4.93,2.02-8.71,3.38-.22,.47-.54,.76-.9,.86l-2.34-3.85Zm11.41,7.95c-.14,.43-.65,.76-1.44,.68-.25,.5-.54,1.01-.83,1.48,7.06,2.77,4.07,8.28,1.01,5.87-.22-1.48-1.01-3.17-1.91-4.57-2.09,2.77-4.75,4.61-7.74,5.8l-.4-.4c2.74-2.3,5.15-6.19,6.23-10.76l5.08,1.91Zm16.92-.76c-.14,.47-.61,.79-1.4,.76-.18,.43-.4,.86-.61,1.3,1.4,2.05,3.82,3.6,6.26,4.25l-.04,.4c-1.33,.4-2.23,1.55-2.63,3.46-2.05-1.58-3.35-3.89-4.18-7.06-1.76,3.06-4.07,5.26-6.8,6.66l-.4-.32v2.12c0,.25-1.33,1.15-3.46,1.15h-.79v-14.25c-3.56,.22-7.2,.29-10.58,.25l-.07-.61c7.38-.83,16.92-2.7,21.85-4.25l3.6,3.71c-.4,.29-1.19,.29-2.27-.18-2.38,.32-5.18,.61-8.28,.83v11.16c2.2-2.56,3.96-6.48,4.75-10.91l5.04,1.55Zm-21.02-17.75v2.56h4.64v-2.56h-4.64Zm0,6.01h4.64v-2.41h-4.64v2.41Zm0,3.71c1.48-.18,3.02-.4,4.64-.61v-2.05h-4.64v2.66Zm25.81-8.53c-.25,.36-.61,.47-1.37,.5-.76,1.62-1.76,3.1-3.02,4.46,5.69,3.6,3.31,7.52,.54,6.05-.65-.97-1.76-2.23-3.28-3.6-2.27,1.69-5,3.06-8.31,3.96l-.25-.47c2.7-1.3,4.93-3.06,6.66-5.15-1.66-1.37-3.64-2.74-5.83-3.96l.22-.43c3.02,.58,5.4,1.3,7.31,2.09,.68-1.08,1.26-2.23,1.69-3.42h-9.4l-.32-1.04h9.65l2.16-2.05,3.56,3.06Z"/>
      </g>
    </g>
  </g>
</svg>