<?xml version="1.0" encoding="UTF-8"?>
<svg id="_圖層_2" data-name="圖層 2" xmlns="http://www.w3.org/2000/svg" viewBox="0 0 526.63 672.81">
  <defs>
    <style>
      .cls-1 {
        fill: #c2996c;
      }

      .cls-2 {
        fill: #d9ba9d;
      }

      .cls-3 {
        fill: none;
        stroke: #c2996c;
        stroke-miterlimit: 10;
      }
    </style>
  </defs>
  <g id="_圖層_1-2" data-name="圖層 1">
    <g>
      <g>
        <circle class="cls-3" cx="104.05" cy="104.05" r="103.55"/>
        <g>
          <path class="cls-1" d="M83.08,54.75c5.47,2.48,3.68,6.1,1.91,4.58-.25-1.2-1.12-2.78-1.91-3.95v14.08c0,.25-.84,.71-1.63,.71h-.41v-12.42c-1.09,2.32-2.53,4.39-4.36,6.18l-.35-.33c2.18-3.1,3.54-7.22,4.28-11.3h-3.68l-.22-.79h4.33v-6.4l3.02,.33c-.08,.41-.3,.65-.98,.76v5.31h.74l1.25-1.66s1.42,1.17,2.26,2.02c-.08,.3-.35,.44-.74,.44h-3.51v2.45Zm17.81-.54c-.19,.3-.46,.35-1.09,.44-.74,3.27-1.88,6.32-3.79,8.96,1.72,1.8,3.79,3.11,6.18,4l-.05,.35c-1.09,.33-1.88,1.12-2.1,2.15-2.15-1.2-3.95-2.81-5.37-4.9-1.83,1.99-4.22,3.65-7.38,4.88l-.27-.38c2.91-1.53,5.12-3.54,6.78-5.94-1.42-2.56-2.37-5.69-2.92-9.48h-1.04c-.05,4.93-.63,11.44-5.26,15.91l-.38-.27c3.21-4.85,3.6-10.81,3.6-16.31v-7.35l2.42,1.01h7.52l1.31-1.8s1.58,1.25,2.48,2.15c-.08,.27-.33,.41-.71,.41h-10.98v5.45h7.54l1.28-1.25,2.21,1.99Zm-9.37,.08c.63,3.21,1.77,5.8,3.29,7.87,1.33-2.37,2.21-5.04,2.75-7.87h-6.05Z"/>
          <path class="cls-1" d="M112.17,53.96c5.01,2.42,3.08,5.88,1.42,4.39-.14-1.14-.79-2.59-1.42-3.68v14.76c0,.27-.87,.71-1.66,.71h-.44v-11.74c-.87,1.96-2.02,3.79-3.43,5.42l-.38-.35c1.85-3.08,2.92-7.11,3.49-11.09h-3l-.22-.79h3.54v-6.48l3.08,.33c-.08,.41-.3,.68-.98,.79v5.37h.52l1.23-1.66s1.36,1.17,2.18,2.02c-.05,.3-.33,.44-.71,.44h-3.21v1.58Zm13.46-3.19c1.5,1.44,3.92,2.45,6.16,2.86l-.03,.3c-.76,.19-1.31,.79-1.53,1.8-1.06-.46-2.04-1.06-2.91-1.82v3.32c0,.22-1.04,.65-1.69,.65h-.33v-.82h-4.82v.54c0,.16-.87,.6-1.66,.6h-.3v-4.55c-1.09,.84-2.29,1.55-3.57,2.15l-.25-.33c1.85-1.25,3.41-2.91,4.49-4.71h-3.87l-.22-.76h4.49c.35-.65,.63-1.33,.84-2.02-1.61,.11-3.27,.16-4.85,.16l-.11-.49c4.09-.44,9.07-1.55,11.68-2.51l2.07,2.1c-.25,.22-.76,.19-1.42-.08-1.36,.22-3.02,.44-4.82,.6-.3,.79-.68,1.53-1.12,2.23h5.88l1.31-1.61s1.5,1.14,2.4,1.93c-.08,.3-.3,.44-.68,.44h-5.17Zm3.59,7.14l2.48,1.82c-.16,.22-.57,.46-1.14,.54v7.3c0,1.47-.3,2.31-2.78,2.56-.05-.57-.14-1.03-.44-1.33-.35-.3-.84-.52-1.8-.65v-.44s1.96,.14,2.45,.14c.44,0,.49-.14,.49-.46v-7.49h-11v9.56c0,.19-.87,.68-1.72,.68h-.33v-11.98l2.18,.95h10.62l.98-1.2Zm-2.89,8.39c0,.19-.84,.65-1.44,.65h-.27v-1.06h-3.46v1.01c0,.16-.76,.54-1.44,.54h-.27v-6.73l1.83,.79h3.13l.93-.93,1.93,1.47c-.14,.16-.52,.35-.93,.41v3.84Zm-4.96-15.53c-.49,.63-1.01,1.25-1.58,1.8l.82,.35h4.49l.65-.68c-.35-.46-.65-.95-.9-1.47h-3.49Zm3.92,5.5v-2.59h-4.82v2.59h4.82Zm-.68,8.82v-2.81h-3.46v2.81h3.46Z"/>
        </g>
        <g>
          <path class="cls-1" d="M83.71,167.4c0,.43-.1,.78-.29,1.02s-.46,.4-.8,.44c-.34,.05-.92,.07-1.76,.07l-.42-1.08,1.6-.04c.41,0,.62-.2,.62-.61v-4.1h-6.83v2.24c.93-.06,1.88-.16,2.84-.29-.12-.17-.35-.44-.68-.81l.89-.57c1.05,1.21,1.73,2.15,2.06,2.79l-.93,.53c-.15-.34-.37-.7-.68-1.1-2.86,.42-5.93,.69-9.24,.8l-.37-1.01c1.88-.03,3.56-.1,5.04-.21v-2.38h-6.4v5.74h-1.05v-5.74h-1.23v-1.01h1.23v-.63h1.05v.63h6.4v-1.48h-6.23v-5.94h13.51v5.94h-6.21v1.48h7.88v5.3Zm-8.92-14.49h-2.39v1.03h-1.09v-1.03h-5.21v-.99h5.21v-1.49h1.09v1.49h2.39v.99Zm-.04,4.22v-1.43h-5.17v1.43h5.17Zm0,2.47v-1.48h-5.17v1.48h5.17Zm9.68-6.69h-4.71v1.03h-1.04v-1.03h-2.93v-.99h2.93v-1.49h1.04v1.49h4.71v.99Zm-3.46,4.22v-1.43h-5.15v1.43h5.15Zm0,2.47v-1.48h-5.15v1.48h5.15Z"/>
          <path class="cls-1" d="M107.76,163.4c-.02,.96-.14,1.95-.35,2.96-.21,1.02-.54,1.66-.99,1.93s-1.37,.41-2.75,.41c-.95,0-1.64-.02-2.08-.07-.43-.04-.78-.21-1.03-.49-.25-.28-.38-.64-.38-1.09v-8.83h-3.9c-.12,2.74-.61,4.95-1.47,6.61s-2.43,3.07-4.69,4.25l-.77-.97c1.59-.7,2.92-1.75,4.01-3.13,1.09-1.38,1.66-3.63,1.73-6.75h-5.36v-1.14h17.79v1.14h-6.19v8.73c0,.26,.13,.43,.39,.53,.26,.1,.75,.14,1.45,.14,1.37,0,2.13-.03,2.31-.1,.17-.07,.34-.19,.5-.35s.31-.69,.45-1.57c.13-.88,.2-1.76,.2-2.63l1.13,.42Zm-1.88-11.4h-14.56v-1.12h14.56v1.12Z"/>
          <path class="cls-1" d="M120.24,151.85l-7.69,18.68h-1.6l7.66-18.68h1.63Z"/>
          <path class="cls-1" d="M130.37,164.19c-1.76,.81-3.93,1.7-6.51,2.69l-.3-1.13c.63-.22,1.63-.59,2.99-1.12v-7.52h-2.81v-1.07h2.81v-5.64h1.1v5.64h2.44v1.07h-2.44v7.08l2.52-1.11,.2,1.11Zm11.67-2.2h-5.64v7.01h-1.08v-7.01h-5.6v-1.09h5.6v-8.86h-5.03v-1.1h11.56v1.1h-5.45v8.86h5.64v1.09Zm-8.45-2.69l-1.04,.33c-.37-1.57-1.04-3.34-2.03-5.3l1.08-.42c.97,1.95,1.64,3.75,2,5.39Zm7.94-4.92c-.76,2.25-1.57,4.04-2.4,5.39l-.99-.47c.89-1.61,1.69-3.42,2.4-5.41l.99,.49Z"/>
        </g>
        <g>
          <path class="cls-2" d="M61.99,95.57c.61,0,1.28-.02,1.99-.07,.71-.05,1.13-.07,1.26-.07,.19,0,.29,.15,.29,.44,0,.32-.15,.77-.44,1.33-.29,.57-.6,1.17-.92,1.82l-12.45,26.59c-.1,.1-.26,.15-.48,.15-.36,0-.79-.09-1.31-.27-.52-.18-.78-.38-.78-.61,.81-1.23,1.7-2.71,2.66-4.46s1.96-3.58,2.98-5.52c1.02-1.94,1.99-3.84,2.91-5.71,.92-1.87,1.74-3.58,2.47-5.11,.73-1.53,1.53-3.22,2.4-5.06h-12.01c-.94,0-1.65,.29-2.13,.87-.48,.58-.9,1.5-1.26,2.76-.03,.19-.23,.29-.58,.29-.1,0-.25-.03-.46-.1-.21-.06-.36-.13-.46-.19,.42-1.29,.82-2.61,1.19-3.95,.37-1.34,.64-2.38,.8-3.12h14.33Z"/>
          <path class="cls-2" d="M82.57,95.18c2.23,0,4.11,.69,5.64,2.08,1.53,1.39,2.7,3.24,3.49,5.54,.79,2.31,1.19,4.83,1.19,7.58s-.4,5.27-1.21,7.58c-.81,2.31-1.98,4.16-3.51,5.57-1.53,1.4-3.4,2.11-5.59,2.11s-3.97-.7-5.52-2.11-2.74-3.26-3.56-5.57c-.82-2.31-1.23-4.83-1.23-7.58s.4-5.27,1.21-7.58c.81-2.31,1.99-4.16,3.54-5.54,1.55-1.39,3.41-2.08,5.57-2.08Zm.24,1.74c-1.32,0-2.46,.61-3.41,1.82-.95,1.21-1.69,2.83-2.2,4.87-.52,2.03-.78,4.29-.78,6.78s.26,4.71,.78,6.76c.52,2.05,1.22,3.69,2.11,4.92,.89,1.23,1.91,1.84,3.08,1.84,1.42,0,2.6-.63,3.54-1.89,.94-1.26,1.64-2.94,2.11-5.04,.47-2.1,.7-4.37,.7-6.83s-.25-4.72-.75-6.71c-.5-1.99-1.19-3.57-2.08-4.75-.89-1.18-1.91-1.77-3.08-1.77Z"/>
          <path class="cls-2" d="M100,113.15c1.36-.06,2.55-.13,3.58-.19,1.03-.06,2.09-.12,3.17-.17,1.08-.05,2.05-.1,2.91-.15,.85-.05,1.44-.07,1.77-.07,.22,0,.34,.15,.34,.44,0,.81-.21,1.66-.63,2.57-.74,.03-1.74,.08-2.98,.15-1.24,.06-2.6,.13-4.07,.19-1.47,.07-2.93,.13-4.38,.19-.19,0-.29-.18-.29-.53,0-.45,.06-.88,.17-1.28,.11-.4,.25-.78,.41-1.14Z"/>
          <path class="cls-2" d="M134.96,95.57c.61,0,1.27-.02,1.99-.07,.71-.05,1.13-.07,1.26-.07,.19,0,.29,.15,.29,.44,0,.32-.15,.77-.44,1.33-.29,.57-.6,1.17-.92,1.82l-12.45,26.59c-.1,.1-.26,.15-.48,.15-.36,0-.79-.09-1.31-.27s-.77-.38-.77-.61c.81-1.23,1.7-2.71,2.66-4.46,.97-1.74,1.96-3.58,2.98-5.52s1.99-3.84,2.91-5.71c.92-1.87,1.74-3.58,2.47-5.11,.73-1.53,1.53-3.22,2.4-5.06h-12.01c-.94,0-1.65,.29-2.13,.87-.48,.58-.9,1.5-1.26,2.76-.03,.19-.23,.29-.58,.29-.1,0-.25-.03-.46-.1-.21-.06-.36-.13-.46-.19,.42-1.29,.81-2.61,1.19-3.95,.37-1.34,.64-2.38,.8-3.12h14.33Z"/>
          <path class="cls-2" d="M155.54,106.8c1.87,0,3.46,.42,4.77,1.26,1.31,.84,2.32,1.9,3.03,3.17,.71,1.28,1.07,2.59,1.07,3.95,0,1.61-.35,3.07-1.04,4.38-.69,1.31-1.61,2.42-2.76,3.34-1.15,.92-2.43,1.62-3.85,2.11-1.42,.48-2.87,.73-4.36,.73-.61,0-1.38-.09-2.3-.27s-1.75-.46-2.49-.85c-.13-.1-.32-.32-.58-.68-.26-.35-.39-.73-.39-1.11,0-.68,.2-1.23,.61-1.65,.4-.42,.86-.63,1.38-.63,.64,0,1.15,.25,1.53,.75,.37,.5,.75,.94,1.14,1.33,.45,.45,.99,.77,1.62,.94,.63,.18,1.25,.27,1.86,.27,.84,0,1.69-.23,2.54-.7,.85-.47,1.57-1.24,2.15-2.32,.58-1.08,.87-2.53,.87-4.33,0-1-.25-2.04-.75-3.12-.5-1.08-1.3-2-2.4-2.76-1.1-.76-2.57-1.14-4.41-1.14-.52,0-1.21,.07-2.08,.22-.87,.15-1.5,.31-1.89,.51-.1,0-.19-.07-.27-.22-.08-.15-.12-.3-.12-.46,.36-1.78,.71-3.55,1.07-5.33,.36-1.78,.69-3.43,.99-4.96,.31-1.53,.54-2.78,.7-3.75h6.97c.65,0,1.31-.03,1.99-.1,.68-.06,1.47-.18,2.37-.34,.16,.1,.3,.18,.41,.24,.11,.07,.17,.16,.17,.29,0,.1-.06,.35-.17,.75-.11,.4-.27,.85-.48,1.33-.21,.48-.46,.9-.75,1.26-.65,.06-1.42,.13-2.32,.19-.9,.07-1.97,.1-3.2,.1h-3.97c-.29,1.42-.57,2.87-.85,4.33-.27,1.47-.56,2.87-.85,4.19,.64-.26,1.49-.48,2.54-.65,1.05-.18,1.88-.27,2.49-.27Z"/>
        </g>
      </g>
      <g>
        <circle class="cls-3" cx="422.58" cy="104.05" r="103.55"/>
        <g>
          <path class="cls-1" d="M417.63,45.47s1.8,1.31,2.83,2.26c-.08,.3-.35,.44-.76,.44h-7.98v4.71h4.36l1.14-1.31,2.29,1.8c-.19,.25-.49,.41-1.12,.52v15.17c0,.16-.79,.65-1.83,.65h-.35v-2.04h-16.78v1.53c0,.16-.68,.63-1.77,.63h-.35v-17.92l2.45,.98h4.08v-4.71h-8.33l-.25-.79h20.86l1.5-1.91Zm-1.42,21.41v-4.9c-.6,.11-1.42,.14-2.64,.14h-1.74c-1.82,0-2.18-.52-2.18-1.93v-6.51h-3.7c-.08,3.7-.84,7.82-6.16,10.46l-.27-.33c3.68-2.86,4.3-6.51,4.33-10.13h-4.41v13.21h16.78Zm-6.56-18.71h-3.7v4.71h3.7v-4.71Zm2.07,5.5v5.94c0,.44,.11,.57,.71,.57h1.36c.57,0,1.12,0,1.36-.03,.14,0,.33,0,.46-.03,.16,0,.38-.05,.57-.11h.03v-6.35h-4.49Z"/>
          <path class="cls-1" d="M434.77,45.82l2.26,1.77c-.14,.16-.54,.38-.98,.46v8.53c-.03,.16-1.09,.63-1.77,.63h-.33v-1.5h-5.09v13.62c0,.3-.76,.84-1.77,.84h-.38v-24.24l2.26,1.06h4.74l1.06-1.17Zm-5.91,1.93v3.13h5.09v-3.13h-5.09Zm5.09,7.16v-3.24h-5.09v3.24h5.09Zm15.93-7.3c-.16,.22-.6,.44-1.14,.54v19.01c0,1.63-.38,2.7-3.6,3-.11-.71-.33-1.23-.76-1.58-.54-.35-1.39-.65-2.94-.87v-.41s3.65,.25,4.36,.25c.6,0,.76-.19,.76-.65v-11.19h-5.34v.71c0,.19-.9,.65-1.77,.65h-.33v-11.03l2.23,.95h4.93l1.06-1.33,2.53,1.96Zm-8.66,.14v3.13h5.34v-3.13h-5.34Zm5.34,7.16v-3.24h-5.34v3.24h5.34Z"/>
        </g>
        <g>
          <path class="cls-1" d="M402.24,167.4c0,.43-.1,.78-.29,1.02-.2,.25-.46,.4-.8,.44-.34,.05-.92,.07-1.76,.07l-.42-1.08,1.6-.04c.41,0,.62-.2,.62-.61v-4.1h-6.83v2.24c.93-.06,1.88-.16,2.84-.29-.12-.17-.35-.44-.68-.81l.89-.57c1.05,1.21,1.73,2.15,2.06,2.79l-.93,.53c-.14-.34-.37-.7-.68-1.1-2.86,.42-5.93,.69-9.24,.8l-.37-1.01c1.88-.03,3.56-.1,5.04-.21v-2.38h-6.4v5.74h-1.06v-5.74h-1.23v-1.01h1.23v-.63h1.06v.63h6.4v-1.48h-6.23v-5.94h13.51v5.94h-6.21v1.48h7.88v5.3Zm-8.92-14.49h-2.39v1.03h-1.09v-1.03h-5.21v-.99h5.21v-1.49h1.09v1.49h2.39v.99Zm-.04,4.22v-1.43h-5.17v1.43h5.17Zm0,2.47v-1.48h-5.17v1.48h5.17Zm9.68-6.69h-4.71v1.03h-1.03v-1.03h-2.93v-.99h2.93v-1.49h1.03v1.49h4.71v.99Zm-3.46,4.22v-1.43h-5.15v1.43h5.15Zm0,2.47v-1.48h-5.15v1.48h5.15Z"/>
          <path class="cls-1" d="M426.29,163.4c-.02,.96-.14,1.95-.35,2.96s-.54,1.66-.99,1.93-1.37,.41-2.75,.41c-.95,0-1.64-.02-2.08-.07-.43-.04-.78-.21-1.03-.49s-.38-.64-.38-1.09v-8.83h-3.9c-.12,2.74-.61,4.95-1.47,6.61-.87,1.66-2.43,3.07-4.69,4.25l-.76-.97c1.59-.7,2.92-1.75,4.01-3.13,1.09-1.38,1.66-3.63,1.73-6.75h-5.36v-1.14h17.79v1.14h-6.19v8.73c0,.26,.13,.43,.39,.53,.26,.1,.74,.14,1.45,.14,1.37,0,2.13-.03,2.31-.1,.17-.07,.34-.19,.5-.35,.16-.17,.31-.69,.44-1.57,.13-.88,.2-1.76,.2-2.63l1.13,.42Zm-1.88-11.4h-14.55v-1.12h14.55v1.12Z"/>
          <path class="cls-1" d="M438.76,151.85l-7.69,18.68h-1.6l7.66-18.68h1.63Z"/>
          <path class="cls-1" d="M448.9,164.19c-1.76,.81-3.93,1.7-6.51,2.69l-.3-1.13c.63-.22,1.63-.59,2.99-1.12v-7.52h-2.81v-1.07h2.81v-5.64h1.1v5.64h2.44v1.07h-2.44v7.08l2.52-1.11,.2,1.11Zm11.67-2.2h-5.64v7.01h-1.08v-7.01h-5.6v-1.09h5.6v-8.86h-5.03v-1.1h11.55v1.1h-5.45v8.86h5.64v1.09Zm-8.45-2.69l-1.04,.33c-.37-1.57-1.04-3.34-2.03-5.3l1.08-.42c.97,1.95,1.64,3.75,2,5.39Zm7.95-4.92c-.77,2.25-1.57,4.04-2.4,5.39l-.99-.47c.89-1.61,1.69-3.42,2.4-5.41l.99,.49Z"/>
        </g>
        <g>
          <path class="cls-2" d="M373.24,106.8c1.65,0,3.03,.31,4.14,.92,1.11,.61,2,1.4,2.66,2.35,.66,.95,1.14,1.95,1.43,3,.29,1.05,.44,1.99,.44,2.83,0,1.74-.43,3.37-1.28,4.87s-2,2.71-3.44,3.63c-1.44,.92-3.06,1.38-4.87,1.38-1.42,0-2.7-.31-3.85-.94-1.15-.63-2.12-1.46-2.93-2.49-.81-1.03-1.43-2.19-1.87-3.46-.44-1.27-.65-2.54-.65-3.8,0-2.42,.39-4.71,1.16-6.88,.78-2.16,1.9-4.05,3.39-5.67,1.13-1.23,2.43-2.36,3.9-3.39,1.47-1.03,2.97-1.92,4.5-2.66,1.53-.74,2.96-1.27,4.29-1.6,.23,0,.37,.19,.44,.56,.06,.37,.1,.64,.1,.8-1,.32-2.14,.77-3.41,1.36-1.28,.58-2.56,1.36-3.85,2.32-1.29,.97-2.45,2.19-3.49,3.66-1.03,1.47-1.82,3.25-2.37,5.35,.84-.68,1.78-1.2,2.81-1.57,1.03-.37,1.95-.56,2.76-.56Zm-5.96,4.21c-.07,.52-.11,1.05-.15,1.6-.03,.55-.05,1.1-.05,1.65,0,1.07,.11,2.18,.34,3.34,.22,1.16,.57,2.24,1.04,3.24,.47,1,1.06,1.82,1.77,2.45,.71,.63,1.53,.94,2.47,.94,1.52,0,2.76-.71,3.73-2.13,.97-1.42,1.45-3.2,1.45-5.33,0-1.36-.2-2.61-.61-3.78-.4-1.16-1.04-2.1-1.91-2.81-.87-.71-2.02-1.07-3.44-1.07-.68,0-1.43,.11-2.25,.31-.82,.21-1.62,.73-2.4,1.57Z"/>
          <path class="cls-2" d="M409.17,118.43c-.32,.77-.66,1.65-1.02,2.64-.36,.99-.68,1.9-.97,2.74-.29,.84-.48,1.4-.58,1.69h-16.37c-.1-.06-.2-.17-.31-.31s-.17-.27-.17-.36c1.32-1.48,2.68-3.03,4.07-4.65,1.39-1.61,2.71-3.21,3.97-4.79,1.26-1.58,2.34-3.03,3.25-4.36,.97-1.42,1.59-2.66,1.86-3.73,.27-1.07,.41-2.18,.41-3.34,0-1.61-.49-2.97-1.48-4.07-.99-1.1-2.24-1.65-3.75-1.65-1.26,0-2.36,.27-3.29,.82-.94,.55-1.7,1.15-2.28,1.79-.58,.65-.97,1.13-1.16,1.45-.19,0-.4-.1-.61-.31-.21-.21-.31-.36-.31-.46,.1-.29,.36-.78,.8-1.48,.44-.69,1.04-1.42,1.82-2.18,.77-.76,1.67-1.4,2.69-1.94,1.02-.53,2.15-.8,3.41-.8,1.52,0,2.9,.38,4.14,1.14,1.24,.76,2.23,1.74,2.95,2.93,.73,1.19,1.09,2.47,1.09,3.83s-.24,2.63-.73,3.83c-.48,1.19-1.15,2.31-1.99,3.34-1.1,1.36-2.32,2.8-3.66,4.33-1.34,1.53-2.61,2.97-3.8,4.31-1.2,1.34-2.15,2.41-2.86,3.22h9.39c.94,0,1.7-.3,2.3-.9,.6-.6,1.15-1.51,1.67-2.74,.06-.19,.24-.29,.53-.29,.1,0,.26,.03,.48,.1,.23,.07,.39,.13,.48,.19Z"/>
          <path class="cls-2" d="M416.87,113.15c1.36-.06,2.55-.13,3.58-.19,1.03-.06,2.09-.12,3.17-.17,1.08-.05,2.05-.1,2.91-.15,.85-.05,1.44-.07,1.77-.07,.22,0,.34,.15,.34,.44,0,.81-.21,1.66-.63,2.57-.74,.03-1.74,.08-2.98,.15-1.24,.06-2.6,.13-4.07,.19-1.47,.07-2.93,.13-4.38,.19-.19,0-.29-.18-.29-.53,0-.45,.06-.88,.17-1.28,.11-.4,.25-.78,.41-1.14Z"/>
          <path class="cls-2" d="M451.83,95.57c.61,0,1.27-.02,1.99-.07,.71-.05,1.13-.07,1.26-.07,.19,0,.29,.15,.29,.44,0,.32-.15,.77-.44,1.33-.29,.57-.6,1.17-.92,1.82l-12.45,26.59c-.1,.1-.26,.15-.48,.15-.36,0-.79-.09-1.31-.27s-.77-.38-.77-.61c.81-1.23,1.7-2.71,2.66-4.46,.97-1.74,1.96-3.58,2.98-5.52s1.99-3.84,2.91-5.71c.92-1.87,1.74-3.58,2.47-5.11,.73-1.53,1.53-3.22,2.4-5.06h-12.01c-.94,0-1.65,.29-2.13,.87-.48,.58-.9,1.5-1.26,2.76-.03,.19-.23,.29-.58,.29-.1,0-.25-.03-.46-.1-.21-.06-.36-.13-.46-.19,.42-1.29,.81-2.61,1.19-3.95,.37-1.34,.64-2.38,.8-3.12h14.33Z"/>
          <path class="cls-2" d="M472.41,95.18c2.23,0,4.11,.69,5.64,2.08,1.53,1.39,2.7,3.24,3.49,5.54,.79,2.31,1.19,4.83,1.19,7.58s-.4,5.27-1.21,7.58c-.81,2.31-1.98,4.16-3.51,5.57s-3.4,2.11-5.59,2.11-3.97-.7-5.52-2.11c-1.55-1.4-2.74-3.26-3.56-5.57-.82-2.31-1.24-4.83-1.24-7.58s.4-5.27,1.21-7.58c.81-2.31,1.99-4.16,3.54-5.54,1.55-1.39,3.41-2.08,5.57-2.08Zm.24,1.74c-1.32,0-2.46,.61-3.41,1.82-.95,1.21-1.69,2.83-2.2,4.87s-.77,4.29-.77,6.78,.26,4.71,.77,6.76c.52,2.05,1.22,3.69,2.11,4.92,.89,1.23,1.91,1.84,3.08,1.84,1.42,0,2.6-.63,3.54-1.89,.94-1.26,1.64-2.94,2.11-5.04,.47-2.1,.7-4.37,.7-6.83s-.25-4.72-.75-6.71c-.5-1.99-1.2-3.57-2.08-4.75-.89-1.18-1.91-1.77-3.07-1.77Z"/>
        </g>
      </g>
      <g>
        <circle class="cls-3" cx="104.05" cy="336.41" r="103.55"/>
        <g>
          <path class="cls-1" d="M62.08,281.44c9.59,3.62,8.44,9.56,5.88,7.95-.27-.9-.82-1.85-1.5-2.83-4.22,.71-10.24,1.5-17.43,2.26-.16,.25-.38,.38-.57,.46l-1.04-2.64s.6-.11,.87-.27c3.05-1.85,7.19-6.43,8.74-8.99l3.1,1.42c-.11,.27-.46,.49-1.06,.41-2.07,2.26-5.94,5.37-9.4,7.46,3.68-.05,9.89-.35,16.34-.71-1.25-1.61-2.86-3.19-4.25-4.25l.3-.27Zm3.27,8.58l2.56,1.99c-.19,.22-.63,.46-1.2,.6v8.99c-.05,.16-1.17,.63-1.93,.63h-.35v-2.1h-11.93v1.58c0,.25-.98,.76-1.91,.76h-.35v-12.18l2.42,1.04h11.49l1.2-1.31Zm-.93,9.31v-7.19h-11.93v7.19h11.93Z"/>
          <path class="cls-1" d="M88.5,297.32l.05,.38c-2.4,.98-5.77,2.37-10.49,4.03-.14,.33-.44,.57-.71,.65l-1.14-2.97c1.44-.16,4.3-.65,7.68-1.28v-11.33h-6.78l-.25-.79h7.03v-8.01l3.13,.33c-.05,.38-.27,.68-.98,.79v18.66l2.45-.46Zm11.6,1.96c.71,.27,.93,.54,.93,.95,0,1.01-1.09,1.33-5.28,1.33h-2.62c-2.29,0-2.97-.57-2.97-2.4v-21.14l3.13,.35c-.05,.35-.3,.65-.98,.76v6.86h4.49l1.2-1.82s1.36,1.28,2.15,2.18c-.08,.3-.33,.44-.71,.44h-7.14v11.82c0,.68,.22,.93,1.25,.93h2.31c1.04,0,1.83,0,2.18-.05,.27-.03,.44-.11,.6-.35,.25-.44,.65-2.21,1.01-3.92h.33l.11,4.06Z"/>
          <path class="cls-1" d="M128.05,295.14s1.77,1.28,2.81,2.26c-.05,.3-.35,.44-.71,.44h-10.79v3.95c0,.27-.95,.76-1.8,.76h-.46v-4.71h-11.03l-.25-.82h11.28v-3.24h-5.56v1.04c0,.22-.93,.71-1.82,.71h-.35v-12.01l2.34,1.04h5.39v-2.75h-10.3l-.22-.79h10.51v-3.6l3.21,.35c-.05,.38-.27,.68-.95,.79v2.45h6.35l1.55-1.85s1.74,1.25,2.86,2.21c-.08,.3-.38,.44-.76,.44h-10v2.75h5.45l1.14-1.28,2.45,1.91c-.19,.22-.6,.44-1.12,.54v8.58c-.03,.19-1.12,.71-1.88,.71h-.33v-1.23h-5.72v3.24h7.16l1.53-1.88Zm-16.51-9.81v3.32h5.56v-3.32h-5.56Zm5.56,7.68v-3.57h-5.56v3.57h5.56Zm2.26-7.68v3.32h5.72v-3.32h-5.72Zm5.72,7.68v-3.57h-5.72v3.57h5.72Z"/>
          <path class="cls-1" d="M146.41,286.54c-.11,.33-.41,.57-1.04,.54-.71,2.64-1.93,6.56-3.13,9.81,1.39-.33,2.83-.71,4.3-1.09l.11,.38c-2.12,1.01-5.07,2.48-9.21,4.22-.08,.33-.33,.6-.63,.68l-1.25-2.61c1.14-.19,3.35-.74,5.96-1.39,.6-3.54,1.31-8.17,1.74-11.44l3.13,.9Zm-1.06-4.6s1.53,1.31,2.42,2.23c-.08,.3-.35,.44-.74,.44h-11.19l-.22-.79h8.39l1.33-1.88Zm-8.12,4.03c5.37,6.4,2.56,11.44,1.17,9.26,0-2.18-.25-6.24-1.53-9.1l.35-.16Zm1.85-8.47c5.58,2.89,3.46,7.05,1.5,5.26-.16-1.63-1.09-3.7-1.83-5.09l.33-.16Zm19.23,4.68s1.5,1.2,2.37,2.07c-.05,.3-.33,.44-.68,.44h-6.13v5.77h2.48l1.09-1.28,2.26,1.74c-.19,.25-.46,.38-1.06,.49v10.27c0,.14-.79,.6-1.82,.6h-.35v-1.8h-7.33v1.42c0,.16-.65,.6-1.74,.6h-.33v-13.05l2.4,1.01h2.29v-13.05l3.13,.33c-.05,.38-.3,.65-1.01,.76v5.37h3.16l1.28-1.69Zm-9.18,9.07v8.44h7.33v-8.44h-7.33Z"/>
        </g>
        <g>
          <path class="cls-1" d="M80.08,400.04c0,.43-.1,.78-.29,1.02-.2,.25-.46,.4-.8,.44-.34,.05-.92,.07-1.76,.07l-.42-1.08,1.6-.04c.41,0,.62-.2,.62-.61v-4.1h-6.83v2.24c.93-.06,1.88-.16,2.84-.29-.12-.17-.35-.44-.68-.81l.89-.57c1.05,1.21,1.73,2.15,2.06,2.79l-.93,.53c-.14-.34-.37-.7-.68-1.1-2.86,.42-5.93,.69-9.24,.8l-.37-1.01c1.88-.03,3.56-.1,5.04-.21v-2.38h-6.4v5.74h-1.06v-5.74h-1.23v-1.01h1.23v-.63h1.06v.63h6.4v-1.48h-6.23v-5.94h13.51v5.94h-6.21v1.48h7.88v5.3Zm-8.92-14.49h-2.39v1.03h-1.09v-1.03h-5.21v-.99h5.21v-1.49h1.09v1.49h2.39v.99Zm-.04,4.22v-1.43h-5.17v1.43h5.17Zm0,2.47v-1.48h-5.17v1.48h5.17Zm9.68-6.69h-4.71v1.03h-1.03v-1.03h-2.93v-.99h2.93v-1.49h1.03v1.49h4.71v.99Zm-3.46,4.22v-1.43h-5.15v1.43h5.15Zm0,2.47v-1.48h-5.15v1.48h5.15Z"/>
          <path class="cls-1" d="M104.13,396.03c-.02,.96-.14,1.95-.35,2.96s-.54,1.66-.99,1.93-1.37,.41-2.75,.41c-.95,0-1.64-.02-2.08-.07-.43-.04-.78-.21-1.03-.49s-.38-.64-.38-1.09v-8.83h-3.9c-.12,2.74-.61,4.95-1.47,6.61-.87,1.66-2.43,3.07-4.69,4.25l-.76-.97c1.59-.7,2.92-1.75,4.01-3.13,1.09-1.38,1.66-3.63,1.73-6.75h-5.36v-1.14h17.79v1.14h-6.19v8.73c0,.26,.13,.43,.39,.53,.26,.1,.74,.14,1.45,.14,1.37,0,2.13-.03,2.31-.1,.17-.07,.34-.19,.5-.35,.16-.17,.31-.69,.44-1.57,.13-.88,.2-1.76,.2-2.63l1.13,.42Zm-1.88-11.4h-14.55v-1.12h14.55v1.12Z"/>
          <path class="cls-1" d="M116.6,384.48l-7.69,18.68h-1.6l7.66-18.68h1.63Z"/>
          <path class="cls-1" d="M126.74,396.82c-1.76,.81-3.93,1.7-6.51,2.69l-.3-1.13c.63-.22,1.63-.59,2.99-1.12v-7.52h-2.81v-1.07h2.81v-5.64h1.1v5.64h2.44v1.07h-2.44v7.08l2.52-1.11,.2,1.11Zm11.67-2.2h-5.64v7.01h-1.08v-7.01h-5.6v-1.09h5.6v-8.86h-5.03v-1.1h11.55v1.1h-5.45v8.86h5.64v1.09Zm-8.45-2.69l-1.04,.33c-.37-1.57-1.04-3.34-2.03-5.3l1.08-.42c.97,1.95,1.64,3.75,2,5.39Zm7.95-4.92c-.77,2.25-1.57,4.04-2.4,5.39l-.99-.47c.89-1.61,1.69-3.42,2.4-5.41l.99,.49Z"/>
        </g>
        <g>
          <path class="cls-2" d="M32.99,356.79c1-.32,2.14-.77,3.41-1.36,1.28-.58,2.56-1.36,3.85-2.32,1.29-.97,2.46-2.19,3.51-3.66,1.05-1.47,1.83-3.25,2.35-5.35-.81,.68-1.74,1.2-2.78,1.57-1.05,.37-1.98,.56-2.78,.56-1.65,0-3.03-.31-4.14-.92-1.11-.61-2-1.4-2.66-2.35-.66-.95-1.13-1.95-1.4-3-.28-1.05-.41-1.99-.41-2.83,0-1.78,.43-3.41,1.28-4.89,.86-1.48,2.01-2.69,3.46-3.61,1.45-.92,3.07-1.38,4.84-1.38,1.42,0,2.7,.31,3.85,.94,1.15,.63,2.12,1.46,2.93,2.49,.81,1.03,1.42,2.19,1.84,3.46,.42,1.28,.63,2.54,.63,3.8,0,2.42-.38,4.71-1.14,6.88-.76,2.16-1.9,4.05-3.41,5.67-1.1,1.23-2.39,2.36-3.87,3.39-1.49,1.03-3,1.91-4.53,2.64-1.53,.73-2.96,1.27-4.29,1.62-.23,0-.37-.19-.44-.58s-.1-.65-.1-.77Zm13.51-14.77c.06-.52,.11-1.05,.15-1.6,.03-.55,.05-1.1,.05-1.65,0-1.07-.11-2.18-.34-3.34-.23-1.16-.56-2.24-1.02-3.24-.45-1-1.03-1.82-1.74-2.45-.71-.63-1.53-.94-2.47-.94-1.49,0-2.72,.71-3.71,2.13-.98,1.42-1.48,3.2-1.48,5.33,0,1.32,.19,2.57,.58,3.75,.39,1.18,1.02,2.12,1.89,2.83,.87,.71,2.02,1.07,3.44,1.07,.68,0,1.43-.1,2.25-.31,.82-.21,1.62-.73,2.4-1.57Z"/>
          <path class="cls-2" d="M68.29,327.54c2.23,0,4.11,.69,5.64,2.08,1.53,1.39,2.7,3.24,3.49,5.54,.79,2.31,1.19,4.83,1.19,7.58s-.4,5.27-1.21,7.58c-.81,2.31-1.98,4.16-3.51,5.57s-3.4,2.11-5.59,2.11-3.97-.7-5.52-2.11c-1.55-1.4-2.74-3.26-3.56-5.57-.82-2.31-1.24-4.83-1.24-7.58s.4-5.27,1.21-7.58c.81-2.31,1.99-4.16,3.54-5.54,1.55-1.39,3.41-2.08,5.57-2.08Zm.24,1.74c-1.32,0-2.46,.61-3.41,1.82-.95,1.21-1.69,2.83-2.2,4.87s-.77,4.29-.77,6.78,.26,4.71,.77,6.76c.52,2.05,1.22,3.69,2.11,4.92,.89,1.23,1.91,1.84,3.08,1.84,1.42,0,2.6-.63,3.54-1.89,.94-1.26,1.64-2.94,2.11-5.04,.47-2.1,.7-4.37,.7-6.83s-.25-4.72-.75-6.71c-.5-1.99-1.2-3.57-2.08-4.75-.89-1.18-1.91-1.77-3.07-1.77Z"/>
          <path class="cls-2" d="M85.73,345.5c1.36-.06,2.55-.13,3.58-.19,1.03-.06,2.09-.12,3.17-.17,1.08-.05,2.05-.1,2.91-.15,.86-.05,1.44-.07,1.77-.07,.23,0,.34,.15,.34,.44,0,.81-.21,1.66-.63,2.57-.74,.03-1.74,.08-2.98,.15-1.24,.06-2.6,.13-4.07,.19-1.47,.07-2.93,.13-4.38,.19-.19,0-.29-.18-.29-.53,0-.45,.06-.88,.17-1.28,.11-.4,.25-.78,.41-1.14Z"/>
          <path class="cls-2" d="M113.09,352.38v-19.13c0-.68-.07-1.15-.22-1.4-.15-.26-.4-.39-.75-.39s-.9,.12-1.65,.36c-.74,.24-1.31,.44-1.69,.61-.29-.23-.44-.5-.44-.82v-.05c0-.13,.03-.21,.1-.24,1.29-.58,2.56-1.17,3.8-1.77,1.24-.6,2.28-1.09,3.1-1.48,.82-.39,1.25-.58,1.28-.58h.1c.16,0,.27,.1,.34,.29,.06,.19,.11,.36,.15,.48-.26,1.58-.39,3.1-.39,4.55v19.56c0,.71,0,1.37,.02,1.99,.02,.61,.09,1.11,.22,1.5,.06,.16,.31,.31,.73,.44,.42,.13,.86,.22,1.33,.27,.47,.05,.8,.07,.99,.07,.1,.13,.15,.36,.17,.68,.02,.32-.04,.55-.17,.68-.97-.06-1.86-.12-2.66-.17-.81-.05-1.68-.07-2.62-.07s-1.73,.02-2.47,.07c-.74,.05-1.6,.1-2.57,.17-.13-.13-.19-.35-.17-.68,.02-.32,.07-.55,.17-.68,.19,0,.52-.02,.99-.07,.47-.05,.91-.14,1.33-.27,.42-.13,.65-.27,.68-.44,.13-.39,.21-.89,.24-1.5,.03-.61,.05-1.28,.05-1.99Z"/>
          <path class="cls-2" d="M141.71,327.49c.81,0,1.7,.23,2.66,.7,.97,.47,1.8,1.15,2.49,2.06,.69,.9,1.04,2,1.04,3.29,0,1-.25,1.92-.75,2.76-.5,.84-1.1,1.57-1.79,2.18-.69,.61-1.32,1.1-1.86,1.45,.9,.13,1.87,.5,2.91,1.11,1.03,.61,1.91,1.46,2.64,2.54,.73,1.08,1.09,2.4,1.09,3.95s-.35,3.07-1.04,4.38c-.7,1.31-1.62,2.42-2.76,3.34-1.15,.92-2.43,1.62-3.85,2.11-1.42,.48-2.87,.73-4.36,.73-.61,0-1.38-.09-2.3-.27-.92-.18-1.75-.46-2.49-.85-.13-.1-.32-.32-.58-.68-.26-.35-.39-.73-.39-1.11,0-.68,.2-1.23,.61-1.65,.4-.42,.86-.63,1.38-.63,.65,0,1.15,.25,1.53,.75,.37,.5,.75,.94,1.14,1.33,.45,.45,.99,.77,1.62,.94,.63,.18,1.25,.27,1.86,.27,.84,0,1.69-.23,2.54-.7,.86-.47,1.57-1.24,2.16-2.32,.58-1.08,.87-2.53,.87-4.33,0-1.29-.29-2.43-.87-3.41-.58-.98-1.33-1.77-2.25-2.35-.92-.58-1.9-.87-2.93-.87-.52,0-1.04,.08-1.57,.24-.53,.16-.94,.27-1.23,.34-.19-.26-.29-.56-.29-.92,0-.23,.03-.39,.1-.48,1.26-.29,2.45-.73,3.58-1.31,1.13-.58,2.04-1.33,2.74-2.25,.69-.92,1.04-2.06,1.04-3.41,0-1.26-.44-2.31-1.31-3.15-.87-.84-1.99-1.26-3.34-1.26-1,0-1.87,.23-2.61,.7-.74,.47-1.33,.95-1.77,1.45-.44,.5-.74,.82-.9,.94-.13,0-.26-.11-.39-.34-.13-.23-.19-.45-.19-.68,.48-.74,1.11-1.46,1.86-2.16,.76-.69,1.64-1.27,2.64-1.74,1-.47,2.11-.7,3.34-.7Z"/>
          <path class="cls-2" d="M168.24,339.16c1.87,0,3.46,.42,4.77,1.26,1.31,.84,2.32,1.9,3.03,3.17,.71,1.28,1.07,2.59,1.07,3.95,0,1.61-.35,3.07-1.04,4.38-.69,1.31-1.61,2.42-2.76,3.34-1.15,.92-2.43,1.62-3.85,2.11-1.42,.48-2.87,.73-4.36,.73-.61,0-1.38-.09-2.3-.27s-1.75-.46-2.49-.85c-.13-.1-.32-.32-.58-.68-.26-.35-.39-.73-.39-1.11,0-.68,.2-1.23,.61-1.65,.4-.42,.86-.63,1.38-.63,.64,0,1.15,.25,1.53,.75,.37,.5,.75,.94,1.14,1.33,.45,.45,.99,.77,1.62,.94,.63,.18,1.25,.27,1.86,.27,.84,0,1.69-.23,2.54-.7,.85-.47,1.57-1.24,2.15-2.32,.58-1.08,.87-2.53,.87-4.33,0-1-.25-2.04-.75-3.12-.5-1.08-1.3-2-2.4-2.76-1.1-.76-2.57-1.14-4.41-1.14-.52,0-1.21,.07-2.08,.22-.87,.15-1.5,.31-1.89,.51-.1,0-.19-.07-.27-.22-.08-.15-.12-.3-.12-.46,.36-1.78,.71-3.55,1.07-5.33,.36-1.78,.69-3.43,.99-4.96,.31-1.53,.54-2.78,.7-3.75h6.97c.65,0,1.31-.03,1.99-.1,.68-.06,1.47-.18,2.37-.34,.16,.1,.3,.18,.41,.24,.11,.07,.17,.16,.17,.29,0,.1-.06,.35-.17,.75-.11,.4-.27,.85-.48,1.33-.21,.48-.46,.9-.75,1.26-.65,.06-1.42,.13-2.32,.19-.9,.07-1.97,.1-3.2,.1h-3.97c-.29,1.42-.57,2.87-.85,4.33-.27,1.47-.56,2.87-.85,4.19,.64-.26,1.49-.48,2.54-.65,1.05-.18,1.88-.27,2.49-.27Z"/>
        </g>
      </g>
      <g>
        <circle class="cls-3" cx="422.58" cy="336.41" r="103.55"/>
        <g>
          <path class="cls-1" d="M368.97,293.73c.84,3.4-.46,5.64-1.66,6.46-.74,.54-1.8,.6-2.15-.05-.3-.6,.11-1.23,.71-1.61,1.25-.74,2.56-2.64,2.64-4.82l.46,.03Zm1.09-5.56v1.36c0,.22-.95,.71-1.85,.71h-.3v-9.59l2.34,1.01h5.8v-4.19l3.19,.33c-.05,.38-.3,.65-1.01,.76v3.1h5.83l1.14-1.25,2.45,1.88c-.19,.22-.6,.46-1.14,.57v6.4c-.03,.19-1.12,.6-1.82,.6h-.35v-1.69h-6.1v3.13c0,.27-.98,.82-1.8,.82h-.38v-3.95h-5.99Zm0-5.72v4.93h5.99v-4.93h-5.99Zm13.97,16.89c.74,.25,.93,.49,.93,.9,0,1.03-1.06,1.36-6.54,1.36h-3.89c-2.7,0-3.3-.41-3.3-2.07v-6.95l3.02,.3c-.05,.35-.3,.6-.84,.68v5.53c0,.46,.14,.57,1.44,.57h3.7c1.61,0,2.86-.03,3.35-.05,.41-.05,.52-.11,.68-.38,.27-.49,.63-1.72,1.01-3.32h.35l.08,3.43Zm-7.9-7.14c6.35,2.12,4.63,6.7,2.59,5.12-.19-1.72-1.61-3.7-2.89-4.9l.3-.22Zm2.1-9.75v4.93h6.1v-4.93h-6.1Zm6.1,11.09c7.14,2.81,5.26,7.98,2.97,6.18-.22-2.02-1.8-4.49-3.27-5.96l.3-.22Z"/>
          <path class="cls-1" d="M416.91,292.91s1.63,1.23,2.59,2.15c-.08,.3-.3,.44-.71,.44h-10v4.14c0,1.66-.35,2.61-3.3,2.89-.11-.65-.25-1.17-.65-1.5-.46-.33-1.17-.6-2.51-.79v-.41s3.08,.22,3.65,.22c.49,0,.63-.14,.63-.52v-4.03h-10.49l-.25-.82h10.73v-2.48l2.12,.22c1.01-.68,2.29-1.63,3.21-2.48h-7.57c-3.08,1.61-6.43,3.02-9.94,4.06l-.22-.44c2.59-1.01,5.12-2.23,7.52-3.62h-1.83l-.25-.79h3.41c1.33-.82,2.64-1.69,3.89-2.59h-12.09l-.25-.79h9.67v-3.76h-7.16l-.22-.79h7.38v-3.79l3.08,.27c-.05,.35-.27,.6-.9,.71v2.81h3.19l1.42-1.74s1.2,.9,2.15,1.74c.9-.95,1.72-1.88,2.42-2.78l2.56,2.04c-.25,.25-.54,.3-1.17,.05-1.58,1.72-3.6,3.51-5.96,5.23h4.47l1.42-1.8s1.63,1.28,2.61,2.15c-.08,.3-.33,.44-.71,.44h-8.91c-1.28,.9-2.67,1.77-4.14,2.59h6.59l1.28-1.2,2.18,2.07c-.22,.19-.54,.25-1.14,.27-1.17,.76-3.27,1.66-5.01,2.26-.11,.38-.35,.54-.93,.63v1.5h6.7l1.42-1.77Zm-8.88-7.14c1.61-1.23,3.08-2.48,4.38-3.76h-5.94v3.76h1.55Z"/>
          <path class="cls-1" d="M432.52,286.32c.25-.44,.54-.9,.82-1.42-.19,.08-.41,.11-.74,.05-.63,.9-1.42,1.93-2.34,2.97l1.06,.41c-.11,.25-.35,.41-.84,.52v13.02c0,.22-.87,.82-1.74,.82h-.38v-12.75c-1.14,1.09-2.37,2.12-3.68,3l-.3-.3c2.62-2.67,5.09-6.75,6.29-9.53l2.83,1.47c1.06-2.04,1.96-4.6,2.48-7.19l3.16,.95c-.11,.33-.44,.57-.98,.54-.25,.6-.49,1.14-.76,1.69h8.17l1.39-1.82s1.63,1.25,2.62,2.18c-.08,.3-.35,.44-.74,.44h-11.85c-.3,.57-.63,1.09-.98,1.63l1.17,.49h7.95l1.06-1.14,2.32,1.74c-.16,.22-.57,.44-1.06,.54v6.16c-.03,.19-1.03,.63-1.74,.63h-.33v-.93h-8.36v.52c0,.19-.9,.65-1.74,.65h-.3v-7.22c-.65,.82-1.36,1.53-2.1,2.12l-.35-.25Zm.74-7.08c-.16,.27-.41,.38-1.01,.27-1.69,1.8-4.55,4.19-7.49,5.72l-.27-.33c2.34-2.04,4.79-5.18,5.94-7.33l2.83,1.66Zm14.76,14.65c-.22,.22-.52,.3-1.17,.33-1.12,1.74-2.59,3.27-4.41,4.49,2.23,.79,4.71,1.33,7.27,1.63l-.03,.33c-.93,.16-1.58,.84-1.85,1.91-2.78-.63-5.28-1.47-7.44-2.64-2.48,1.23-5.42,2.12-8.88,2.67l-.16-.44c2.94-.71,5.53-1.74,7.71-3.05-1.23-.82-2.34-1.77-3.3-2.89-.98,.93-2.04,1.74-3.13,2.37l-.33-.3c.93-.79,1.85-1.88,2.67-3.08-.6-.82-1.14-1.72-1.58-2.72l.41-.27c.46,.82,1.01,1.58,1.69,2.26,.79-1.31,1.47-2.7,1.91-3.95l2.97,.74c-.11,.3-.33,.41-1.01,.35-.27,.49-.6,.98-.95,1.5h6.1l1.39-1.23,2.12,1.99Zm-10.16,.03c-.44,.54-.87,1.04-1.36,1.55,1.23,1.01,2.62,1.85,4.22,2.53,1.53-1.17,2.78-2.53,3.68-4.09h-6.54Zm-.84-9.64v2.26h8.36v-2.26h-8.36Zm8.36,5.39v-2.34h-8.36v2.34h8.36Z"/>
          <path class="cls-1" d="M478.09,293.37s1.28,1.17,2.02,2.02c-.05,.3-.33,.44-.68,.44h-24.89l-.22-.82h2.75l-.33-16.21,1.85,.71c.79-.74,1.61-1.63,2.02-2.12l1.47,1.42v-.57l2.02,.9h5.88l.95-.98,1.83,1.47-.11-.35h2.31l.98-1.23,2.15,1.85c-.19,.16-.44,.27-.95,.35l-.33,14.76h.14l1.14-1.63Zm-23.62,8.77c3.13-1.36,6.48-3.81,8.04-5.72l3.02,1.66c-.16,.27-.63,.41-1.36,.27-2.15,1.55-5.86,3.3-9.51,4.17l-.19-.38Zm4.55-7.14h3.05v-15.69c-.11,0-.25-.05-.38-.11-.49,.25-1.31,.57-2.21,.87-.14,.11-.38,.22-.76,.27h-.03l.08,4.03h.65l.87-1.36s1.06,1.01,1.66,1.74c-.08,.3-.3,.44-.68,.44h-2.48l.08,4.47h.54l.87-1.39s1.04,1.03,1.63,1.77c-.08,.3-.33,.44-.68,.44h-2.34l.11,4.52Zm4.82-15.09v15.09h6.32v-15.09h-6.32Zm.52,2.48h3l.95-1.23s1.04,.9,1.72,1.55c-.05,.3-.3,.44-.68,.44h-4.77l-.22-.76Zm3.95,2.26l1.44,1.14c-.11,.11-.38,.27-.68,.33v5.88c-.03,.19-.68,.52-1.14,.52h-.19v-1.2h-1.53v1.28c0,.14-.54,.44-1.09,.44h-.22v-8.39l1.44,.71h1.23l.74-.71Zm-.57,5.91v-4.44h-1.53v4.44h1.53Zm2.26,6.46c12.58,2.04,8.88,7.03,6.7,5.04-1.17-1.44-3.43-3.21-6.86-4.63l.16-.41Zm2.78-17.38c-.16,.16-.44,.33-.82,.38v14.98h2.92l.11-4.52h-2.23l-.25-.82h2.48l.11-4.47h-2.23l-.25-.82h2.48l.08-4.36h-2.29l-.11-.38Z"/>
        </g>
        <g>
          <path class="cls-1" d="M402.24,399.76c0,.43-.1,.78-.29,1.02-.2,.25-.46,.4-.8,.44-.34,.05-.92,.07-1.76,.07l-.42-1.08,1.6-.04c.41,0,.62-.2,.62-.61v-4.1h-6.83v2.24c.93-.06,1.88-.16,2.84-.29-.12-.17-.35-.44-.68-.81l.89-.57c1.05,1.21,1.73,2.15,2.06,2.79l-.93,.53c-.14-.34-.37-.7-.68-1.1-2.86,.42-5.93,.69-9.24,.8l-.37-1.01c1.88-.03,3.56-.1,5.04-.21v-2.38h-6.4v5.74h-1.06v-5.74h-1.23v-1.01h1.23v-.63h1.06v.63h6.4v-1.48h-6.23v-5.94h13.51v5.94h-6.21v1.48h7.88v5.3Zm-8.92-14.49h-2.39v1.03h-1.09v-1.03h-5.21v-.99h5.21v-1.49h1.09v1.49h2.39v.99Zm-.04,4.22v-1.43h-5.17v1.43h5.17Zm0,2.47v-1.48h-5.17v1.48h5.17Zm9.68-6.69h-4.71v1.03h-1.03v-1.03h-2.93v-.99h2.93v-1.49h1.03v1.49h4.71v.99Zm-3.46,4.22v-1.43h-5.15v1.43h5.15Zm0,2.47v-1.48h-5.15v1.48h5.15Z"/>
          <path class="cls-1" d="M426.29,395.75c-.02,.96-.14,1.95-.35,2.96s-.54,1.66-.99,1.93-1.37,.41-2.75,.41c-.95,0-1.64-.02-2.08-.07-.43-.04-.78-.21-1.03-.49s-.38-.64-.38-1.09v-8.83h-3.9c-.12,2.74-.61,4.95-1.47,6.61-.87,1.66-2.43,3.07-4.69,4.25l-.76-.97c1.59-.7,2.92-1.75,4.01-3.13,1.09-1.38,1.66-3.63,1.73-6.75h-5.36v-1.14h17.79v1.14h-6.19v8.73c0,.26,.13,.43,.39,.53,.26,.1,.74,.14,1.45,.14,1.37,0,2.13-.03,2.31-.1,.17-.07,.34-.19,.5-.35,.16-.17,.31-.69,.44-1.57,.13-.88,.2-1.76,.2-2.63l1.13,.42Zm-1.88-11.4h-14.55v-1.12h14.55v1.12Z"/>
          <path class="cls-1" d="M438.77,384.2l-7.69,18.68h-1.6l7.66-18.68h1.63Z"/>
          <path class="cls-1" d="M448.9,396.54c-1.76,.81-3.93,1.7-6.51,2.69l-.3-1.13c.63-.22,1.63-.59,2.99-1.12v-7.52h-2.81v-1.07h2.81v-5.64h1.1v5.64h2.44v1.07h-2.44v7.08l2.52-1.11,.2,1.11Zm11.67-2.2h-5.64v7.01h-1.08v-7.01h-5.6v-1.09h5.6v-8.86h-5.03v-1.1h11.55v1.1h-5.45v8.86h5.64v1.09Zm-8.45-2.69l-1.04,.33c-.37-1.57-1.04-3.34-2.03-5.3l1.08-.42c.97,1.95,1.64,3.75,2,5.39Zm7.95-4.92c-.77,2.25-1.57,4.04-2.4,5.39l-.99-.47c.89-1.61,1.69-3.42,2.4-5.41l.99,.49Z"/>
        </g>
        <g>
          <path class="cls-2" d="M345.94,352.38v-19.13c0-.68-.07-1.15-.22-1.4-.14-.26-.4-.39-.75-.39s-.9,.12-1.65,.36c-.74,.24-1.31,.44-1.7,.61-.29-.23-.44-.5-.44-.82v-.05c0-.13,.03-.21,.1-.24,1.29-.58,2.56-1.17,3.8-1.77,1.24-.6,2.28-1.09,3.1-1.48,.82-.39,1.25-.58,1.28-.58h.1c.16,0,.27,.1,.34,.29,.06,.19,.11,.36,.14,.48-.26,1.58-.39,3.1-.39,4.55v19.56c0,.71,0,1.37,.02,1.99,.02,.61,.09,1.11,.22,1.5,.06,.16,.31,.31,.73,.44,.42,.13,.86,.22,1.33,.27,.47,.05,.8,.07,.99,.07,.1,.13,.15,.36,.17,.68,.02,.32-.04,.55-.17,.68-.97-.06-1.86-.12-2.66-.17-.81-.05-1.68-.07-2.61-.07s-1.73,.02-2.47,.07c-.74,.05-1.6,.1-2.57,.17-.13-.13-.19-.35-.17-.68,.02-.32,.07-.55,.17-.68,.19,0,.52-.02,.99-.07,.47-.05,.91-.14,1.33-.27,.42-.13,.65-.27,.68-.44,.13-.39,.21-.89,.24-1.5,.03-.61,.05-1.28,.05-1.99Z"/>
          <path class="cls-2" d="M372.91,352.38v-19.13c0-.68-.07-1.15-.22-1.4-.15-.26-.4-.39-.75-.39s-.9,.12-1.65,.36c-.74,.24-1.31,.44-1.69,.61-.29-.23-.44-.5-.44-.82v-.05c0-.13,.03-.21,.1-.24,1.29-.58,2.56-1.17,3.8-1.77,1.24-.6,2.28-1.09,3.1-1.48,.82-.39,1.25-.58,1.28-.58h.1c.16,0,.27,.1,.34,.29,.06,.19,.11,.36,.15,.48-.26,1.58-.39,3.1-.39,4.55v19.56c0,.71,0,1.37,.02,1.99,.02,.61,.09,1.11,.22,1.5,.06,.16,.31,.31,.73,.44,.42,.13,.86,.22,1.33,.27,.47,.05,.8,.07,.99,.07,.1,.13,.15,.36,.17,.68,.02,.32-.04,.55-.17,.68-.97-.06-1.86-.12-2.66-.17-.81-.05-1.68-.07-2.62-.07s-1.73,.02-2.47,.07c-.74,.05-1.6,.1-2.57,.17-.13-.13-.19-.35-.17-.68,.02-.32,.07-.55,.17-.68,.19,0,.52-.02,.99-.07,.47-.05,.91-.14,1.33-.27,.42-.13,.65-.27,.68-.44,.13-.39,.21-.89,.24-1.5,.03-.61,.05-1.28,.05-1.99Z"/>
          <path class="cls-2" d="M401.09,339.16c1.87,0,3.46,.42,4.77,1.26,1.31,.84,2.32,1.9,3.03,3.17,.71,1.28,1.07,2.59,1.07,3.95,0,1.61-.35,3.07-1.04,4.38-.7,1.31-1.62,2.42-2.76,3.34-1.15,.92-2.43,1.62-3.85,2.11-1.42,.48-2.87,.73-4.36,.73-.61,0-1.38-.09-2.3-.27-.92-.18-1.75-.46-2.49-.85-.13-.1-.32-.32-.58-.68-.26-.35-.39-.73-.39-1.11,0-.68,.2-1.23,.61-1.65,.4-.42,.86-.63,1.38-.63,.65,0,1.15,.25,1.53,.75,.37,.5,.75,.94,1.14,1.33,.45,.45,.99,.77,1.62,.94,.63,.18,1.25,.27,1.86,.27,.84,0,1.69-.23,2.54-.7,.86-.47,1.57-1.24,2.16-2.32,.58-1.08,.87-2.53,.87-4.33,0-1-.25-2.04-.75-3.12-.5-1.08-1.3-2-2.4-2.76-1.1-.76-2.57-1.14-4.41-1.14-.52,0-1.21,.07-2.08,.22-.87,.15-1.5,.31-1.89,.51-.1,0-.19-.07-.27-.22-.08-.15-.12-.3-.12-.46,.35-1.78,.71-3.55,1.07-5.33,.35-1.78,.69-3.43,.99-4.96,.31-1.53,.54-2.78,.7-3.75h6.97c.65,0,1.31-.03,1.99-.1,.68-.06,1.47-.18,2.37-.34,.16,.1,.3,.18,.41,.24,.11,.07,.17,.16,.17,.29,0,.1-.06,.35-.17,.75-.11,.4-.27,.85-.48,1.33-.21,.48-.46,.9-.75,1.26-.65,.06-1.42,.13-2.32,.19-.9,.07-1.97,.1-3.2,.1h-3.97c-.29,1.42-.57,2.87-.85,4.33-.27,1.47-.56,2.87-.85,4.19,.65-.26,1.49-.48,2.54-.65,1.05-.18,1.88-.27,2.49-.27Z"/>
          <path class="cls-2" d="M418.53,345.5c1.36-.06,2.55-.13,3.58-.19,1.03-.06,2.09-.12,3.17-.17,1.08-.05,2.05-.1,2.91-.15,.85-.05,1.44-.07,1.77-.07,.22,0,.34,.15,.34,.44,0,.81-.21,1.66-.63,2.57-.74,.03-1.74,.08-2.98,.15-1.24,.06-2.6,.13-4.07,.19-1.47,.07-2.93,.13-4.38,.19-.19,0-.29-.18-.29-.53,0-.45,.06-.88,.17-1.28,.11-.4,.25-.78,.41-1.14Z"/>
          <path class="cls-2" d="M445.89,352.38v-19.13c0-.68-.07-1.15-.22-1.4-.14-.26-.4-.39-.75-.39s-.9,.12-1.65,.36c-.74,.24-1.31,.44-1.7,.61-.29-.23-.44-.5-.44-.82v-.05c0-.13,.03-.21,.1-.24,1.29-.58,2.56-1.17,3.8-1.77,1.24-.6,2.28-1.09,3.1-1.48,.82-.39,1.25-.58,1.28-.58h.1c.16,0,.27,.1,.34,.29,.06,.19,.11,.36,.14,.48-.26,1.58-.39,3.1-.39,4.55v19.56c0,.71,0,1.37,.02,1.99,.02,.61,.09,1.11,.22,1.5,.06,.16,.31,.31,.73,.44,.42,.13,.86,.22,1.33,.27,.47,.05,.8,.07,.99,.07,.1,.13,.15,.36,.17,.68,.02,.32-.04,.55-.17,.68-.97-.06-1.86-.12-2.66-.17-.81-.05-1.68-.07-2.61-.07s-1.73,.02-2.47,.07c-.74,.05-1.6,.1-2.57,.17-.13-.13-.19-.35-.17-.68,.02-.32,.07-.55,.17-.68,.19,0,.52-.02,.99-.07,.47-.05,.91-.14,1.33-.27,.42-.13,.65-.27,.68-.44,.13-.39,.21-.89,.24-1.5,.03-.61,.05-1.28,.05-1.99Z"/>
          <path class="cls-2" d="M474.85,339.16c1.65,0,3.03,.31,4.14,.92,1.11,.61,2,1.4,2.66,2.35,.66,.95,1.14,1.95,1.43,3,.29,1.05,.44,1.99,.44,2.83,0,1.74-.43,3.37-1.28,4.87s-2,2.71-3.44,3.63c-1.44,.92-3.06,1.38-4.87,1.38-1.42,0-2.7-.31-3.85-.94-1.15-.63-2.12-1.46-2.93-2.49-.81-1.03-1.43-2.19-1.87-3.46-.44-1.27-.65-2.54-.65-3.8,0-2.42,.39-4.71,1.16-6.88,.78-2.16,1.9-4.05,3.39-5.67,1.13-1.23,2.43-2.36,3.9-3.39,1.47-1.03,2.97-1.92,4.5-2.66,1.53-.74,2.96-1.27,4.29-1.6,.23,0,.37,.19,.44,.56,.06,.37,.1,.64,.1,.8-1,.32-2.14,.77-3.41,1.36-1.28,.58-2.56,1.36-3.85,2.32-1.29,.97-2.45,2.19-3.49,3.66-1.03,1.47-1.82,3.25-2.37,5.35,.84-.68,1.78-1.2,2.81-1.57,1.03-.37,1.95-.56,2.76-.56Zm-5.96,4.21c-.07,.52-.11,1.05-.15,1.6-.03,.55-.05,1.1-.05,1.65,0,1.07,.11,2.18,.34,3.34,.22,1.16,.57,2.24,1.04,3.24,.47,1,1.06,1.82,1.77,2.45,.71,.63,1.53,.94,2.47,.94,1.52,0,2.76-.71,3.73-2.13,.97-1.42,1.45-3.2,1.45-5.33,0-1.36-.2-2.61-.61-3.78-.4-1.16-1.04-2.1-1.91-2.81-.87-.71-2.02-1.07-3.44-1.07-.68,0-1.43,.11-2.25,.31-.82,.21-1.62,.73-2.4,1.57Z"/>
          <path class="cls-2" d="M501.04,339.16c1.87,0,3.46,.42,4.77,1.26,1.31,.84,2.32,1.9,3.03,3.17,.71,1.28,1.07,2.59,1.07,3.95,0,1.61-.35,3.07-1.04,4.38-.7,1.31-1.62,2.42-2.76,3.34-1.15,.92-2.43,1.62-3.85,2.11-1.42,.48-2.87,.73-4.36,.73-.61,0-1.38-.09-2.3-.27-.92-.18-1.75-.46-2.49-.85-.13-.1-.32-.32-.58-.68-.26-.35-.39-.73-.39-1.11,0-.68,.2-1.23,.61-1.65,.4-.42,.86-.63,1.38-.63,.65,0,1.15,.25,1.53,.75,.37,.5,.75,.94,1.14,1.33,.45,.45,.99,.77,1.62,.94,.63,.18,1.25,.27,1.86,.27,.84,0,1.69-.23,2.54-.7,.86-.47,1.57-1.24,2.16-2.32,.58-1.08,.87-2.53,.87-4.33,0-1-.25-2.04-.75-3.12-.5-1.08-1.3-2-2.4-2.76-1.1-.76-2.57-1.14-4.41-1.14-.52,0-1.21,.07-2.08,.22-.87,.15-1.5,.31-1.89,.51-.1,0-.19-.07-.27-.22-.08-.15-.12-.3-.12-.46,.35-1.78,.71-3.55,1.07-5.33,.35-1.78,.69-3.43,.99-4.96,.31-1.53,.54-2.78,.7-3.75h6.97c.65,0,1.31-.03,1.99-.1,.68-.06,1.47-.18,2.37-.34,.16,.1,.3,.18,.41,.24,.11,.07,.17,.16,.17,.29,0,.1-.06,.35-.17,.75-.11,.4-.27,.85-.48,1.33-.21,.48-.46,.9-.75,1.26-.65,.06-1.42,.13-2.32,.19-.9,.07-1.97,.1-3.2,.1h-3.97c-.29,1.42-.57,2.87-.85,4.33-.27,1.47-.56,2.87-.85,4.19,.65-.26,1.49-.48,2.54-.65,1.05-.18,1.88-.27,2.49-.27Z"/>
        </g>
      </g>
      <g>
        <circle class="cls-3" cx="104.05" cy="568.76" r="103.55"/>
        <g>
          <path class="cls-1" d="M83.88,512.35s1.72,1.31,2.81,2.29c-.08,.3-.35,.44-.76,.44h-10.76v3.7h5.39l1.06-1.25,2.56,1.91c-.16,.19-.6,.44-1.14,.54v8.53c0,1.61-.35,2.56-3.19,2.83-.08-.68-.22-1.17-.57-1.53-.38-.3-1.01-.6-2.26-.74v-.41s2.56,.16,3.21,.16c.49,0,.6-.16,.6-.52v-8.74h-5.67v14.68c-.03,.16-.74,.68-1.88,.68h-.38v-15.36h-5.67v10.89c0,.22-.93,.74-1.83,.74h-.35v-13.43l2.37,1.01h5.47v-3.7h-11.17l-.25-.79h20.81l1.58-1.93Zm-12.53-2.59c6.48,.9,4.79,5.56,2.42,4.09-.33-1.36-1.61-2.97-2.67-3.87l.25-.22Z"/>
          <path class="cls-1" d="M114.09,516.77c-.6,4.28-1.77,7.93-3.95,10.92,1.72,2.21,3.92,3.98,6.84,5.23l-.08,.27c-1.04,.16-1.74,.74-2.04,1.69-2.56-1.47-4.47-3.43-5.88-5.75-2.18,2.42-5.2,4.36-9.31,5.77l-.22-.35c3.92-1.88,6.7-4.28,8.61-7.11-1.2-2.48-1.96-5.28-2.48-8.36-.84,1.42-1.8,2.64-2.83,3.65l-.38-.22c.33-.57,.65-1.2,.95-1.88h-4v8.09c1.74-.44,3.62-.93,5.5-1.42l.11,.41c-2.7,1.2-6.51,2.89-11.82,4.93-.11,.33-.35,.6-.63,.68l-1.33-2.7c.46-.08,1.04-.22,1.74-.38v-12.96l2.7,.27c-.05,.27-.27,.49-.79,.6v11.66c.74-.16,1.55-.35,2.42-.57v-15.96h-5.31l-.22-.79h9.18l1.42-1.74s1.53,1.23,2.51,2.1c-.08,.3-.35,.44-.74,.44h-4.74v6.59h1.23l1.28-1.77s1.04,.9,1.88,1.72c1.2-2.89,2.18-6.4,2.64-10l3.4,.79c-.11,.33-.41,.6-1.04,.63-.41,1.69-.95,3.27-1.55,4.74h5.75l1.39-1.8s1.58,1.23,2.53,2.15c-.08,.3-.35,.44-.71,.44h-2.01Zm-7.3,0c-.25,.54-.52,1.06-.79,1.55,.65,2.83,1.58,5.42,2.94,7.65,1.47-2.72,2.29-5.77,2.67-9.21h-4.82Z"/>
          <path class="cls-1" d="M126.13,520.69c0,4.49-.27,10.32-4.52,14.35l-.38-.27c2.51-4.11,2.72-9.29,2.72-14.08v-7.82l2.56,1.03h16.1l1.42-1.82s1.63,1.28,2.59,2.21c-.08,.3-.33,.44-.71,.44h-19.77v5.96Zm7.63-4.49c-.14,.33-.35,.49-1.03,.44-.52,1.2-1.25,2.59-2.15,4l1.28,.49c-.08,.25-.35,.41-.84,.49v12.69c-.03,.16-.9,.63-1.69,.63h-.38v-11.98c-.76,.98-1.58,1.88-2.51,2.64l-.3-.27c2.12-2.89,3.87-7.27,4.63-10.24l3,1.12Zm-1.36-6.48c6.24,.98,4.58,5.31,2.32,3.9-.38-1.25-1.58-2.81-2.53-3.73l.22-.16Zm11.88,8.96s1.47,1.25,2.26,2.15c-.05,.3-.33,.44-.71,.44h-3.35v10.73c0,1.69-.35,2.67-3.24,2.97-.08-.68-.25-1.23-.65-1.55-.44-.35-1.14-.63-2.42-.82v-.44s2.97,.25,3.54,.25c.52,0,.65-.16,.65-.57v-10.57h-7.35l-.22-.79h7.57v-5.2l3.1,.33c-.08,.38-.33,.63-.98,.71v4.17h.57l1.23-1.8Zm-10.24,3.92c6.1,2.86,3.95,7.27,1.93,5.42-.14-1.72-1.25-3.84-2.26-5.28l.33-.14Z"/>
        </g>
        <g>
          <path class="cls-1" d="M83.71,632.11c0,.43-.1,.78-.29,1.02s-.46,.4-.8,.44c-.34,.05-.92,.07-1.76,.07l-.42-1.08,1.6-.04c.41,0,.62-.2,.62-.61v-4.1h-6.83v2.24c.93-.06,1.88-.16,2.84-.29-.12-.17-.35-.44-.68-.81l.89-.57c1.05,1.21,1.73,2.15,2.06,2.79l-.93,.53c-.15-.34-.37-.7-.68-1.1-2.86,.42-5.93,.69-9.24,.8l-.37-1.01c1.88-.03,3.56-.1,5.04-.21v-2.38h-6.4v5.74h-1.05v-5.74h-1.23v-1.01h1.23v-.63h1.05v.63h6.4v-1.48h-6.23v-5.94h13.51v5.94h-6.21v1.48h7.88v5.3Zm-8.92-14.49h-2.39v1.03h-1.09v-1.03h-5.21v-.99h5.21v-1.49h1.09v1.49h2.39v.99Zm-.04,4.22v-1.43h-5.17v1.43h5.17Zm0,2.47v-1.48h-5.17v1.48h5.17Zm9.68-6.69h-4.71v1.03h-1.04v-1.03h-2.93v-.99h2.93v-1.49h1.04v1.49h4.71v.99Zm-3.46,4.22v-1.43h-5.15v1.43h5.15Zm0,2.47v-1.48h-5.15v1.48h5.15Z"/>
          <path class="cls-1" d="M107.76,628.11c-.02,.96-.14,1.95-.35,2.96-.21,1.02-.54,1.66-.99,1.93s-1.37,.41-2.75,.41c-.95,0-1.64-.02-2.08-.07-.43-.04-.78-.21-1.03-.49-.25-.28-.38-.64-.38-1.09v-8.83h-3.9c-.12,2.74-.61,4.95-1.47,6.61s-2.43,3.07-4.69,4.25l-.77-.97c1.59-.7,2.92-1.75,4.01-3.13,1.09-1.38,1.66-3.63,1.73-6.75h-5.36v-1.14h17.79v1.14h-6.19v8.73c0,.26,.13,.43,.39,.53,.26,.1,.75,.14,1.45,.14,1.37,0,2.13-.03,2.31-.1,.17-.07,.34-.19,.5-.35s.31-.69,.45-1.57c.13-.88,.2-1.76,.2-2.63l1.13,.42Zm-1.88-11.4h-14.56v-1.12h14.56v1.12Z"/>
          <path class="cls-1" d="M120.24,616.55l-7.69,18.68h-1.6l7.66-18.68h1.63Z"/>
          <path class="cls-1" d="M130.37,628.89c-1.76,.81-3.93,1.7-6.51,2.69l-.3-1.13c.63-.22,1.63-.59,2.99-1.12v-7.52h-2.81v-1.07h2.81v-5.64h1.1v5.64h2.44v1.07h-2.44v7.08l2.52-1.11,.2,1.11Zm11.67-2.2h-5.64v7.01h-1.08v-7.01h-5.6v-1.09h5.6v-8.86h-5.03v-1.1h11.56v1.1h-5.45v8.86h5.64v1.09Zm-8.45-2.69l-1.04,.33c-.37-1.57-1.04-3.34-2.03-5.3l1.08-.42c.97,1.95,1.64,3.75,2,5.39Zm7.94-4.92c-.76,2.25-1.57,4.04-2.4,5.39l-.99-.47c.89-1.61,1.69-3.42,2.4-5.41l.99,.49Z"/>
        </g>
        <g>
          <path class="cls-2" d="M32.99,589.14c1-.32,2.14-.77,3.41-1.36,1.28-.58,2.56-1.36,3.85-2.32,1.29-.97,2.46-2.19,3.51-3.66,1.05-1.47,1.83-3.25,2.35-5.35-.81,.68-1.74,1.2-2.78,1.57-1.05,.37-1.98,.56-2.78,.56-1.65,0-3.03-.31-4.14-.92-1.11-.61-2-1.4-2.66-2.35-.66-.95-1.13-1.95-1.4-3-.28-1.05-.41-1.99-.41-2.83,0-1.78,.43-3.41,1.28-4.89,.86-1.48,2.01-2.69,3.46-3.61,1.45-.92,3.07-1.38,4.84-1.38,1.42,0,2.7,.31,3.85,.94,1.15,.63,2.12,1.46,2.93,2.49,.81,1.03,1.42,2.19,1.84,3.46,.42,1.28,.63,2.54,.63,3.8,0,2.42-.38,4.71-1.14,6.88-.76,2.16-1.9,4.05-3.41,5.67-1.1,1.23-2.39,2.36-3.87,3.39-1.49,1.03-3,1.91-4.53,2.64-1.53,.73-2.96,1.27-4.29,1.62-.23,0-.37-.19-.44-.58s-.1-.65-.1-.77Zm13.51-14.77c.06-.52,.11-1.05,.15-1.6,.03-.55,.05-1.1,.05-1.65,0-1.07-.11-2.18-.34-3.34-.23-1.16-.56-2.24-1.02-3.24-.45-1-1.03-1.82-1.74-2.45-.71-.63-1.53-.94-2.47-.94-1.49,0-2.72,.71-3.71,2.13-.98,1.42-1.48,3.2-1.48,5.33,0,1.32,.19,2.57,.58,3.75,.39,1.18,1.02,2.12,1.89,2.83,.87,.71,2.02,1.07,3.44,1.07,.68,0,1.43-.1,2.25-.31,.82-.21,1.62-.73,2.4-1.57Z"/>
          <path class="cls-2" d="M68.29,571.51c1.87,0,3.46,.42,4.77,1.26,1.31,.84,2.32,1.9,3.03,3.17,.71,1.28,1.07,2.59,1.07,3.95,0,1.61-.35,3.07-1.04,4.38-.69,1.31-1.61,2.42-2.76,3.34-1.15,.92-2.43,1.62-3.85,2.11-1.42,.48-2.87,.73-4.36,.73-.61,0-1.38-.09-2.3-.27s-1.75-.46-2.49-.85c-.13-.1-.32-.32-.58-.68-.26-.35-.39-.73-.39-1.11,0-.68,.2-1.23,.61-1.65,.4-.42,.86-.63,1.38-.63,.64,0,1.15,.25,1.53,.75,.37,.5,.75,.94,1.14,1.33,.45,.45,.99,.77,1.62,.94,.63,.18,1.25,.27,1.86,.27,.84,0,1.69-.23,2.54-.7,.85-.47,1.57-1.24,2.15-2.32,.58-1.08,.87-2.53,.87-4.33,0-1-.25-2.04-.75-3.12-.5-1.08-1.3-2-2.4-2.76-1.1-.76-2.57-1.14-4.41-1.14-.52,0-1.21,.07-2.08,.22-.87,.15-1.5,.31-1.89,.51-.1,0-.19-.07-.27-.22-.08-.15-.12-.3-.12-.46,.36-1.78,.71-3.55,1.07-5.33,.36-1.78,.69-3.43,.99-4.96,.31-1.53,.54-2.78,.7-3.75h6.97c.65,0,1.31-.03,1.99-.1,.68-.06,1.47-.18,2.37-.34,.16,.1,.3,.18,.41,.24,.11,.07,.17,.16,.17,.29,0,.1-.06,.35-.17,.75-.11,.4-.27,.85-.48,1.33-.21,.48-.46,.9-.75,1.26-.65,.06-1.42,.13-2.32,.19-.9,.07-1.97,.1-3.2,.1h-3.97c-.29,1.42-.57,2.87-.85,4.33-.27,1.47-.56,2.87-.85,4.19,.64-.26,1.49-.48,2.54-.65,1.05-.18,1.88-.27,2.49-.27Z"/>
          <path class="cls-2" d="M85.73,577.86c1.36-.06,2.55-.13,3.58-.19,1.03-.06,2.09-.12,3.17-.17,1.08-.05,2.05-.1,2.91-.15,.86-.05,1.44-.07,1.77-.07,.23,0,.34,.15,.34,.44,0,.81-.21,1.66-.63,2.57-.74,.03-1.74,.08-2.98,.15-1.24,.06-2.6,.13-4.07,.19-1.47,.07-2.93,.13-4.38,.19-.19,0-.29-.18-.29-.53,0-.45,.06-.88,.17-1.28,.11-.4,.25-.78,.41-1.14Z"/>
          <path class="cls-2" d="M113.09,584.73v-19.13c0-.68-.07-1.15-.22-1.4-.15-.26-.4-.39-.75-.39s-.9,.12-1.65,.36c-.74,.24-1.31,.44-1.69,.61-.29-.23-.44-.5-.44-.82v-.05c0-.13,.03-.21,.1-.24,1.29-.58,2.56-1.17,3.8-1.77,1.24-.6,2.28-1.09,3.1-1.48,.82-.39,1.25-.58,1.28-.58h.1c.16,0,.27,.1,.34,.29,.06,.19,.11,.36,.15,.48-.26,1.58-.39,3.1-.39,4.55v19.56c0,.71,0,1.37,.02,1.99,.02,.61,.09,1.11,.22,1.5,.06,.16,.31,.31,.73,.44,.42,.13,.86,.22,1.33,.27,.47,.05,.8,.07,.99,.07,.1,.13,.15,.36,.17,.68,.02,.32-.04,.55-.17,.68-.97-.06-1.86-.12-2.66-.17-.81-.05-1.68-.07-2.62-.07s-1.73,.02-2.47,.07c-.74,.05-1.6,.1-2.57,.17-.13-.13-.19-.35-.17-.68,.02-.32,.07-.55,.17-.68,.19,0,.52-.02,.99-.07,.47-.05,.91-.14,1.33-.27,.42-.13,.65-.27,.68-.44,.13-.39,.21-.89,.24-1.5,.03-.61,.05-1.28,.05-1.99Z"/>
          <path class="cls-2" d="M151,583.13c-.32,.77-.66,1.65-1.02,2.64-.36,.99-.68,1.9-.97,2.74-.29,.84-.48,1.4-.58,1.69h-16.37c-.1-.06-.2-.17-.31-.31s-.17-.27-.17-.36c1.32-1.48,2.68-3.03,4.07-4.65,1.39-1.61,2.71-3.21,3.97-4.79,1.26-1.58,2.34-3.03,3.25-4.36,.97-1.42,1.59-2.66,1.86-3.73,.27-1.07,.41-2.18,.41-3.34,0-1.61-.49-2.97-1.48-4.07-.99-1.1-2.24-1.65-3.75-1.65-1.26,0-2.36,.27-3.29,.82-.94,.55-1.7,1.15-2.28,1.79-.58,.65-.97,1.13-1.16,1.45-.19,0-.4-.1-.61-.31-.21-.21-.31-.36-.31-.46,.1-.29,.36-.78,.8-1.48,.44-.69,1.04-1.42,1.82-2.18,.77-.76,1.67-1.4,2.69-1.94,1.02-.53,2.15-.8,3.41-.8,1.52,0,2.9,.38,4.14,1.14,1.24,.76,2.23,1.74,2.95,2.93,.73,1.19,1.09,2.47,1.09,3.83s-.24,2.63-.73,3.83c-.48,1.19-1.15,2.31-1.99,3.34-1.1,1.36-2.32,2.8-3.66,4.33-1.34,1.53-2.61,2.97-3.8,4.31-1.2,1.34-2.15,2.41-2.86,3.22h9.39c.94,0,1.7-.3,2.3-.9,.6-.6,1.15-1.51,1.67-2.74,.06-.19,.24-.29,.53-.29,.1,0,.26,.03,.48,.1,.23,.07,.39,.13,.48,.19Z"/>
          <path class="cls-2" d="M168.25,571.51c1.87,0,3.46,.42,4.77,1.26,1.31,.84,2.32,1.9,3.03,3.17,.71,1.28,1.07,2.59,1.07,3.95,0,1.61-.35,3.07-1.04,4.38-.69,1.31-1.61,2.42-2.76,3.34-1.15,.92-2.43,1.62-3.85,2.11-1.42,.48-2.87,.73-4.36,.73-.61,0-1.38-.09-2.3-.27s-1.75-.46-2.49-.85c-.13-.1-.32-.32-.58-.68-.26-.35-.39-.73-.39-1.11,0-.68,.2-1.23,.61-1.65,.4-.42,.86-.63,1.38-.63,.64,0,1.15,.25,1.53,.75,.37,.5,.75,.94,1.14,1.33,.45,.45,.99,.77,1.62,.94,.63,.18,1.25,.27,1.86,.27,.84,0,1.69-.23,2.54-.7,.85-.47,1.57-1.24,2.15-2.32,.58-1.08,.87-2.53,.87-4.33,0-1-.25-2.04-.75-3.12-.5-1.08-1.3-2-2.4-2.76-1.1-.76-2.57-1.14-4.41-1.14-.52,0-1.21,.07-2.08,.22-.87,.15-1.5,.31-1.89,.51-.1,0-.19-.07-.27-.22-.08-.15-.12-.3-.12-.46,.36-1.78,.71-3.55,1.07-5.33,.36-1.78,.69-3.43,.99-4.96,.31-1.53,.54-2.78,.7-3.75h6.97c.65,0,1.31-.03,1.99-.1,.68-.06,1.47-.18,2.37-.34,.16,.1,.3,.18,.41,.24,.11,.07,.17,.16,.17,.29,0,.1-.06,.35-.17,.75-.11,.4-.27,.85-.48,1.33-.21,.48-.46,.9-.75,1.26-.65,.06-1.42,.13-2.32,.19-.9,.07-1.97,.1-3.2,.1h-3.97c-.29,1.42-.57,2.87-.85,4.33-.27,1.47-.56,2.87-.85,4.19,.64-.26,1.49-.48,2.54-.65,1.05-.18,1.88-.27,2.49-.27Z"/>
        </g>
      </g>
      <g>
        <circle class="cls-3" cx="422.58" cy="568.76" r="103.55"/>
        <g>
          <path class="cls-1" d="M416.75,511.67s1.77,1.31,2.83,2.29c-.08,.3-.38,.44-.74,.44h-10.6v3.51h6.75l1.09-1.25,2.53,1.93c-.16,.19-.6,.44-1.14,.52v12.91c0,1.63-.38,2.64-3.35,2.91-.05-.68-.22-1.25-.63-1.55-.46-.35-1.17-.63-2.51-.82v-.41s2.94,.22,3.62,.22c.49,0,.65-.19,.65-.6v-13.05h-15.82v15.39c0,.27-.93,.82-1.83,.82h-.38v-18.06l2.4,1.04h6.4v-3.51h-10.87l-.22-.82h11.08v-3.89l3.21,.3c-.05,.38-.33,.65-1.01,.76v2.83h6.97l1.53-1.91Zm-8.55,17.02v5.07c0,.14-.68,.57-1.77,.57h-.35v-5.64h-5.47l-.22-.79h5.69v-3.38h-4.79l-.19-.79h6.97c.57-1.33,1.23-3.27,1.58-4.6l2.89,.84c-.11,.3-.46,.52-1.01,.49-.71,.98-1.74,2.23-2.72,3.27h1.74l1.17-1.42s1.33,1.01,2.18,1.77c-.08,.3-.35,.44-.71,.44h-4.98v3.38h2.42l1.28-1.58s1.47,1.12,2.37,1.93c-.08,.3-.3,.44-.68,.44h-5.39Zm-5.61-9.45c5.07,1.77,3.05,5.45,1.25,3.9-.08-1.25-.87-2.81-1.55-3.73l.3-.16Z"/>
          <path class="cls-1" d="M424.65,515.87c6.02,.93,4.52,5.09,2.42,3.73-.35-1.25-1.58-2.67-2.67-3.49l.25-.25Zm18.47,3.7c1.58,2.37,4.38,4.17,7.08,5.04l-.05,.3c-.84,.16-1.5,.87-1.77,1.96-1.42-.79-2.67-1.85-3.7-3.21-.14,.05-.27,.08-.41,.11v4.82c-.03,.16-1.09,.49-1.72,.49h-.33v-1.31h-5.88v4.03c0,.52,.16,.65,1.53,.65h3.7c1.63,0,2.86,0,3.38-.05,.41-.03,.6-.14,.74-.41,.27-.46,.63-1.85,.98-3.51h.33l.11,3.65c.74,.25,.93,.49,.93,.9,0,1.01-1.09,1.33-6.59,1.33h-3.84c-2.7,0-3.35-.41-3.35-2.12v-7.84c-1.31,1.23-2.86,2.29-4.6,3.16l-.27-.44c2.7-1.93,4.74-4.66,5.96-7.54h-4.44l-.05-.19c-.87,2.72-1.82,5.64-2.07,6.46-.19,.82-.38,1.66-.35,2.32,.03,1.28,.87,2.51,.79,4.74-.08,1.23-.71,1.96-1.66,1.96-.54,0-.93-.46-1.01-1.36,.41-2.78,.27-5.04-.33-5.45-.38-.27-.76-.35-1.33-.41v-.57h1.17c.35,0,.46,0,.74-.54q.49-.93,4.66-10.57l.46,.11-.87,2.72h4.52v-3.73h-4.22l-.22-.76h4.44v-4.3l3,.3c-.03,.38-.27,.65-.98,.74v3.27h4.06v-4.3l3.11,.3c-.05,.38-.3,.65-.98,.74v3.27h1.88l1.33-1.77s1.53,1.25,2.42,2.12c-.08,.3-.33,.41-.71,.41h-4.93v3.73h2.34l1.33-1.77s1.58,1.23,2.48,2.12c-.05,.3-.33,.44-.68,.44h-6.1Zm-16.53-9.53c6.26,1.12,4.69,5.42,2.51,4.03-.35-1.36-1.66-2.89-2.75-3.81l.25-.22Zm17.13,12.2c-.49-.82-.93-1.72-1.28-2.67h-4.6c-.49,1.03-1.12,2.02-1.82,2.91l.68,.3h5.31l1.01-1.06,.71,.52Zm-1.5,4.74v-3.43h-5.88v3.43h5.88Zm-4.66-11.93v3.73h4.06v-3.73h-4.06Z"/>
        </g>
        <g>
          <path class="cls-1" d="M402.24,632.11c0,.43-.1,.78-.29,1.02s-.46,.4-.8,.44c-.34,.05-.92,.07-1.76,.07l-.42-1.08,1.6-.04c.41,0,.62-.2,.62-.61v-4.1h-6.83v2.24c.93-.06,1.88-.16,2.84-.29-.12-.17-.35-.44-.68-.81l.89-.57c1.05,1.21,1.73,2.15,2.06,2.79l-.93,.53c-.15-.34-.37-.7-.68-1.1-2.86,.42-5.93,.69-9.24,.8l-.37-1.01c1.88-.03,3.56-.1,5.04-.21v-2.38h-6.4v5.74h-1.05v-5.74h-1.23v-1.01h1.23v-.63h1.05v.63h6.4v-1.48h-6.23v-5.94h13.51v5.94h-6.21v1.48h7.88v5.3Zm-8.92-14.49h-2.39v1.03h-1.09v-1.03h-5.21v-.99h5.21v-1.49h1.09v1.49h2.39v.99Zm-.04,4.22v-1.43h-5.17v1.43h5.17Zm0,2.47v-1.48h-5.17v1.48h5.17Zm9.68-6.69h-4.71v1.03h-1.04v-1.03h-2.93v-.99h2.93v-1.49h1.04v1.49h4.71v.99Zm-3.46,4.22v-1.43h-5.15v1.43h5.15Zm0,2.47v-1.48h-5.15v1.48h5.15Z"/>
          <path class="cls-1" d="M426.29,628.11c-.02,.96-.14,1.95-.35,2.96-.21,1.02-.54,1.66-.99,1.93s-1.37,.41-2.75,.41c-.95,0-1.64-.02-2.08-.07-.43-.04-.78-.21-1.03-.49-.25-.28-.38-.64-.38-1.09v-8.83h-3.9c-.12,2.74-.61,4.95-1.47,6.61s-2.43,3.07-4.69,4.25l-.77-.97c1.59-.7,2.92-1.75,4.01-3.13,1.09-1.38,1.66-3.63,1.73-6.75h-5.36v-1.14h17.79v1.14h-6.19v8.73c0,.26,.13,.43,.39,.53,.26,.1,.75,.14,1.45,.14,1.37,0,2.13-.03,2.31-.1,.17-.07,.34-.19,.5-.35s.31-.69,.45-1.57c.13-.88,.2-1.76,.2-2.63l1.13,.42Zm-1.88-11.4h-14.56v-1.12h14.56v1.12Z"/>
          <path class="cls-1" d="M438.76,616.55l-7.69,18.68h-1.6l7.66-18.68h1.63Z"/>
          <path class="cls-1" d="M448.9,628.89c-1.76,.81-3.93,1.7-6.51,2.69l-.3-1.13c.63-.22,1.63-.59,2.99-1.12v-7.52h-2.81v-1.07h2.81v-5.64h1.1v5.64h2.44v1.07h-2.44v7.08l2.52-1.11,.2,1.11Zm11.67-2.2h-5.64v7.01h-1.08v-7.01h-5.6v-1.09h5.6v-8.86h-5.03v-1.1h11.56v1.1h-5.45v8.86h5.64v1.09Zm-8.45-2.69l-1.04,.33c-.37-1.57-1.04-3.34-2.03-5.3l1.08-.42c.97,1.95,1.64,3.75,2,5.39Zm7.94-4.92c-.76,2.25-1.57,4.04-2.4,5.39l-.99-.47c.89-1.61,1.69-3.42,2.4-5.41l.99,.49Z"/>
        </g>
        <g>
          <path class="cls-2" d="M361.12,560.28c.61,0,1.28-.02,1.99-.07,.71-.05,1.13-.07,1.26-.07,.19,0,.29,.15,.29,.44,0,.32-.15,.77-.44,1.33-.29,.57-.6,1.17-.92,1.82l-12.45,26.59c-.1,.1-.26,.15-.48,.15-.36,0-.79-.09-1.31-.27-.52-.18-.78-.38-.78-.61,.81-1.23,1.7-2.71,2.66-4.46s1.96-3.58,2.98-5.52c1.02-1.94,1.99-3.84,2.91-5.71,.92-1.87,1.74-3.58,2.47-5.11,.73-1.53,1.53-3.22,2.4-5.06h-12.01c-.94,0-1.65,.29-2.13,.87-.48,.58-.9,1.5-1.26,2.76-.03,.19-.23,.29-.58,.29-.1,0-.25-.03-.46-.1-.21-.06-.36-.13-.46-.19,.42-1.29,.82-2.61,1.19-3.95,.37-1.34,.64-2.38,.8-3.12h14.33Z"/>
          <path class="cls-2" d="M381.7,571.51c1.87,0,3.46,.42,4.77,1.26,1.31,.84,2.32,1.9,3.03,3.17,.71,1.28,1.07,2.59,1.07,3.95,0,1.61-.35,3.07-1.04,4.38-.7,1.31-1.62,2.42-2.76,3.34-1.15,.92-2.43,1.62-3.85,2.11-1.42,.48-2.87,.73-4.36,.73-.61,0-1.38-.09-2.3-.27-.92-.18-1.75-.46-2.49-.85-.13-.1-.32-.32-.58-.68-.26-.35-.39-.73-.39-1.11,0-.68,.2-1.23,.61-1.65,.4-.42,.86-.63,1.38-.63,.65,0,1.15,.25,1.53,.75,.37,.5,.75,.94,1.14,1.33,.45,.45,.99,.77,1.62,.94,.63,.18,1.25,.27,1.86,.27,.84,0,1.69-.23,2.54-.7,.86-.47,1.57-1.24,2.16-2.32,.58-1.08,.87-2.53,.87-4.33,0-1-.25-2.04-.75-3.12-.5-1.08-1.3-2-2.4-2.76-1.1-.76-2.57-1.14-4.41-1.14-.52,0-1.21,.07-2.08,.22-.87,.15-1.5,.31-1.89,.51-.1,0-.19-.07-.27-.22-.08-.15-.12-.3-.12-.46,.35-1.78,.71-3.55,1.07-5.33,.35-1.78,.69-3.43,.99-4.96,.31-1.53,.54-2.78,.7-3.75h6.97c.65,0,1.31-.03,1.99-.1,.68-.06,1.47-.18,2.37-.34,.16,.1,.3,.18,.41,.24,.11,.07,.17,.16,.17,.29,0,.1-.06,.35-.17,.75-.11,.4-.27,.85-.48,1.33-.21,.48-.46,.9-.75,1.26-.65,.06-1.42,.13-2.32,.19-.9,.07-1.97,.1-3.2,.1h-3.97c-.29,1.42-.57,2.87-.85,4.33-.27,1.47-.56,2.87-.85,4.19,.65-.26,1.49-.48,2.54-.65,1.05-.18,1.88-.27,2.49-.27Z"/>
          <path class="cls-2" d="M399.13,577.86c1.36-.06,2.55-.13,3.58-.19,1.03-.06,2.09-.12,3.17-.17,1.08-.05,2.05-.1,2.91-.15,.85-.05,1.44-.07,1.77-.07,.22,0,.34,.15,.34,.44,0,.81-.21,1.66-.63,2.57-.74,.03-1.74,.08-2.98,.15-1.24,.06-2.6,.13-4.07,.19-1.47,.07-2.93,.13-4.38,.19-.19,0-.29-.18-.29-.53,0-.45,.06-.88,.17-1.28,.11-.4,.25-.78,.41-1.14Z"/>
          <path class="cls-2" d="M426.49,584.73v-19.13c0-.68-.07-1.15-.22-1.4-.14-.26-.4-.39-.75-.39s-.9,.12-1.65,.36c-.74,.24-1.31,.44-1.7,.61-.29-.23-.44-.5-.44-.82v-.05c0-.13,.03-.21,.1-.24,1.29-.58,2.56-1.17,3.8-1.77,1.24-.6,2.28-1.09,3.1-1.48,.82-.39,1.25-.58,1.28-.58h.1c.16,0,.27,.1,.34,.29,.06,.19,.11,.36,.14,.48-.26,1.58-.39,3.1-.39,4.55v19.56c0,.71,0,1.37,.02,1.99,.02,.61,.09,1.11,.22,1.5,.06,.16,.31,.31,.73,.44,.42,.13,.86,.22,1.33,.27,.47,.05,.8,.07,.99,.07,.1,.13,.15,.36,.17,.68,.02,.32-.04,.55-.17,.68-.97-.06-1.86-.12-2.66-.17-.81-.05-1.68-.07-2.61-.07s-1.73,.02-2.47,.07c-.74,.05-1.6,.1-2.57,.17-.13-.13-.19-.35-.17-.68,.02-.32,.07-.55,.17-.68,.19,0,.52-.02,.99-.07,.47-.05,.91-.14,1.33-.27,.42-.13,.65-.27,.68-.44,.13-.39,.21-.89,.24-1.5,.03-.61,.05-1.28,.05-1.99Z"/>
          <path class="cls-2" d="M454.68,559.89c2.23,0,4.11,.69,5.64,2.08,1.53,1.39,2.7,3.24,3.49,5.54,.79,2.31,1.19,4.83,1.19,7.58s-.4,5.27-1.21,7.58c-.81,2.31-1.98,4.16-3.51,5.57s-3.4,2.11-5.59,2.11-3.97-.7-5.52-2.11c-1.55-1.4-2.74-3.26-3.56-5.57-.82-2.31-1.24-4.83-1.24-7.58s.4-5.27,1.21-7.58c.81-2.31,1.99-4.16,3.54-5.54,1.55-1.39,3.41-2.08,5.57-2.08Zm.24,1.74c-1.32,0-2.46,.61-3.41,1.82-.95,1.21-1.69,2.83-2.2,4.87s-.77,4.29-.77,6.78,.26,4.71,.77,6.76c.52,2.05,1.22,3.69,2.11,4.92,.89,1.23,1.91,1.84,3.08,1.84,1.42,0,2.6-.63,3.54-1.89,.94-1.26,1.64-2.94,2.11-5.04,.47-2.1,.7-4.37,.7-6.83s-.25-4.72-.75-6.71c-.5-1.99-1.2-3.57-2.08-4.75-.89-1.18-1.91-1.77-3.07-1.77Z"/>
          <path class="cls-2" d="M481.65,559.89c2.23,0,4.11,.69,5.64,2.08,1.53,1.39,2.7,3.24,3.49,5.54,.79,2.31,1.19,4.83,1.19,7.58s-.4,5.27-1.21,7.58c-.81,2.31-1.98,4.16-3.51,5.57-1.53,1.4-3.4,2.11-5.59,2.11s-3.97-.7-5.52-2.11-2.74-3.26-3.56-5.57c-.82-2.31-1.23-4.83-1.23-7.58s.4-5.27,1.21-7.58c.81-2.31,1.99-4.16,3.54-5.54,1.55-1.39,3.41-2.08,5.57-2.08Zm.24,1.74c-1.32,0-2.46,.61-3.41,1.82-.95,1.21-1.69,2.83-2.2,4.87-.52,2.03-.78,4.29-.78,6.78s.26,4.71,.78,6.76c.52,2.05,1.22,3.69,2.11,4.92,.89,1.23,1.91,1.84,3.08,1.84,1.42,0,2.6-.63,3.54-1.89,.94-1.26,1.64-2.94,2.11-5.04,.47-2.1,.7-4.37,.7-6.83s-.25-4.72-.75-6.71c-.5-1.99-1.19-3.57-2.08-4.75-.89-1.18-1.91-1.77-3.08-1.77Z"/>
        </g>
      </g>
    </g>
  </g>
</svg>