<?xml version="1.0" encoding="UTF-8"?>
<svg id="_圖層_2" data-name="圖層 2" xmlns="http://www.w3.org/2000/svg" viewBox="0 0 168.69 20.9">
  <defs>
    <style>
      .cls-1 {
        fill: #fff;
      }
    </style>
  </defs>
  <g id="_圖層_1-2" data-name="圖層 1">
    <g>
      <path class="cls-1" d="M27.26,20.62c.21-.62,.39-1.14,.57-1.65,2.11-6.01,4.22-12.03,6.32-18.04,.04-.11,.08-.22,.11-.32,.07-.22,.19-.32,.45-.32,1.46,.01,2.93,.01,4.39,0,.32,0,.43,.13,.54,.4,.62,1.65,1.26,3.28,1.89,4.93,1.82,4.71,3.63,9.42,5.45,14.13,.06,.15,.12,.29,.18,.44,.18-.04,.11-.18,.12-.26,.01-.34,0-.69,0-1.03,0-5.92,0-11.85,0-17.77,0-.95-.12-.83,.84-.83,3.98,0,7.96,0,11.94,0,.09,0,.18,0,.27,0,.52,0,.53-.03,.53,.53,0,.98,0,1.97,0,2.95,0,.17-.08,.25-.25,.25-.18,0-.37,0-.55,0-2.54,0-5.08,0-7.62,0-.18,0-.37,0-.55,0-.13,0-.2,.08-.21,.21,0,.07,0,.14,0,.21,0,1.26,0,2.52,0,3.77,0,.05,0,.09,0,.14,.02,.21,.08,.27,.31,.28,.18,0,.37,0,.55,0,2.52,0,5.03,0,7.55,0,.16,0,.32,0,.48,0,.25,0,.29,.03,.29,.27,0,.34,0,.69,0,1.03,0,.71,0,1.42,0,2.13,0,.23-.06,.29-.28,.3-.18,0-.37,0-.55,0-2.59,0-5.17,0-7.76,0-.64,0-.6-.01-.6,.59,0,2.36,0,4.71,0,7.07,0,.64,.04,.6-.58,.6-2.65,0-5.31,0-7.96,0-.09,0-.18,0-.27,0-.22,.02-.34-.1-.39-.3-.03-.11-.08-.21-.12-.32-1.68-4.64-3.35-9.28-5.03-13.92-.09-.24-.18-.47-.27-.7-.21,.07-.21,.25-.25,.39-.58,1.76-1.16,3.51-1.74,5.27-.98,2.99-1.96,5.99-2.94,8.98-.2,.62-.07,.6-.79,.6-1.19,0-2.38,0-3.57,0-.13,0-.27,0-.5,0Z"/>
      <path class="cls-1" d="M15.74,7.74c-.24,.14-.25,.37-.32,.55-.88,2.23-1.74,4.47-2.61,6.7-.65,1.68-1.31,3.36-1.96,5.04-.05,.13-.1,.26-.15,.38-.06,.14-.16,.21-.32,.2-.07,0-.14,0-.21,0-.85,0-1.69,0-2.54,0-.39,0-.46,.07-.64-.43-.51-1.47-1.04-2.93-1.56-4.39C3.89,11.45,2.34,7.1,.8,2.75,.57,2.11,.34,1.46,.11,.82,.06,.67-.02,.52,0,.36c.09-.11,.21-.08,.31-.08,1.19,0,2.38,0,3.57,0,.48,0,.49,0,.66,.49,.61,1.72,1.21,3.45,1.81,5.17,.77,2.2,1.54,4.4,2.31,6.6,.08,.23,.12,.48,.35,.7,.17-.42,.32-.8,.47-1.18,1.4-3.67,2.79-7.34,4.19-11.02,.06-.17,.15-.33,.2-.51,.05-.19,.16-.25,.35-.25,1.01,0,2.01,0,3.02,0,.13,0,.22,.05,.27,.17,.08,.19,.16,.38,.23,.57,1.48,3.88,2.96,7.77,4.45,11.65,.07,.19,.1,.4,.29,.55,.13-.1,.15-.26,.19-.4,1.38-3.97,2.76-7.94,4.13-11.91,.04-.13,.1-.26,.13-.39,.05-.19,.17-.25,.35-.25,1.35,0,2.7,0,4.06,0,.09,.2,0,.36-.06,.53-.59,1.68-1.19,3.36-1.78,5.04-1.67,4.71-3.34,9.43-5.01,14.14-.25,.71-.05,.63-.9,.63-.75,0-1.51,0-2.26,0-.58,0-.5,.06-.72-.51-.6-1.53-1.2-3.06-1.79-4.6-.95-2.42-1.9-4.85-2.85-7.27-.06-.16-.13-.32-.21-.5Z"/>
      <path class="cls-1" d="M63.64,10.44c0-3.18,0-6.36,0-9.53,0-.67-.03-.63,.64-.63,4.34,0,8.69,0,13.03,0,.11,0,.23,0,.34,0,.17,0,.24,.09,.24,.26,0,1.07,0,2.15,0,3.22,0,.17-.09,.25-.25,.24-.18,0-.37,0-.55,0-2.79,0-5.58,0-8.37,0-.74,0-.69-.07-.69,.71,0,1.1,0,2.19,0,3.29,0,.14,0,.27,.02,.41,0,.1,.07,.17,.17,.18,.23,.01,.46,.02,.68,.02,2.77,0,5.53,0,8.3,0,.75,0,.68-.09,.68,.71,0,.85,0,1.69,0,2.54,0,.47,0,.48-.51,.48-.96,0-1.92,0-2.88,0-1.9,0-3.8,0-5.69,0-.18,0-.37,0-.55,0-.13,0-.21,.07-.22,.21,0,.07,0,.14,0,.21,0,1.23,0,2.47,0,3.7,0,.4,.01,.41,.44,.42,.41,0,.82,0,1.23,0,2.49,0,4.99,0,7.48,0,.16,0,.32,0,.48,0,.26,.01,.31,.05,.31,.33,0,1.03,0,2.06,0,3.09,0,.23-.06,.28-.28,.29-.14,0-.27,0-.41,0-4.34,0-8.69,0-13.03,0-.67,0-.62,.02-.62-.64,0-3.18,0-6.36,0-9.53Z"/>
      <path class="cls-1" d="M156.32,9.26c.25-.1,.35-.28,.48-.43,2.2-2.63,4.4-5.26,6.6-7.89,.06-.07,.12-.14,.17-.21,.22-.33,.51-.46,.92-.45,1.26,.03,2.52,0,3.77,.01,.13,0,.27-.06,.41,.1-.62,.8-1.3,1.56-1.96,2.34-.66,.79-1.32,1.58-1.99,2.36-.66,.79-1.32,1.57-1.99,2.36-.66,.79-1.33,1.57-2.02,2.39,1.32,1.8,2.66,3.56,3.99,5.33,1.32,1.77,2.66,3.54,3.98,5.3-.06,.18-.19,.14-.29,.14-1.56,0-3.11,0-4.67,0-.34,0-.54-.12-.73-.38-1.44-1.98-2.89-3.95-4.33-5.92-.66-.9-1.33-1.81-1.99-2.71-.08-.11-.17-.21-.25-.3-.2,.13-.12,.31-.12,.45,0,2.68,0,5.35,0,8.03,0,.96,.13,.82-.84,.83-.96,0-1.92,0-2.88,0-.14,0-.27,0-.41,0-.21-.01-.26-.06-.27-.31,0-.14,0-.27,0-.41,0-5.35,0-10.7,0-16.05,0-.96,0-1.92,0-2.88,0-.16,0-.32,.01-.48,0-.1,.06-.17,.16-.18,.09-.01,.18-.02,.27-.02,1.17,0,2.33,0,3.5,0,.09,0,.18,0,.27,.01,.1,.01,.16,.08,.16,.18,0,.21,.01,.41,.01,.62,0,2.54,0,5.08,0,7.62,0,.17-.01,.35,.02,.55Z"/>
      <path class="cls-1" d="M149.07,15.03c0-.11,0-.23,0-.34,0-.13-.12-.19-.24-.13-.08,.04-.16,.08-.24,.13-.71,.37-1.42,.74-2.13,1.09-1.36,.66-2.8,.97-4.32,.86-2.48-.18-4.26-1.4-5.26-3.68-.48-1.09-.57-2.25-.41-3.43,.32-2.34,1.59-3.95,3.77-4.82,1.47-.58,2.99-.56,4.52-.21,1.26,.29,2.41,.83,3.52,1.48,.17,.1,.32,.26,.59,.25,0-1.42,0-2.83,0-4.25,0-.16-.1-.25-.22-.32-.4-.22-.79-.47-1.2-.66-1.09-.5-2.24-.77-3.43-.9-1.52-.17-3.01-.1-4.49,.25-4.29,1.03-6.69,4.59-7.31,7.36-.1,.44-.2,.89-.32,1.45-.31-2.29-1.17-4.2-2.6-5.86-1.1-1.27-2.41-2.23-4.02-2.76-2.08-.68-4.17-.72-6.28-.17-1.95,.5-3.52,1.6-4.79,3.14-2.13,2.6-2.8,5.59-2.31,8.87,.23,1.49,.78,2.86,1.63,4.11,.07,.11,.2,.2,.11,.4h-.73c-2.4,0-4.8,0-7.21,0-.96,0-.85,.12-.85-.83,0-4.99,0-9.97,0-14.96,0-.21,0-.41,0-.62,0-.13-.09-.2-.22-.21-.05,0-.09,0-.14,0-1.21,0-2.42,0-3.64,0-.37,0-.39,.03-.4,.38,0,.14,0,.27,0,.41,0,5.56,0,11.11,0,16.67,0,.82,0,1.65,0,2.47,0,.37,.03,.39,.39,.4,.11,0,.23,0,.34,0,4,0,8.01,0,12.01,0,.14,0,.27,0,.41,0,.28,0,.31-.04,.31-.32,0-.91,0-1.83,0-2.74,0-.1-.05-.23,.12-.32,2.84,3.38,6.48,4.28,10.67,3.3,2.87-.67,6.37-3.49,7.23-8.63,.02,.13,.04,.22,.05,.3,.24,1.55,.73,3.02,1.61,4.33,1.26,1.89,2.94,3.24,5.14,3.89,1.64,.49,3.32,.58,5.02,.37,1.77-.22,3.41-.82,4.96-1.68,.3-.17,.41-.37,.4-.71-.02-1.12,0-2.24,0-3.36Zm-22.37-1.38c-.9,1.91-2.47,2.93-4.62,2.99-.71,.02-1.41-.02-2.1-.25-1.63-.55-2.68-1.68-3.29-3.26-.32-.82-.43-1.55-.43-2.78-.03-.99,.14-2.05,.62-3.03,.6-1.24,1.49-2.18,2.8-2.67,1.49-.56,3-.55,4.47,.08,1.25,.54,2.14,1.49,2.65,2.74,.83,2.06,.85,4.16-.1,6.18Z"/>
      <path class="cls-1" d="M97.35,19.98c-.67-1.68-1.34-3.35-2.01-5.02-.24-.59-.48-1.18-.79-1.75-.4-.75-.86-1.46-1.56-1.98-.05-.04-.08-.11-.11-.17,.24-.15,.47-.3,.69-.46,1.09-.77,1.8-1.8,2.09-3.11,.29-1.33,.19-2.65-.38-3.89-.71-1.55-1.86-2.64-3.53-3.11-.58-.16-1.16-.22-1.76-.22-2.84,0-5.67,0-8.51,0-.86,0-.75-.1-.75,.78,0,6.29,0,12.58,0,18.86,0,.16,0,.32,0,.48,0,.14,.08,.2,.21,.21,.09,0,.18,0,.27,0,1.14,0,2.29,0,3.43,0,.09,0,.18,0,.27,0,.13-.01,.2-.09,.2-.22,0-.18,0-.37,0-.55,0-2.19,0-4.39,0-6.59,0-.18,0-.37,0-.55,.01-.29,.04-.32,.31-.33,.75,0,1.51,0,2.26,0,.56-.01,1.03,.19,1.44,.53,.34,.28,.6,.62,.85,.98,.59,.88,1.04,1.82,1.42,2.81,.45,1.17,.9,2.35,1.33,3.53,.1,.27,.2,.41,.53,.41,1.35-.02,2.7,0,4.05-.01,.07,0,.13-.03,.19-.04,.05-.23-.09-.41-.16-.59Zm-6.15-13.01c-.18,.79-.66,1.28-1.41,1.53-.26,.08-.53,.14-.81,.14-1.16,0-2.33,0-3.49,0-.32,0-.36-.04-.36-.35,0-1.32,0-2.65,0-3.97,0-.27,.04-.3,.33-.3,.62,0,1.23,0,1.85,0,.53,0,1.05,0,1.58,0,.35,0,.69,.06,1.01,.16,.68,.22,1.12,.67,1.29,1.38,.11,.47,.12,.94,.02,1.42Z"/>
    </g>
  </g>
</svg>