<?xml version="1.0" encoding="UTF-8"?>
<svg id="_圖層_2" data-name="圖層 2" xmlns="http://www.w3.org/2000/svg" viewBox="0 0 139.29 21">
  <defs>
    <style>
      .cls-1 {
        fill: #fff;
      }
    </style>
  </defs>
  <g id="_圖層_1-2" data-name="圖層 1">
    <g>
      <path class="cls-1" d="M9.23,20.84c-2.52,0-5.04-.04-7.56,.02-.86,.02-1.13-.21-1.12-1.09,.03-2.28-.02-2.28,2.32-2.28,3.76,0,7.52,.01,11.28,0,1.87,0,2.63-.67,2.63-2.2,0-1.74-.93-2.67-2.7-2.67-2.83,0-5.66,.04-8.49-.01C2.54,12.54,.35,10.39,.04,7.26-.29,3.8,1.34,1.05,4.2,.32c.42-.11,.87-.15,1.31-.15,4.33-.01,8.67,.02,13-.03,.93-.01,1.19,.23,1.16,1.16-.06,2.23,0,2.23-2.23,2.23-3.63,0-7.25,0-10.88,0-1.73,0-1.92,.17-2.16,1.92-.3,2.11,.41,2.95,2.47,2.95,2.92,0,5.84,0,8.76,0,2.62,0,4.49,1.26,5.52,3.6,1.05,2.39,1.08,4.82-.56,7.01-.96,1.27-2.35,1.83-3.94,1.83-2.48,0-4.95,0-7.43,0v-.02Z"/>
      <path class="cls-1" d="M89.72,8.04c-.25,2.48,.44,5.49-.44,8.45-.68,2.31-2.18,3.68-4.63,3.84-3.4,.22-6.81,.04-10.21-.05-2.82-.07-4.79-2.77-5.59-5.3-.59-1.88-.69-3.8-.66-5.75,.05-2.7,.03-5.39,0-8.09,0-.69,.08-1.07,.91-.99,1.35,.13,3.11-.56,3.93,.29,.65,.67,.21,2.43,.21,3.7,.01,2.7,0,5.39,0,8.09,0,.62,.03,1.24,.12,1.85,.13,.98,.6,1.49,1.72,1.58,2.61,.21,5.21,.16,7.82,.14,1.52,0,2.07-.57,2.44-2.09,.16-.65,.2-1.31,.2-1.97,0-3.49,.02-6.99-.02-10.48,0-.79,.1-1.14,1.04-1.13,3.15,.03,3.15-.02,3.15,3.15v4.75Z"/>
      <path class="cls-1" d="M52.59,11.92c0,2.38-.04,5.06,.02,7.74,.02,.89-.18,1.21-1.15,1.2-3.08-.03-3.08,.01-3.08-3.1,0-5.48,.02-10.96-.02-16.45,0-.9,.17-1.2,1.14-1.19,3.09,.04,3.09,0,3.09,3.06,0,1.41,0,2.82,0,4.23,.09,.08,.19,.16,.28,.23,1.22-1.29,2.43-2.59,3.67-3.85,1.21-1.23,2.26-2.9,3.73-3.48,1.53-.61,3.49-.15,5.25-.16,.13,0,.26,.02,.6,.05-1.47,1.66-2.84,3.23-4.22,4.79-1.11,1.26-2.19,2.55-3.37,3.74-.74,.74-.65,1.25,0,1.98,2.91,3.26,5.77,6.57,8.86,10.09-1.93,0-3.62,.04-5.3-.03-.31-.01-.61-.46-.89-.73-2.9-2.73-5.79-5.46-8.62-8.14Z"/>
      <path class="cls-1" d="M130.98,3.72c-1.3-3.05-3.04-4.11-6.14-3.59-.64,.11-1.01,.24-1.29,.83-1.03,2.19-2.11,4.36-3.17,6.54-1.82,3.74-3.64,7.47-5.54,11.36-1.72-2.2-3.33-4.27-4.99-6.4,.52-.17,.9-.27,1.27-.41,2.69-1.04,4.35-4.08,3.81-6.99-.59-3.2-2.63-4.89-5.9-4.89-4.74,0-9.47,.03-14.21-.02-.95-.01-1.15,.28-1.14,1.18,.04,5.62,.02,11.23,.02,16.85,0,2.7,0,2.62,2.76,2.73,1.28,.05,1.6-.29,1.58-1.57-.09-4.91-.04-9.82-.03-14.73,0-.46-.26-1.09,.67-1.08,3.19,.04,6.37,.02,9.56,.03,.84,0,1.39,.43,1.78,1.15,.98,1.83-.04,3.64-2.17,3.68-2.52,.05-5.04,.01-7.73,.01,.13,.26,.16,.38,.23,.48,3.04,3.79,6.09,7.58,9.12,11.38,.4,.51,.86,.64,1.48,.63,2.52-.03,5.05-.04,7.57,0,.71,.01,1.1-.16,1.39-.86,.48-1.18,1.14-2.28,1.66-3.45,.24-.53,.55-.7,1.11-.69,1.59,.03,3.19,0,4.78,.01,1.46,0,3.18-.44,4.31,.17,1.19,.65,1.41,2.53,2.1,3.85,.06,.12,.14,.23,.18,.35,.14,.44,.42,.61,.89,.6,1.39-.02,2.78,0,4.33,0-2.86-5.82-5.86-11.37-8.32-17.14Zm-6.79,8.72c-.77,0-.42-.5-.29-.81,.88-2.15,1.79-4.29,2.82-6.74,1.17,2.62,2.22,4.97,3.37,7.56-2.09,0-4,0-5.9,0Z"/>
      <path class="cls-1" d="M38.71,3.76c-.58-1.18-.93-2.81-1.89-3.38-1.02-.6-2.65-.15-4.01-.23-.76-.05-1.14,.2-1.47,.92-2.41,5.28-4.87,10.54-7.31,15.8-.6,1.29-1.17,2.59-1.76,3.91,1.79,0,3.7,.52,4.96-.16,1.07-.57,1.43-2.51,2.05-3.87,.29-.65,.67-.89,1.41-.88,2.7,.05,5.4,.07,8.09,0,.97-.03,1.39,.36,1.78,1.16,.62,1.29,.84,3.12,2.04,3.69,1.19,.56,2.86,.12,4.5,.12-2.85-5.8-5.61-11.44-8.39-17.08Zm-6.55,8.69c-.57,0-.71-.16-.45-.69,.98-2,1.94-4.01,2.97-6.14,1.09,2.31,2.11,4.47,3.22,6.82-2.05,0-3.89-.01-5.73,0Z"/>
    </g>
  </g>
</svg>