<?xml version="1.0" encoding="UTF-8"?>
<svg id="_圖層_2" data-name="圖層 2" xmlns="http://www.w3.org/2000/svg" xmlns:xlink="http://www.w3.org/1999/xlink" viewBox="0 0 108.9 104">
  <defs>
    <style>
      .cls-1 {
        fill: #c69c6d;
      }

      .cls-1, .cls-2 {
        font-family: NotoSerifTC-SemiBold-90ms-RKSJ-H, 'Noto Serif TC';
        font-size: 30.19px;
        letter-spacing: .1em;
      }

      .cls-2 {
        fill: #e6e6e6;
      }

      .cls-3 {
        stroke: url(#_未命名漸層_55-2);
      }

      .cls-3, .cls-4 {
        fill: none;
        stroke-miterlimit: 10;
      }

      .cls-5 {
        fill: url(#_未命名漸層_62);
      }

      .cls-6 {
        font-family: MinionConceptRoman-Medium, 'Minion Variable Concept';
        font-size: 69px;
        font-variation-settings: 'wght' 500, 'opsz' 11;
        letter-spacing: .05em;
      }

      .cls-4 {
        stroke: url(#_未命名漸層_55);
      }
    </style>
    <linearGradient id="_未命名漸層_55" data-name="未命名漸層 55" x1="18" y1="77.6" x2="78.69" y2="77.6" gradientUnits="userSpaceOnUse">
      <stop offset="0" stop-color="#97673f"/>
      <stop offset=".2" stop-color="#fad787"/>
      <stop offset=".72" stop-color="#97673f"/>
    </linearGradient>
    <linearGradient id="_未命名漸層_55-2" data-name="未命名漸層 55" x1="18.36" y1="21.81" x2="97.45" y2="21.81" xlink:href="#_未命名漸層_55"/>
    <linearGradient id="_未命名漸層_62" data-name="未命名漸層 62" x1="-7.81" y1="44.51" x2="55.96" y2="44.51" gradientUnits="userSpaceOnUse">
      <stop offset=".01" stop-color="#97673f"/>
      <stop offset=".53" stop-color="#fad787"/>
    </linearGradient>
  </defs>
  <g id="_圖層_2-2" data-name="圖層 2">
    <g>
      <path class="cls-4" d="M78.4,79.07c-6.97,4.84-15.44,7.68-24.58,7.68-14.67,0-27.63-7.32-35.42-18.52"/>
      <path class="cls-3" d="M18.76,18.51C26.59,7.61,39.38,.5,53.83,.5c21.35,0,39.07,15.51,42.52,35.88,.4,2.35,.61,4.77,.61,7.24"/>
      <g>
        <text class="cls-6" transform="translate(0 66)"><tspan x="0" y="0">53</tspan></text>
        <g>
          <path class="cls-5" d="M28.57,23.01l.41,.58-1.87,4.96H11.01c-.62,3.65-1.52,8.88-2.15,12.16,2.77-1.02,6.58-2.03,8.33-2.03,8.56,0,13.08,5.94,13.08,11.71,0,4.17-1.78,8.2-6.11,11.65-3.81,2.99-8.63,4.78-12.37,4.78-3.16,0-5.78-1.25-7.2-2.62-1.05-.93-1.33-1.51-1.22-2.42,0-.71,.61-1.85,1.57-2.58,.66-.44,1.33-.54,2.07,.07,1.94,1.73,4.45,3.88,8.76,3.88,5.52,0,8.15-4.76,8.15-9.89,0-6.1-3.72-10.39-11.14-10.39-2.88,0-5.16,.63-6.95,1.23l-.23-.3c1.1-5.54,2.64-15.11,3.44-20.79H28.57Z"/>
          <path class="cls-5" d="M40.96,30.58l3.28-4.38c1.99-2.21,5.19-4.01,9.1-4.01,6.45,0,10.58,4.03,10.58,9.25,0,2.03-.91,3.74-2.18,5.08-1.13,1.16-2.91,2.4-4.97,3.73,6.54,1.39,10.35,5.54,10.35,10.6-.01,11.2-13.6,15.98-18.41,15.98-3.28,0-6.22-1.33-7.26-2.39-.9-.91-1.15-1.58-1.15-2.38,.06-1.14,.97-2.25,1.64-2.76,.61-.46,1.3-.5,1.98,.08,1.8,1.61,4.66,3.81,8.63,3.81,4.71,0,8.08-3.51,8.08-10.16-.06-6.36-4.72-8.84-9.02-8.84-1.54,0-3.39,.36-4.47,.7l-.48-2.13c6.18-2.03,10.9-4.7,10.9-9.73,0-4.12-2.66-6.41-6.49-6.41s-6.66,2.68-8.58,5.41l-1.52-1.45Z"/>
        </g>
      </g>
      <g>
        <text class="cls-2" transform="translate(75.69 72.4)"><tspan x="0" y="0">席</tspan></text>
        <text class="cls-1" transform="translate(75.69 72.4)"><tspan x="0" y="0">席</tspan></text>
      </g>
    </g>
  </g>
</svg>