<?xml version="1.0" encoding="UTF-8"?>
<svg id="_圖層_2" data-name="圖層 2" xmlns="http://www.w3.org/2000/svg" viewBox="0 0 91.77 21.1">
  <defs>
    <style>
      .cls-1 {
        fill: #fff;
      }
    </style>
  </defs>
  <g id="_圖層_1-2" data-name="圖層 1">
    <g>
      <path class="cls-1" d="M57.22,1.02c3.24,0,6.49,.02,9.73-.01,.64,0,.87,.15,.86,.82-.04,1.97-.02,3.95,.02,5.92,.01,.55-.1,.81-.72,.75-.65-.06-1.45,.19-1.94-.11-.44-.27-.27-1.14-.38-1.74-.37-2.01-2.79-3.49-4.67-2.89-.31,.1-.27,.3-.27,.5-.04,4.33-.06,8.65-.11,12.98,0,.48,.25,.49,.59,.48,.94-.01,1.89,.02,2.83-.02,.46-.02,.57,.14,.59,.59,.1,2.19,.12,2.2-2.03,2.19-3.43-.02-6.86-.07-10.29-.07-.61,0-.8-.15-.8-.78,.01-1.91-.02-1.91,1.91-1.91q2.06,0,2.06-2.01c0-3.73-.02-7.46,.02-11.19,0-.67-.18-.82-.85-.79-2.85,.14-4.11,1.31-4.27,4.15-.03,.52-.21,.6-.67,.61-2.16,.06-2.16,.07-2.17-2.04,0-1.54,.01-3.07-.07-4.61-.04-.74,.21-.88,.89-.87,3.24,.03,6.49,.02,9.73,.02v.02Z"/>
      <path class="cls-1" d="M10.67,1.13c3.24,0,6.48,.02,9.72-.01,.63,0,.78,.19,.78,.79-.02,1.97,0,3.95,.06,5.92,.02,.58-.15,.78-.73,.73-.63-.05-1.33,.16-1.87-.07-.65-.28-.25-1.1-.39-1.68-.52-2.12-2.64-3.5-4.71-3.01-.39,.09-.31,.33-.31,.56,0,4.29,0,8.58-.03,12.88,0,.51,.23,.55,.63,.54,.91-.03,1.83,0,2.74-.03,.43-.01,.59,.11,.62,.57,.13,2.23,.15,2.23-2.06,2.23-3.4,0-6.8-.03-10.2,0-.64,0-.86-.15-.86-.83,.01-1.93-.02-1.93,1.91-1.93s1.99,0,2-1.99c.02-3.73,.01-7.46,.06-11.18,0-.66-.15-.85-.82-.81-2.31,.14-4.12,.97-4.25,3.96-.03,.65-.25,.82-.89,.81-1.95-.02-1.95,0-1.99-1.96C.05,5.04,.07,3.47,0,1.9c-.03-.68,.21-.83,.85-.83,3.27,.03,6.55,.01,9.82,.01,0,.01,0,.02,0,.04Z"/>
      <path class="cls-1" d="M38.17,.69c-2.26-.65-4.57-.82-6.9-.42-3.12,.54-5.79,1.84-7.54,4.61-2.96,4.69-1.63,14.18,6.85,15.87,2.42,.48,4.81,.49,7.19-.12,4.74-1.2,7.38-4.93,7.39-10.32,0-4.87-2.48-8.31-6.98-9.62Zm.74,13.7c-.58,2.14-2.55,3.59-4.92,3.65-2.33,.06-4.65-1.52-5.29-3.63-.39-1.29-.65-2.61-.58-4.03-.1-1.28,.21-2.55,.61-3.81,.6-1.87,2.04-2.81,3.88-3.12,1.11-.19,2.25-.14,3.36,.21,2.12,.67,3.02,2.24,3.35,4.32,.35,2.17,.17,4.3-.4,6.4Z"/>
      <path class="cls-1" d="M85.04,.71c-2.4-.77-4.86-.91-7.34-.47-3.86,.68-6.96,2.47-8.2,6.38-1.26,3.97-.71,7.75,2.1,10.96,2.31,2.64,5.45,3.4,8.83,3.4,.28,0,.57,.01,.85,0,3.88-.19,7.18-1.44,9.16-5.05,.95-1.74,1.26-3.65,1.32-5.6,.14-4.61-2.39-8.24-6.72-9.63Zm.5,13.33c-.6,2.32-2.41,3.81-4.7,3.89-2.61,.1-4.88-1.32-5.59-3.59-.8-2.57-.86-5.16,.02-7.73,.79-2.3,3.3-3.75,5.77-3.33,1.12,.19,2.2,.46,3.12,1.19,1.43,1.12,1.6,2.76,1.82,4.37,.06,.46,0,.94,0,1.41,.08,1.29-.11,2.55-.44,3.8Z"/>
    </g>
  </g>
</svg>