<?xml version="1.0" encoding="UTF-8"?>
<svg id="_圖層_2" data-name="圖層 2" xmlns="http://www.w3.org/2000/svg" viewBox="0 0 69.07 69.07">
  <defs>
    <style>
      .cls-1 {
        fill: #fff;
        fill-rule: evenodd;
      }
    </style>
  </defs>
  <g id="_圖層_1-2" data-name="圖層 1">
    <path class="cls-1" d="M52.04,22.18v-5.15h-5.15c-1.41,0-2.7,.58-3.63,1.51h0c-.93,.93-1.51,2.22-1.51,3.63v5.15h5.15c1.42,0,2.7-.58,3.64-1.51h0c.93-.94,1.51-2.22,1.51-3.64m-5.15,29.86h5.15v-5.15c0-1.41-.58-2.7-1.51-3.63h0c-.93-.93-2.22-1.51-3.64-1.51h-5.15v5.15c0,1.42,.58,2.7,1.51,3.64h0c.93,.93,2.22,1.51,3.63,1.51Zm-19.57-5.14v-5.15h-5.15c-1.41,0-2.7,.58-3.63,1.51h0c-.93,.93-1.51,2.22-1.51,3.63v5.15h5.15c1.42,0,2.7-.58,3.64-1.51h0c.93-.94,1.51-2.22,1.51-3.64Zm-5.15-19.57h5.15v-5.15c0-1.41-.58-2.7-1.51-3.63h0c-.93-.93-2.22-1.51-3.64-1.51h-5.15v5.15c0,1.42,.58,2.7,1.51,3.64h0c.93,.93,2.22,1.51,3.63,1.51ZM34.54,7.87c1.29,0,2.33,1.05,2.33,2.33,0,.92-.53,1.71-1.3,2.09v4.15l2.6-2.6c1-1,1.5-2.32,1.5-3.64s-.5-2.64-1.5-3.64l-3.64-3.64-3.64,3.64c-1,1-1.5,2.32-1.5,3.64,0,1.32,.5,2.64,1.5,3.64l2.6,2.6v-4.15c-.77-.38-1.3-1.18-1.3-2.09,0-1.29,1.05-2.33,2.33-2.33Zm26.67,26.67c0,1.29-1.04,2.33-2.33,2.33-.92,0-1.71-.53-2.09-1.3h-4.15l2.6,2.6c1,1,2.32,1.5,3.64,1.5s2.64-.5,3.64-1.5l3.64-3.64-3.64-3.64c-1-1-2.32-1.5-3.64-1.5-1.32,0-2.64,.5-3.64,1.5l-2.6,2.6h4.15c.38-.77,1.18-1.3,2.09-1.3,1.29,0,2.33,1.04,2.33,2.33Zm-25.63,22.24c.77,.38,1.3,1.17,1.3,2.09,0,1.29-1.04,2.33-2.33,2.33s-2.33-1.05-2.33-2.33c0-.92,.53-1.71,1.3-2.09v-4.15l-2.6,2.6c-1,1-1.5,2.32-1.5,3.64h0c0,1.32,.5,2.64,1.5,3.64l3.64,3.64,3.64-3.64c1-1,1.5-2.32,1.5-3.64s-.5-2.64-1.5-3.64l-2.6-2.6v4.15ZM12.3,35.57c-.38,.77-1.17,1.3-2.09,1.3-1.29,0-2.33-1.04-2.33-2.33s1.04-2.33,2.33-2.33c.92,0,1.71,.53,2.09,1.3h4.15l-2.6-2.6c-1-1-2.32-1.5-3.64-1.5h0c-1.32,0-2.64,.5-3.64,1.5l-3.64,3.64,3.64,3.64c1,1,2.32,1.5,3.64,1.5s2.64-.5,3.64-1.5l2.6-2.6h-4.15ZM54.11,16v6.18c0,1.99-.81,3.79-2.12,5.1h0c-1.31,1.3-3.11,2.12-5.09,2.12h-11.33v4.11h14.13l4.07-4.07c1.4-1.4,3.25-2.11,5.1-2.11s3.7,.7,5.1,2.11l5.1,5.1-.73,.73-4.37,4.37c-1.4,1.4-3.25,2.11-5.1,2.11s-3.7-.7-5.1-2.11l-4.07-4.07h-7.95v4.11h5.15c1.98,0,3.78,.81,5.09,2.12h0c1.31,1.3,2.12,3.11,2.12,5.09v7.22h-7.21c-1.99,0-3.79-.81-5.1-2.12h0c-1.31-1.31-2.12-3.12-2.12-5.1v-11.33h-4.11v14.13l4.07,4.07c1.4,1.4,2.11,3.25,2.11,5.1s-.7,3.7-2.11,5.1l-5.1,5.1-5.1-5.1c-1.4-1.4-2.11-3.25-2.11-5.1,0-1.85,.7-3.7,2.11-5.1l4.07-4.07v-7.95h-4.11v5.15c0,1.99-.81,3.79-2.12,5.1h0c-1.31,1.3-3.11,2.12-5.09,2.12h-7.21v-7.21c0-1.98,.81-3.79,2.12-5.09h0c1.31-1.31,3.11-2.12,5.1-2.12h7.21s4.11,0,4.11,0v-4.11h-14.13l-4.07,4.07c-1.4,1.4-3.25,2.11-5.1,2.11s-3.7-.7-5.1-2.11L0,34.54l5.1-5.1c1.4-1.4,3.25-2.11,5.1-2.11,1.85,0,3.7,.7,5.1,2.11l4.07,4.07h7.95v-4.11h-5.15c-1.98,0-3.79-.81-5.1-2.12h0c-1.31-1.31-2.12-3.12-2.12-5.1v-7.22h7.21c1.98,0,3.78,.81,5.09,2.12h0c1.31,1.3,2.12,3.11,2.12,5.09v11.33h4.11v-14.13l-4.07-4.07c-1.4-1.4-2.11-3.25-2.11-5.1s.7-3.7,2.11-5.1L34.54,0l.73,.73,4.37,4.37c1.4,1.4,2.11,3.25,2.11,5.1s-.7,3.7-2.11,5.1l-4.07,4.07v7.95h4.11v-5.15c0-1.98,.81-3.78,2.12-5.09h0c1.31-1.31,3.11-2.12,5.1-2.12h7.21v1.04Z"/>
  </g>
</svg>