<?xml version="1.0" encoding="UTF-8"?>
<svg id="_圖層_2" data-name="圖層 2" xmlns="http://www.w3.org/2000/svg" viewBox="0 0 85.19 25">
  <defs>
    <style>
      .cls-1, .cls-2 {
        fill: #fff;
      }

      .cls-2 {
        fill-rule: evenodd;
      }
    </style>
  </defs>
  <g id="_圖層_1-2" data-name="圖層 1">
    <g>
      <polygon class="cls-1" points="73.12 5.07 70.94 11.34 74.4 11.34 74.4 24.54 81.48 24.54 81.48 11.34 85.19 11.34 85.19 5.07 73.12 5.07"/>
      <polygon class="cls-2" points="65.09 5.05 62.08 13.63 59.79 5.05 54.46 5.05 52.17 13.63 49.15 5.05 41.96 5.05 48.75 24.52 54.6 24.52 57.12 15.05 59.64 24.52 65.5 24.52 72.29 5.05 65.09 5.05"/>
      <path class="cls-2" d="M39.62,14.53c1.45-.91,2.41-2.51,2.41-4.35,0-2.83-2.3-5.13-5.13-5.13h-10.6V24.51h0s11.64,.01,11.64,.01c2.84,0,5.14-2.3,5.14-5.14,0-2.25-1.45-4.16-3.46-4.86m-7.38-4.65h1.9c.56,0,1.02,.59,1.02,1.31s-.46,1.31-1.02,1.31h-1.9v-2.62Zm2.9,10.37h-2.88v-2.85h2.88c.63,0,1.14,.64,1.14,1.42s-.51,1.42-1.14,1.42"/>
      <path class="cls-2" d="M17.63,7.73h0S3.86,0,3.86,0V2.45L0,.4V15.91c0,5.02,4.07,9.09,9.09,9.09,1.02,0,2-.17,2.92-.48,.38,.05,.77,.08,1.16,.08,4.98,0,9.02-4.04,9.02-9.02,0-3.36-1.84-6.29-4.57-7.84m-8.53,15.88c-4.26,0-7.71-3.45-7.71-7.71V2.66l4.3,2.39V15.91c0,1.88,1.53,3.41,3.41,3.41s3.41-1.53,3.41-3.41c0-1.55-1.04-2.86-2.45-3.27v-4.38c3.81,.47,6.75,3.72,6.75,7.65,0,4.26-3.45,7.71-7.71,7.71"/>
    </g>
  </g>
</svg>