<?xml version="1.0" encoding="UTF-8"?>
<svg id="_圖層_2" data-name="圖層 2" xmlns="http://www.w3.org/2000/svg" viewBox="0 0 621.41 347.54">
  <defs>
    <style>
      .cls-1, .cls-2 {
        fill: #fff;
      }

      .cls-2 {
        fill-rule: evenodd;
      }
    </style>
  </defs>
  <g id="_圖層_1-2" data-name="圖層 1">
    <g>
      <g>
        <path class="cls-1" d="M224.81,100c1.98,1.7,3.89,3.56,5.74,5.6v-8.15h4.25v9.84l4.25-6.79,1.7,1.02-5.95,7.81v2.04h4.67v1.7h-2.12v11.54c3.4-2.6,5.52-6.22,6.37-10.86h2.12v-5.43c-.99,1.7-2.69,3.17-5.1,4.41,.28-1.02,0-2.15-.85-3.39,3.68-.57,5.66-1.7,5.95-3.4v-5.09h-5.1v-1.7h5.1v-1.7h3.82v10.86c3.54,0,5.52-1.13,5.95-3.39v-4.07h-4.67v-1.7h4.67v-1.7h3.82v16.29h-3.82v-6.79c-.85,2.26-2.41,3.85-4.67,4.75,.42-1.24,0-2.26-1.28-3.06v5.43h-1.7c-.14,.79-.85,2.04-2.13,3.73h6.8c-.14-.45-.71-1.87-1.7-4.24l.21-.17c.14,.11,.42,.23,.85,.34,1.7,.79,2.76,1.36,3.19,1.7-.29,1.13-.71,1.93-1.28,2.38h6.8v1.7h-5.52v4.07h4.67v1.7h-4.67v3.73h5.1v1.7h-5.1v4.41h5.52v1.7h-14.02v2.72h-3.82v-18.33c-.14,.11-.36,.34-.64,.68-1.56,1.59-2.84,2.6-3.82,3.06h-1.06v7.81c1.27-.56,2.48-1.41,3.61-2.55h.21c-1.27,3.96-3.9,6.51-7.86,7.64,.28-1.47,0-2.89-.85-4.24h1.27v-20.54h-2.13v16.97c0,2.49-1.49,5.2-4.46,8.15-.29,.45-.57,.79-.85,1.02h-1.7c2.26-2.26,3.4-4.53,3.4-6.79v-19.35h-3.82v-1.7h6.37v-3.73l-1.91,1.7c-1.42-2.26-2.76-5.32-4.04-9.17l.21-.17Zm19.34,4.75c-.42,1.02-.99,1.76-1.7,2.21-.57-1.24-.99-2.66-1.28-4.24l.21-.17c1.41,.91,2.34,1.64,2.76,2.21Zm2.76,14.77v4.07h4.25v-4.07h-4.25Zm0,5.77v3.73h4.25v-3.73h-4.25Zm4.25,5.43h-4.25v4.41h4.25v-4.41Zm2.76-26.48c-.14,1.25-.57,2.15-1.27,2.72-.57-.68-1.14-2.21-1.7-4.58l.21-.17c1.13,.57,2.05,1.25,2.76,2.04Z"/>
        <path class="cls-1" d="M276.1,112.35h-6.65c.28-.58,.28-1.16,0-1.74h6.65v-2.44h4.15v10.61c0,5.1-2.77,11.19-8.31,18.26-.41,.58-.76,1.04-1.04,1.39h-1.45c4.15-4.75,6.37-10.78,6.65-18.09v-8Zm-2.49-12v-1.74h27.82l1.66-1.22v3.31l-6.23,2.78v5.04c0,1.86,.28,4.58,.83,8.18-.41-2.55-.41-2.38,0,.52l5.4-8.7,2.08,.7-7.06,10.09c1.66,6.15,4.29,10.32,7.89,12.52-1.39,1.97-1.66,4.06-.83,6.26-6.65-3.48-9.83-13.22-9.55-29.22v-4.87l-6.64,2.78h1.25v4.17h4.15v1.74h-4.15v5.22h3.74v1.74h-3.74v5.91h4.98v1.74h-4.98v6.96c0,2.43-2.42,4.17-7.27,5.22,0-.35-.28-.58-.83-.7l-2.28,.35-.41-.35c4.29-1.04,6.5-2.67,6.64-4.87v-6.61h-5.4v-1.74h5.4v-5.91h-4.15v-1.74h4.15v-5.22h-3.74v-1.74h3.74v-3.48h-2.49l15.78-7.13h-25.75Z"/>
        <path class="cls-1" d="M314.5,121.4v-2.92h36.03v2.92h-36.03Z"/>
        <path class="cls-1" d="M360.75,139.58v-19.67h4.62v2.13h6.47v-2.13h4.62v19.36h-4.62v-2.44h-6.47v2.74h-4.62Zm4.62-16.01v11.74h6.47v-11.74h-6.47Zm21.25-7.32h-14.78v2.13h-4.62v-18.08h4.62v1.83h14.78v-1.83h4.62v18.08h-4.62v-2.13Zm-14.78-1.52h14.78v-11.07h-14.78v11.07Zm13.86,24.85h-4.62v-19.67h4.62v2.13h6.93v-2.13h4.62v19.06h-4.62v-2.13h-6.93v2.74Zm0-4.27h6.93v-11.74h-6.93v11.74Z"/>
      </g>
      <path class="cls-2" d="M328.21,22.18v-5.15h-5.15c-1.41,0-2.7,.58-3.63,1.51h0c-.93,.93-1.51,2.22-1.51,3.63v5.15h5.15c1.42,0,2.7-.58,3.64-1.51h0c.93-.94,1.51-2.22,1.51-3.64m-5.15,29.86h5.15v-5.15c0-1.41-.58-2.7-1.51-3.63h0c-.93-.93-2.22-1.51-3.64-1.51h-5.15v5.15c0,1.42,.58,2.7,1.51,3.64h0c.93,.93,2.22,1.51,3.63,1.51Zm-19.57-5.14v-5.15h-5.15c-1.41,0-2.7,.58-3.63,1.51h0c-.93,.93-1.51,2.22-1.51,3.63v5.15h5.15c1.42,0,2.7-.58,3.64-1.51h0c.93-.94,1.51-2.22,1.51-3.64Zm-5.15-19.57h5.15v-5.15c0-1.41-.58-2.7-1.51-3.63h0c-.93-.93-2.22-1.51-3.64-1.51h-5.15v5.15c0,1.42,.58,2.7,1.51,3.64h0c.93,.93,2.22,1.51,3.63,1.51Zm12.36-19.45c1.29,0,2.33,1.05,2.33,2.33,0,.92-.53,1.71-1.3,2.09v4.15l2.6-2.6c1-1,1.5-2.32,1.5-3.64s-.5-2.64-1.5-3.64l-3.64-3.64-3.64,3.64c-1,1-1.5,2.32-1.5,3.64,0,1.32,.5,2.64,1.5,3.64l2.6,2.6v-4.15c-.77-.38-1.3-1.18-1.3-2.09,0-1.29,1.05-2.33,2.33-2.33Zm26.67,26.67c0,1.29-1.04,2.33-2.33,2.33-.92,0-1.71-.53-2.09-1.3h-4.15l2.6,2.6c1,1,2.32,1.5,3.64,1.5s2.64-.5,3.64-1.5l3.64-3.64-3.64-3.64c-1-1-2.32-1.5-3.64-1.5-1.32,0-2.64,.5-3.64,1.5l-2.6,2.6h4.15c.38-.77,1.18-1.3,2.09-1.3,1.29,0,2.33,1.04,2.33,2.33Zm-25.63,22.24c.77,.38,1.3,1.17,1.3,2.09,0,1.29-1.04,2.33-2.33,2.33s-2.33-1.05-2.33-2.33c0-.92,.53-1.71,1.3-2.09v-4.15l-2.6,2.6c-1,1-1.5,2.32-1.5,3.64h0c0,1.32,.5,2.64,1.5,3.64l3.64,3.64,3.64-3.64c1-1,1.5-2.32,1.5-3.64s-.5-2.64-1.5-3.64l-2.6-2.6v4.15Zm-23.27-21.21c-.38,.77-1.17,1.3-2.09,1.3-1.29,0-2.33-1.04-2.33-2.33s1.04-2.33,2.33-2.33c.92,0,1.71,.53,2.09,1.3h4.15l-2.6-2.6c-1-1-2.32-1.5-3.64-1.5h0c-1.32,0-2.64,.5-3.64,1.5l-3.64,3.64,3.64,3.64c1,1,2.32,1.5,3.64,1.5s2.64-.5,3.64-1.5l2.6-2.6h-4.15Zm41.81-19.58v6.18c0,1.99-.81,3.79-2.12,5.1h0c-1.31,1.3-3.11,2.12-5.09,2.12h-11.33v4.11h14.13l4.07-4.07c1.4-1.4,3.25-2.11,5.1-2.11s3.7,.7,5.1,2.11l5.1,5.1-.73,.73-4.37,4.37c-1.4,1.4-3.25,2.11-5.1,2.11s-3.7-.7-5.1-2.11l-4.07-4.07h-7.95v4.11h5.15c1.98,0,3.78,.81,5.09,2.12h0c1.31,1.3,2.12,3.11,2.12,5.09v7.22h-7.21c-1.99,0-3.79-.81-5.1-2.12h0c-1.31-1.31-2.12-3.12-2.12-5.1v-11.33h-4.11v14.13l4.07,4.07c1.4,1.4,2.11,3.25,2.11,5.1s-.7,3.7-2.11,5.1l-5.1,5.1-5.1-5.1c-1.4-1.4-2.11-3.25-2.11-5.1,0-1.85,.7-3.7,2.11-5.1l4.07-4.07v-7.95h-4.11v5.15c0,1.99-.81,3.79-2.12,5.1h0c-1.31,1.3-3.11,2.12-5.09,2.12h-7.21v-7.21c0-1.98,.81-3.79,2.12-5.09h0c1.31-1.31,3.11-2.12,5.1-2.12h7.21s4.11,0,4.11,0v-4.11h-14.13l-4.07,4.07c-1.4,1.4-3.25,2.11-5.1,2.11s-3.7-.7-5.1-2.11l-5.1-5.1,5.1-5.1c1.4-1.4,3.25-2.11,5.1-2.11,1.85,0,3.7,.7,5.1,2.11l4.07,4.07h7.95v-4.11h-5.15c-1.98,0-3.79-.81-5.1-2.12h0c-1.31-1.31-2.12-3.12-2.12-5.1v-7.22h7.21c1.98,0,3.78,.81,5.09,2.12h0c1.31,1.3,2.12,3.11,2.12,5.09v11.33h4.11v-14.13l-4.07-4.07c-1.4-1.4-2.11-3.25-2.11-5.1s.7-3.7,2.11-5.1l5.1-5.1,.73,.73,4.37,4.37c1.4,1.4,2.11,3.25,2.11,5.1s-.7,3.7-2.11,5.1l-4.07,4.07v7.95h4.11v-5.15c0-1.98,.81-3.78,2.12-5.09h0c1.31-1.31,3.11-2.12,5.1-2.12h7.21v1.04Z"/>
      <g>
        <path class="cls-1" d="M0,216.11c0-.24,.06-.36,.18-.36,1.48,0,2.56-.1,3.24-.3,.68-.2,1.15-.59,1.41-1.17,.26-.58,.39-1.47,.39-2.67v-27.78c0-1.2-.12-2.08-.36-2.64-.24-.56-.69-.95-1.35-1.17-.66-.22-1.71-.33-3.15-.33-.12,0-.18-.12-.18-.36s.06-.36,.18-.36H24.84c.4,0,.6,.18,.6,.54l.12,7.56c0,.12-.11,.19-.33,.21-.22,.02-.35-.03-.39-.15-.28-2.2-1.06-3.88-2.34-5.04-1.28-1.16-2.96-1.74-5.04-1.74h-3.06c-1.72,0-2.89,.25-3.51,.75-.62,.5-.93,1.43-.93,2.79v27.48c0,1.28,.17,2.21,.51,2.79,.34,.58,.99,.99,1.95,1.23,.96,.24,2.48,.36,4.56,.36,.08,0,.12,.12,.12,.36s-.04,.36-.12,.36c-1.64,0-2.92-.02-3.84-.06l-5.64-.06-4.2,.06c-.76,.04-1.8,.06-3.12,.06-.12,0-.18-.12-.18-.36Zm20.28-16.53c-1.04-.82-2.7-1.23-4.98-1.23H7.68v-1.38h7.8c2.16,0,3.75-.36,4.77-1.08,1.02-.72,1.53-1.8,1.53-3.24,0-.08,.12-.12,.36-.12s.36,.04,.36,.12l-.06,5.04c0,1.2,.02,2.1,.06,2.7l.06,3c0,.08-.12,.12-.36,.12s-.36-.04-.36-.12c0-1.72-.52-2.99-1.56-3.81Z"/>
        <path class="cls-1" d="M63,181.28c-.92-1.06-2.24-1.59-3.96-1.59-.12,0-.18-.12-.18-.36s.06-.36,.18-.36l2.7,.06c1.44,.08,2.58,.12,3.42,.12,.72,0,1.76-.04,3.12-.12l2.58-.06c.08,0,.12,.12,.12,.36s-.04,.36-.12,.36c-1.6,0-2.81,.52-3.63,1.56-.82,1.04-1.23,2.58-1.23,4.62v16.98c0,4.48-1.31,8-3.93,10.56-2.62,2.56-6.11,3.84-10.47,3.84-2.96,0-5.56-.57-7.8-1.71-2.24-1.14-3.98-2.78-5.22-4.92-1.24-2.14-1.86-4.65-1.86-7.53v-19.26c0-1.2-.12-2.08-.36-2.64-.24-.56-.69-.95-1.35-1.17-.66-.22-1.71-.33-3.15-.33-.12,0-.18-.12-.18-.36s.06-.36,.18-.36l3,.06c1.76,.08,3.16,.12,4.2,.12,1.16,0,2.58-.04,4.26-.12l2.94-.06c.12,0,.18,.12,.18,.36s-.06,.36-.18,.36c-1.4,0-2.43,.12-3.09,.36-.66,.24-1.11,.65-1.35,1.23-.24,.58-.36,1.47-.36,2.67v17.04c0,4.72,1.03,8.29,3.09,10.71,2.06,2.42,4.95,3.63,8.67,3.63,3.48,0,6.21-1.09,8.19-3.27,1.98-2.18,2.97-5.23,2.97-9.15v-17.04c0-2-.46-3.53-1.38-4.59Z"/>
        <path class="cls-1" d="M79.68,182.24c-1.4,1.38-2.44,3.59-3.12,6.63-.04,.08-.17,.12-.39,.12s-.33-.06-.33-.18c.16-1.12,.34-2.94,.54-5.46s.3-4.42,.3-5.7c0-.2,.12-.3,.36-.3s.36,.1,.36,.3c0,.88,1.1,1.32,3.3,1.32,3.44,.12,7.46,.18,12.06,.18,2.36,0,4.86-.04,7.5-.12l4.08-.06c1.48,0,2.56-.1,3.24-.3,.68-.2,1.12-.6,1.32-1.2,.04-.16,.17-.24,.39-.24s.33,.08,.33,.24c-.12,1.12-.25,2.92-.39,5.4-.14,2.48-.21,4.46-.21,5.94,0,.12-.11,.18-.33,.18s-.33-.06-.33-.18c-.28-3.08-1.08-5.29-2.4-6.63-1.32-1.34-3.28-2.01-5.88-2.01-1.48,0-2.54,.09-3.18,.27-.64,.18-1.08,.52-1.32,1.02-.24,.5-.36,1.33-.36,2.49v27.66c0,1.24,.13,2.14,.39,2.7,.26,.56,.77,.94,1.53,1.14,.76,.2,1.98,.3,3.66,.3,.08,0,.12,.12,.12,.36s-.04,.36-.12,.36c-1.4,0-2.5-.02-3.3-.06l-4.74-.06-4.62,.06c-.8,.04-1.92,.06-3.36,.06-.12,0-.18-.12-.18-.36s.06-.36,.18-.36c1.64,0,2.85-.1,3.63-.3,.78-.2,1.31-.59,1.59-1.17,.28-.58,.42-1.47,.42-2.67v-27.78c0-1.12-.12-1.93-.36-2.43-.24-.5-.69-.83-1.35-.99-.66-.16-1.73-.24-3.21-.24-2.48,0-4.42,.69-5.82,2.07Z"/>
        <path class="cls-1" d="M146.22,181.28c-.92-1.06-2.24-1.59-3.96-1.59-.12,0-.18-.12-.18-.36s.06-.36,.18-.36l2.7,.06c1.44,.08,2.58,.12,3.42,.12,.72,0,1.76-.04,3.12-.12l2.58-.06c.08,0,.12,.12,.12,.36s-.04,.36-.12,.36c-1.6,0-2.81,.52-3.63,1.56-.82,1.04-1.23,2.58-1.23,4.62v16.98c0,4.48-1.31,8-3.93,10.56-2.62,2.56-6.11,3.84-10.47,3.84-2.96,0-5.56-.57-7.8-1.71-2.24-1.14-3.98-2.78-5.22-4.92-1.24-2.14-1.86-4.65-1.86-7.53v-19.26c0-1.2-.12-2.08-.36-2.64-.24-.56-.69-.95-1.35-1.17-.66-.22-1.71-.33-3.15-.33-.12,0-.18-.12-.18-.36s.06-.36,.18-.36l3,.06c1.76,.08,3.16,.12,4.2,.12,1.16,0,2.58-.04,4.26-.12l2.94-.06c.12,0,.18,.12,.18,.36s-.06,.36-.18,.36c-1.4,0-2.43,.12-3.09,.36-.66,.24-1.11,.65-1.35,1.23-.24,.58-.36,1.47-.36,2.67v17.04c0,4.72,1.03,8.29,3.09,10.71,2.06,2.42,4.95,3.63,8.67,3.63,3.48,0,6.21-1.09,8.19-3.27,1.98-2.18,2.97-5.23,2.97-9.15v-17.04c0-2-.46-3.53-1.38-4.59Z"/>
        <path class="cls-1" d="M182.82,180.89c1.8,1.4,2.7,3.3,2.7,5.7,0,2.16-.63,4.13-1.89,5.91-1.26,1.78-2.93,3.18-5.01,4.2-2.08,1.02-4.3,1.53-6.66,1.53-.84,0-1.82-.04-2.94-.12v13.5c0,1.2,.12,2.09,.36,2.67,.24,.58,.69,.97,1.35,1.17,.66,.2,1.71,.3,3.15,.3,.12,0,.18,.12,.18,.36s-.06,.36-.18,.36c-1.24,0-2.22-.02-2.94-.06l-4.32-.06-4.2,.06c-.76,.04-1.78,.06-3.06,.06-.12,0-.18-.12-.18-.36s.06-.36,.18-.36c1.44,0,2.5-.1,3.18-.3,.68-.2,1.14-.59,1.38-1.17,.24-.58,.36-1.47,.36-2.67v-27.78c0-1.2-.12-2.08-.36-2.64-.24-.56-.69-.95-1.35-1.17-.66-.22-1.71-.33-3.15-.33-.08,0-.12-.12-.12-.36s.04-.36,.12-.36l3,.06c1.76,.08,3.16,.12,4.2,.12,.84,0,1.64-.02,2.4-.06,.76-.04,1.42-.08,1.98-.12,1.52-.12,2.9-.18,4.14-.18,3.32,0,5.88,.7,7.68,2.1Zm-4.08,.87c-1.24-1.3-3.06-1.95-5.46-1.95-1.56,0-2.66,.29-3.3,.87-.64,.58-.96,1.67-.96,3.27v12.66c1.16,.12,2.34,.18,3.54,.18,2.88,0,4.94-.67,6.18-2.01,1.24-1.34,1.86-3.43,1.86-6.27,0-3.2-.62-5.45-1.86-6.75Zm5.31,29.67c-2.7-3.36-5.97-8.06-9.81-14.1l4.02-1.26c3.4,5,6.26,8.9,8.58,11.7,2.32,2.8,4.37,4.83,6.15,6.09,1.78,1.26,3.51,1.89,5.19,1.89,.12,0,.18,.12,.18,.36s-.06,.36-.18,.36h-8.58c-1,0-2.85-1.68-5.55-5.04Z"/>
        <path class="cls-1" d="M201.54,216.11c0-.24,.06-.36,.18-.36,1.44,0,2.49-.1,3.15-.3,.66-.2,1.11-.59,1.35-1.17,.24-.58,.36-1.47,.36-2.67v-27.78c0-1.2-.12-2.08-.36-2.64-.24-.56-.69-.95-1.35-1.17-.66-.22-1.71-.33-3.15-.33-.12,0-.18-.12-.18-.36s.06-.36,.18-.36h24.48c.4,0,.6,.18,.6,.54l.12,7.56c0,.12-.11,.19-.33,.21-.22,.02-.35-.03-.39-.15-.28-2.2-1.06-3.88-2.34-5.04-1.28-1.16-2.96-1.74-5.04-1.74h-3.06c-1.76,0-2.94,.26-3.54,.78-.6,.52-.9,1.5-.9,2.94v27.3c0,1.44,.27,2.42,.81,2.94,.54,.52,1.63,.78,3.27,.78h3.96c2.24,0,4.11-.67,5.61-2.01,1.5-1.34,2.53-3.25,3.09-5.73,0-.08,.08-.12,.24-.12,.12,0,.23,.03,.33,.09,.1,.06,.15,.11,.15,.15-.4,2.88-.6,5.58-.6,8.1,0,.32-.06,.55-.18,.69-.12,.14-.36,.21-.72,.21h-25.56c-.12,0-.18-.12-.18-.36Zm20.91-17.25c-.98-.82-2.53-1.23-4.65-1.23h-8.76v-1.38h8.88c2.04,0,3.54-.35,4.5-1.05,.96-.7,1.44-1.79,1.44-3.27,0-.08,.11-.12,.33-.12s.33,.04,.33,.12l-.06,5.04,.06,2.7c.08,1.28,.12,2.28,.12,3,0,.08-.12,.12-.36,.12s-.36-.04-.36-.12c0-1.72-.49-2.99-1.47-3.81Z"/>
        <path class="cls-1" d="M260.73,214.58c-2.9-1.74-5.14-4.1-6.72-7.08-1.58-2.98-2.37-6.23-2.37-9.75,0-4.12,1.04-7.65,3.12-10.59s4.75-5.15,8.01-6.63c3.26-1.48,6.59-2.22,9.99-2.22,3.8,0,7.14,.89,10.02,2.67,2.88,1.78,5.09,4.13,6.63,7.05,1.54,2.92,2.31,6.02,2.31,9.3,0,3.64-.96,6.98-2.88,10.02-1.92,3.04-4.49,5.44-7.71,7.2-3.22,1.76-6.71,2.64-10.47,2.64s-7.03-.87-9.93-2.61Zm18.93-.69c2.04-1.32,3.65-3.25,4.83-5.79,1.18-2.54,1.77-5.57,1.77-9.09,0-3.72-.65-7.04-1.95-9.96-1.3-2.92-3.16-5.2-5.58-6.84-2.42-1.64-5.23-2.46-8.43-2.46-4.16,0-7.4,1.41-9.72,4.23-2.32,2.82-3.48,6.71-3.48,11.67,0,3.8,.66,7.24,1.98,10.32,1.32,3.08,3.17,5.5,5.55,7.26,2.38,1.76,5.09,2.64,8.13,2.64,2.56,0,4.86-.66,6.9-1.98Z"/>
        <path class="cls-1" d="M298.38,216.11c0-.24,.06-.36,.18-.36,1.48,0,2.56-.1,3.24-.3,.68-.2,1.15-.59,1.41-1.17,.26-.58,.39-1.47,.39-2.67v-27.78c0-1.2-.12-2.08-.36-2.64-.24-.56-.69-.95-1.35-1.17-.66-.22-1.71-.33-3.15-.33-.12,0-.18-.12-.18-.36s.06-.36,.18-.36h24.48c.4,0,.6,.18,.6,.54l.12,7.56c0,.12-.11,.19-.33,.21-.22,.02-.35-.03-.39-.15-.28-2.2-1.06-3.88-2.34-5.04-1.28-1.16-2.96-1.74-5.04-1.74h-3.06c-1.72,0-2.89,.25-3.51,.75-.62,.5-.93,1.43-.93,2.79v27.48c0,1.28,.17,2.21,.51,2.79,.34,.58,.99,.99,1.95,1.23,.96,.24,2.48,.36,4.56,.36,.08,0,.12,.12,.12,.36s-.04,.36-.12,.36c-1.64,0-2.92-.02-3.84-.06l-5.64-.06-4.2,.06c-.76,.04-1.8,.06-3.12,.06-.12,0-.18-.12-.18-.36Zm20.28-16.53c-1.04-.82-2.7-1.23-4.98-1.23h-7.62v-1.38h7.8c2.16,0,3.75-.36,4.77-1.08,1.02-.72,1.53-1.8,1.53-3.24,0-.08,.12-.12,.36-.12s.36,.04,.36,.12l-.06,5.04c0,1.2,.02,2.1,.06,2.7l.06,3c0,.08-.12,.12-.36,.12s-.36-.04-.36-.12c0-1.72-.52-2.99-1.56-3.81Z"/>
        <path class="cls-1" d="M350.09,182.24c-1.4,1.38-2.44,3.59-3.12,6.63-.04,.08-.17,.12-.39,.12s-.33-.06-.33-.18c.16-1.12,.34-2.94,.54-5.46,.2-2.52,.3-4.42,.3-5.7,0-.2,.12-.3,.36-.3s.36,.1,.36,.3c0,.88,1.1,1.32,3.3,1.32,3.44,.12,7.46,.18,12.06,.18,2.36,0,4.86-.04,7.5-.12l4.08-.06c1.48,0,2.56-.1,3.24-.3,.68-.2,1.12-.6,1.32-1.2,.04-.16,.17-.24,.39-.24s.33,.08,.33,.24c-.12,1.12-.25,2.92-.39,5.4-.14,2.48-.21,4.46-.21,5.94,0,.12-.11,.18-.33,.18s-.33-.06-.33-.18c-.28-3.08-1.08-5.29-2.4-6.63-1.32-1.34-3.28-2.01-5.88-2.01-1.48,0-2.54,.09-3.18,.27-.64,.18-1.08,.52-1.32,1.02-.24,.5-.36,1.33-.36,2.49v27.66c0,1.24,.13,2.14,.39,2.7,.26,.56,.77,.94,1.53,1.14,.76,.2,1.98,.3,3.66,.3,.08,0,.12,.12,.12,.36s-.04,.36-.12,.36c-1.4,0-2.5-.02-3.3-.06l-4.74-.06-4.62,.06c-.8,.04-1.92,.06-3.36,.06-.12,0-.18-.12-.18-.36s.06-.36,.18-.36c1.64,0,2.85-.1,3.63-.3,.78-.2,1.31-.59,1.59-1.17,.28-.58,.42-1.47,.42-2.67v-27.78c0-1.12-.12-1.93-.36-2.43-.24-.5-.69-.83-1.35-.99-.66-.16-1.73-.24-3.21-.24-2.48,0-4.42,.69-5.82,2.07Z"/>
        <path class="cls-1" d="M390.41,181.19c-.24-.56-.7-.95-1.38-1.17-.68-.22-1.76-.33-3.24-.33-.12,0-.18-.12-.18-.36s.06-.36,.18-.36l3.06,.06c1.68,.08,3.08,.12,4.2,.12,1.24,0,2.78-.04,4.62-.12l3.06-.06c.08,0,.12,.12,.12,.36s-.04,.36-.12,.36c-1.52,0-2.64,.12-3.36,.36-.72,.24-1.21,.65-1.47,1.23-.26,.58-.39,1.47-.39,2.67v27.66c0,1.2,.13,2.09,.39,2.67,.26,.58,.74,.97,1.44,1.17,.7,.2,1.83,.3,3.39,.3,.08,0,.12,.12,.12,.36s-.04,.36-.12,.36c-1.32,0-2.34-.02-3.06-.06l-4.62-.06-4.26,.06c-.76,.04-1.8,.06-3.12,.06-.08,0-.12-.12-.12-.36s.04-.36,.12-.36c1.48,0,2.57-.1,3.27-.3,.7-.2,1.18-.59,1.44-1.17,.26-.58,.39-1.47,.39-2.67v-27.78c0-1.2-.12-2.08-.36-2.64Zm2.58,15.06h26.52v1.38h-26.52v-1.38Zm24.06-14.97c-.24-.58-.72-.99-1.44-1.23-.72-.24-1.84-.36-3.36-.36-.12,0-.18-.12-.18-.36s.06-.36,.18-.36l2.82,.06c1.84,.08,3.42,.12,4.74,.12,1.12,0,2.56-.04,4.32-.12l3.06-.06c.12,0,.18,.12,.18,.36s-.06,.36-.18,.36c-1.48,0-2.57,.11-3.27,.33-.7,.22-1.17,.61-1.41,1.17-.24,.56-.36,1.44-.36,2.64v27.78c0,1.2,.12,2.09,.36,2.67,.24,.58,.71,.97,1.41,1.17,.7,.2,1.79,.3,3.27,.3,.12,0,.18,.12,.18,.36s-.06,.36-.18,.36c-1.28,0-2.3-.02-3.06-.06l-4.32-.06-4.74,.06c-.68,.04-1.62,.06-2.82,.06-.12,0-.18-.12-.18-.36s.06-.36,.18-.36c1.56,0,2.69-.1,3.39-.3,.7-.2,1.17-.58,1.41-1.14,.24-.56,.36-1.46,.36-2.7v-27.66c0-1.2-.12-2.09-.36-2.67Z"/>
        <path class="cls-1" d="M433.25,216.11c0-.24,.06-.36,.18-.36,1.44,0,2.49-.1,3.15-.3,.66-.2,1.11-.59,1.35-1.17,.24-.58,.36-1.47,.36-2.67v-27.78c0-1.2-.12-2.08-.36-2.64-.24-.56-.69-.95-1.35-1.17-.66-.22-1.71-.33-3.15-.33-.12,0-.18-.12-.18-.36s.06-.36,.18-.36h24.48c.4,0,.6,.18,.6,.54l.12,7.56c0,.12-.11,.19-.33,.21-.22,.02-.35-.03-.39-.15-.28-2.2-1.06-3.88-2.34-5.04-1.28-1.16-2.96-1.74-5.04-1.74h-3.06c-1.76,0-2.94,.26-3.54,.78-.6,.52-.9,1.5-.9,2.94v27.3c0,1.44,.27,2.42,.81,2.94,.54,.52,1.63,.78,3.27,.78h3.96c2.24,0,4.11-.67,5.61-2.01,1.5-1.34,2.53-3.25,3.09-5.73,0-.08,.08-.12,.24-.12,.12,0,.23,.03,.33,.09,.1,.06,.15,.11,.15,.15-.4,2.88-.6,5.58-.6,8.1,0,.32-.06,.55-.18,.69-.12,.14-.36,.21-.72,.21h-25.56c-.12,0-.18-.12-.18-.36Zm20.91-17.25c-.98-.82-2.53-1.23-4.65-1.23h-8.76v-1.38h8.88c2.04,0,3.54-.35,4.5-1.05,.96-.7,1.44-1.79,1.44-3.27,0-.08,.11-.12,.33-.12s.33,.04,.33,.12l-.06,5.04,.06,2.7c.08,1.28,.12,2.28,.12,3,0,.08-.12,.12-.36,.12s-.36-.04-.36-.12c0-1.72-.49-2.99-1.47-3.81Z"/>
        <path class="cls-1" d="M511.52,178.82c1.78,.34,3.45,.89,5.01,1.65,.28,.12,.46,.25,.54,.39,.08,.14,.14,.45,.18,.93l.78,7.5c0,.12-.11,.2-.33,.24-.22,.04-.35-.02-.39-.18-2.04-6.68-6.16-10.02-12.36-10.02-3.16,0-5.96,.74-8.4,2.22-2.44,1.48-4.33,3.58-5.67,6.3-1.34,2.72-2.01,5.9-2.01,9.54s.73,6.77,2.19,9.63c1.46,2.86,3.44,5.1,5.94,6.72s5.25,2.43,8.25,2.43,5.68-.79,7.68-2.37c2-1.58,3.62-4.03,4.86-7.35,.04-.08,.14-.12,.3-.12,.08,0,.17,.03,.27,.09,.1,.06,.15,.11,.15,.15l-.66,6.84c-.04,.48-.1,.78-.18,.9-.08,.12-.28,.26-.6,.42-2,.92-3.92,1.57-5.76,1.95-1.84,.38-3.86,.57-6.06,.57-4.24,0-8.02-.83-11.34-2.49-3.32-1.66-5.91-3.97-7.77-6.93-1.86-2.96-2.79-6.36-2.79-10.2s.95-7.11,2.85-10.05c1.9-2.94,4.53-5.22,7.89-6.84,3.36-1.62,7.12-2.43,11.28-2.43,2.32,0,4.37,.17,6.15,.51Z"/>
        <path class="cls-1" d="M535.76,214.31c.22,.56,.66,.94,1.32,1.14,.66,.2,1.73,.3,3.21,.3,.08,0,.12,.12,.12,.36s-.04,.36-.12,.36c-1.28,0-2.28-.02-3-.06l-4.32-.06-4.2,.06c-.76,.04-1.8,.06-3.12,.06-.08,0-.12-.12-.12-.36s.04-.36,.12-.36c1.44,0,2.5-.1,3.18-.3,.68-.2,1.15-.59,1.41-1.17,.26-.58,.39-1.47,.39-2.67v-27.78c0-1.2-.13-2.08-.39-2.64-.26-.56-.73-.95-1.41-1.17-.68-.22-1.74-.33-3.18-.33-.08,0-.12-.12-.12-.36s.04-.36,.12-.36l3.12,.06c1.76,.08,3.16,.12,4.2,.12,1.16,0,2.62-.04,4.38-.12l2.94-.06c.08,0,.12,.12,.12,.36s-.04,.36-.12,.36c-1.44,0-2.49,.12-3.15,.36-.66,.24-1.11,.65-1.35,1.23-.24,.58-.36,1.47-.36,2.67v27.66c0,1.24,.11,2.14,.33,2.7Z"/>
        <path class="cls-1" d="M550.67,182.24c-1.4,1.38-2.44,3.59-3.12,6.63-.04,.08-.17,.12-.39,.12s-.33-.06-.33-.18c.16-1.12,.34-2.94,.54-5.46,.2-2.52,.3-4.42,.3-5.7,0-.2,.12-.3,.36-.3s.36,.1,.36,.3c0,.88,1.1,1.32,3.3,1.32,3.44,.12,7.46,.18,12.06,.18,2.36,0,4.86-.04,7.5-.12l4.08-.06c1.48,0,2.56-.1,3.24-.3,.68-.2,1.12-.6,1.32-1.2,.04-.16,.17-.24,.39-.24s.33,.08,.33,.24c-.12,1.12-.25,2.92-.39,5.4-.14,2.48-.21,4.46-.21,5.94,0,.12-.11,.18-.33,.18s-.33-.06-.33-.18c-.28-3.08-1.08-5.29-2.4-6.63-1.32-1.34-3.28-2.01-5.88-2.01-1.48,0-2.54,.09-3.18,.27-.64,.18-1.08,.52-1.32,1.02-.24,.5-.36,1.33-.36,2.49v27.66c0,1.24,.13,2.14,.39,2.7,.26,.56,.77,.94,1.53,1.14,.76,.2,1.98,.3,3.66,.3,.08,0,.12,.12,.12,.36s-.04,.36-.12,.36c-1.4,0-2.5-.02-3.3-.06l-4.74-.06-4.62,.06c-.8,.04-1.92,.06-3.36,.06-.12,0-.18-.12-.18-.36s.06-.36,.18-.36c1.64,0,2.85-.1,3.63-.3,.78-.2,1.31-.59,1.59-1.17,.28-.58,.42-1.47,.42-2.67v-27.78c0-1.12-.12-1.93-.36-2.43-.24-.5-.69-.83-1.35-.99-.66-.16-1.73-.24-3.21-.24-2.48,0-4.42,.69-5.82,2.07Z"/>
        <path class="cls-1" d="M587.48,180.8c-.98-.74-2.03-1.11-3.15-1.11-.12,0-.18-.12-.18-.36s.06-.36,.18-.36c.44,0,1.14,.04,2.1,.12l1.98,.06c1.32,0,3.14-.04,5.46-.12l3.48-.06c.08,0,.12,.12,.12,.36s-.04,.36-.12,.36c-1.92,0-2.88,.48-2.88,1.44,0,.44,.24,1,.72,1.68l9.72,14.58-3.78,2.76-10.26-15.36c-1.28-1.92-2.41-3.25-3.39-3.99Zm17.73,16.53v14.28c0,1.24,.11,2.14,.33,2.7,.22,.56,.66,.94,1.32,1.14,.66,.2,1.71,.3,3.15,.3,.12,0,.18,.12,.18,.36s-.06,.36-.18,.36c-1.24,0-2.22-.02-2.94-.06l-4.32-.06-4.2,.06c-.72,.04-1.74,.06-3.06,.06-.08,0-.12-.12-.12-.36s.04-.36,.12-.36c1.44,0,2.5-.1,3.18-.3,.68-.2,1.14-.59,1.38-1.17,.24-.58,.36-1.47,.36-2.67v-13.74l4.8-.54Zm7.38-15.24c0-1.6-1.1-2.4-3.3-2.4-.08,0-.12-.12-.12-.36s.04-.36,.12-.36l2.94,.06c1.6,.08,3.06,.12,4.38,.12,.68,0,1.5-.04,2.46-.12l2.22-.06c.08,0,.12,.12,.12,.36s-.04,.36-.12,.36c-1.4,0-2.88,.6-4.44,1.8-1.56,1.2-2.96,2.8-4.2,4.8l-8.88,14.04-1.14-.96,8.52-13.38c.96-1.56,1.44-2.86,1.44-3.9Z"/>
      </g>
      <g>
        <path class="cls-1" d="M178.37,315.24c-.29,.53-.67,.77-1.82,.67-.91,1.58-2.02,3.41-3.36,5.33l1.87,.72c-.14,.38-.62,.67-1.44,.82v23.09c-.05,.34-1.54,1.34-3.03,1.34h-.72v-21.7c-1.87,2.11-3.89,4.18-6.1,5.9l-.53-.53c4.27-5.14,8.02-12.91,9.7-18.15l5.42,2.5Zm-.34-9.55c-.29,.53-.67,.77-1.82,.53-2.69,3.36-7.34,7.87-12.24,10.85l-.48-.58c3.84-3.84,7.78-9.65,9.6-13.54l4.95,2.74Zm2.4,27.79c1.2,4.61,.19,7.92-1.15,9.46-.96,1.06-2.93,1.25-3.65,.05-.58-1.1,0-2.21,1.06-2.98,1.34-1.1,2.98-3.94,2.93-6.58l.82,.05Zm24.24-7.68c0,.14-.34,.38-.87,.58,.67,.48,2.88,2.06,4.32,3.31-.14,.53-.62,.77-1.34,.77h-29.76l-.38-1.39h24.58l2.16-2.54c-.38,.1-.91,.19-1.54,.19h-.58v-1.49h-18.63v1.15c0,.29-1.06,.96-2.74,.96h-.53v-14.5l3.84,1.63h5.67c.24-1.3,.48-2.88,.72-4.61h-12.58l-.38-1.39h13.15c.29-1.87,.58-3.89,.77-5.62l5.47,1.39c-.19,.67-.77,1.06-1.78,1.06l-.53,3.17h7.54l2.45-3.12s2.83,2.16,4.51,3.75c-.14,.53-.62,.77-1.3,.77h-13.39c-.29,1.63-.53,3.22-.77,4.61h8.4l1.63-1.97,3.6,2.78c-.29,.38-.77,.62-1.73,.77v9.75Zm-22.04-1.97h4.37v-7.97h-4.37v7.97Zm17.91,18.38c1.1,.38,1.39,.77,1.39,1.44,0,1.49-1.58,2.16-8.83,2.16h-5.04c-3.84,0-4.51-.72-4.51-3.22v-10.08l4.8,.48c-.05,.58-.53,1.06-1.39,1.2v7.68c0,.62,.19,.77,1.78,.77h4.56c1.92,0,3.55,0,4.18-.05,.48-.05,.67-.14,.96-.53,.34-.62,.86-2.54,1.34-4.75h.62l.14,4.9Zm-10.75-11.23c9.65,3.74,6.14,10.85,2.93,8.02,0-2.59-1.78-5.81-3.46-7.68l.53-.34Zm.19-15.12v7.97h4.18v-7.97h-4.18Zm11.28,7.97v-7.97h-4.08v7.97h4.08Zm-.96,9.17c11.14,4.42,8.02,12.48,4.42,9.65-.34-3.12-2.74-6.96-4.99-9.26l.58-.38Z"/>
        <path class="cls-1" d="M265.16,308.9c-.29,.43-1.01,.82-1.97,1.01v35.28c-.05,.34-2.02,1.34-3.46,1.34h-.62v-4.08h-21.46v2.88c0,.48-1.44,1.49-3.22,1.49h-.72v-40.95l4.32,1.92h20.59l2.11-2.4,4.42,3.5Zm-27.51,.29v14.93h21.46v-14.93h-21.46Zm21.46,31.88v-15.55h-21.46v15.55h21.46Z"/>
        <path class="cls-1" d="M299.43,321.77v24.19c0,.43-1.49,1.25-2.74,1.25h-.72v-20.93c-.19,.05-.38,.05-.62,.05-1.82,4.32-4.22,9.46-6.38,13.06l-.82-.34c1.15-3.94,2.88-10.22,4.13-15.36l3.7,1.3v-3.22h-7.06l-.38-1.44h7.44v-17.43l5.18,.58c-.14,.67-.48,1.15-1.73,1.34v15.5h1.54l2.11-2.64s2.35,1.87,3.79,3.31c-.14,.53-.58,.77-1.2,.77h-6.24Zm-9.65-14.88c8.3,6.96,5.14,13.73,2.21,10.75-.1-3.31-1.68-7.63-2.88-10.51l.67-.24Zm10.85,17.52c9.07,6.96,5.76,14.11,2.64,11.04-.14-3.41-1.82-7.78-3.26-10.75l.62-.29Zm-.43-6.62c.86-2.93,2.02-7.54,2.93-11.38l4.75,1.58c-.24,.58-.77,.96-1.78,.91-1.49,3.07-3.41,6.72-5.09,9.22l-.82-.34Zm26.31,4.9l4.32,3.17c-.34,.38-1.1,.82-2.06,1.01v15.27c0,2.74-.58,4.37-5.04,4.8-.14-1.1-.34-2.02-.96-2.59-.53-.58-1.58-1.01-3.46-1.25v-.77s4.03,.29,4.94,.29c.72,0,.96-.24,.96-.91v-4.37h-12.29c-.53,3.79-2.11,7.58-7.3,10.23l-.48-.53c3.98-3.7,4.42-8.5,4.42-13.44v-10.51l4.22,1.68h10.95l1.78-2.06Zm2.4-5.47s2.54,2.02,4.13,3.5c-.14,.53-.58,.77-1.3,.77h-24.38l-.38-1.44h10.08v-4.46h-6.91l-.34-1.39h7.25v-4.18h-8.88l-.38-1.39h9.26v-5.71l5.23,.48c-.1,.67-.48,1.06-1.54,1.25v3.98h4.56l2.26-2.83s2.54,2.02,4.08,3.46c-.14,.53-.58,.77-1.2,.77h-9.7v4.18h3.65l2.06-2.59s2.35,1.82,3.84,3.22c-.14,.53-.58,.77-1.25,.77h-8.3v4.46h5.95l2.21-2.83Zm-3.7,18.67v-4.13h-12.1v1.78c0,.72,0,1.54-.05,2.35h12.15Zm-12.1-9.7v4.18h12.1v-4.18h-12.1Z"/>
        <path class="cls-1" d="M367.92,324.84l4.27,3.26c-.34,.38-1.06,.77-1.97,.96v15.75c-.05,.34-1.92,1.2-3.22,1.2h-.58v-3.55h-9.27v3.17c0,.38-1.54,1.25-3.12,1.25h-.58v-21.55l3.94,1.68h8.54l1.97-2.16Zm-1.49,16.23v-12.67h-9.27v12.67h9.27Zm-1.49-18.58c0,.34-1.63,1.25-3.26,1.25h-.58v-19.54l4.13,1.78h15.6l2.02-2.26,4.32,3.36c-.29,.38-1.06,.77-2.02,.96v14.21c-.05,.34-1.92,1.2-3.22,1.2h-.62v-3.55h-16.37v2.59Zm0-15.12v11.09h16.37v-11.09h-16.37Zm29.95,20.74c-.34,.38-1.01,.77-2.02,1.01v16.13c-.05,.29-1.97,1.06-3.17,1.06h-.62v-3.84h-9.6v3.26c0,.38-1.58,1.25-3.17,1.25h-.58v-21.65l3.98,1.68h8.88l1.97-2.16,4.32,3.26Zm-5.81,12.96v-12.67h-9.6v12.67h9.6Z"/>
        <path class="cls-1" d="M419.28,311.11c.14,3.17-1.01,5.28-2.45,6.24-1.3,.91-3.22,.82-3.79-.53-.53-1.25,.24-2.4,1.44-2.98,1.78-1.01,3.41-3.7,3.22-6.58l.82-.05c.29,.86,.53,1.68,.62,2.5h15.36c-.14-.05-.24-.14-.34-.24,0-2.21-1.3-4.85-2.69-6.38l.43-.29c7.01,1.39,7.3,5.47,5.52,6.91h14.21l2.35-2.4,4.18,4.08c-.38,.38-.87,.43-1.82,.48-1.34,1.92-3.79,4.51-5.67,6.05l-.58-.29c.62-1.78,1.34-4.46,1.82-6.53h-32.64Zm35.86,30.53c1.34,.43,1.78,.91,1.78,1.68,0,1.87-2.02,2.5-12.34,2.5h-7.1c-4.99,0-6.38-.82-6.38-4.18v-11.09h-16.51l-.43-1.44h16.95v-8.93c-4.51,.62-9.27,1.1-13.78,1.3l-.19-.86c9.7-1.34,21.41-4.37,27.51-6.91l4.13,3.79c-.48,.43-1.39,.43-2.64-.05-3.17,.77-7.01,1.54-11.19,2.21v9.46h12.82l2.83-3.5s3.12,2.4,5.04,4.18c-.1,.53-.62,.77-1.3,.77h-19.39v10.23c0,1.1,.38,1.49,2.93,1.49h6.96c2.93,0,5.23-.05,6.29-.14,.77-.1,1.01-.29,1.3-.77,.53-.96,1.2-3.65,2.02-7.2h.58l.14,7.49Z"/>
      </g>
    </g>
  </g>
</svg>