<?xml version="1.0" encoding="UTF-8"?>
<svg id="_圖層_2" data-name="圖層 2" xmlns="http://www.w3.org/2000/svg" xmlns:xlink="http://www.w3.org/1999/xlink"
  viewBox="0 0 1136.5 631">
  <defs>
    <style>
      .cls-1 {
        fill: url(#gradient1);
      }

      .cls-2 {
        fill: url(#gradient2);
      }

      .cls-3 {
        fill: url(#gradient3);
      }

      .cls-4 {
        fill: url(#gradient4);
      }

      .cls-5 {
        fill: none;
        stroke: url(#gradient5);
        stroke-miterlimit: 10;
      }

      .cls-6 {
        fill: url(#gradient6);
      }

      .cls-7 {
        fill: url(#gradient7);
      }
    </style>
    <linearGradient id="gradient3" x1="357" y1="284.16" x2="357" y2="4.33" gradientUnits="userSpaceOnUse">
      <stop offset="0" stop-color="#97673f" />
      <stop offset=".2" stop-color="#fad787" />
      <stop offset=".72" stop-color="#97673f" />
      <stop offset="1" stop-color="#97673f" stop-opacity="0" />
    </linearGradient>
    <linearGradient id="gradient7" x1="0" y1="315.5" x2="282.9" y2="315.5"
      gradientTransform="translate(287) rotate(-180) scale(1 -1)" xlink:href="#gradient3" />
    <linearGradient id="gradient5" x1="423.5" y1="315.5" x2="710.5" y2="315.5" gradientUnits="userSpaceOnUse">
      <stop offset="0" stop-color="#97673f" />
      <stop offset=".2" stop-color="#fad787" />
      <stop offset=".72" stop-color="#97673f" />
    </linearGradient>
    <linearGradient id="gradient2" x1="849.5" y1="316.5" x2="1136.5" y2="316.5" xlink:href="#gradient3" />
    <linearGradient id="gradient1" x1="780" y1="283.66" x2="780" y2="3.83" xlink:href="#gradient3" />
    <linearGradient id="gradient4" x1="358" y1="-62.34" x2="358" y2="-342.17"
      gradientTransform="translate(0 285) scale(1 -1)" xlink:href="#gradient3" />
    <linearGradient id="gradient6" x1="782" y1="-61.34" x2="782" y2="-341.17"
      gradientTransform="translate(0 285) scale(1 -1)" xlink:href="#gradient3" />
  </defs>
  <g id="_圖層_3" data-name="圖層 3">
    <rect class="cls-3" x="356" y=".5" width="2" height="284" />
  </g>
  <g id="_圖層_1-2" data-name="圖層 1">
    <path class="cls-7" d="M0,314.5H287v2H0v-2Zm1,1H286s-285,0-285,0Z" />
    <rect class="cls-5" x="424" y="315" width="286" height="1" />
    <path class="cls-2" d="M1136.5,317.5h-287v-2h287v2Zm-286-1h0Z" />
    <rect class="cls-1" x="779" width="2" height="284" />
    <rect class="cls-4" x="357" y="347" width="2" height="284" />
    <rect class="cls-6" x="781" y="346" width="2" height="284" />
  </g>
</svg>