<?xml version="1.0" encoding="UTF-8"?>
<svg id="_圖層_2" data-name="圖層 2" xmlns="http://www.w3.org/2000/svg" viewBox="0 0 133.59 20.03">
  <defs>
    <style>
      .cls-1 {
        fill: #fff;
      }
    </style>
  </defs>
  <g id="_圖層_1-2" data-name="圖層 1">
    <g>
      <polygon class="cls-1" points="91.13 19.78 91.13 4.56 86.29 4.56 86.29 .32 100.9 .32 100.9 4.56 96.05 4.56 96.05 19.78 91.13 19.78"/>
      <g>
        <polygon class="cls-1" points="102.65 19.71 102.65 .32 113.82 .32 116.26 4.34 107.61 4.34 107.61 7.72 114.14 7.72 114.14 11.7 107.61 11.7 107.61 15.72 115.83 15.72 113.35 19.71 102.65 19.71"/>
        <polygon class="cls-1" points="127.96 19.71 124.51 13.57 121.07 19.71 115.47 19.71 121.53 9.69 115.97 .32 121.5 .32 124.58 5.81 127.6 .32 133.09 .32 127.53 9.69 133.59 19.71 127.96 19.71"/>
        <path class="cls-1" d="M10.12,19.56c-2.33-3.09-5.42-7.9-5.42-7.9h-.04v7.9H0V.43H4.67v7.82h.04L9.83,.43h5.38l-6.5,9.19s3.09,4.56,7.25,9.94h-5.85Z"/>
        <path class="cls-1" d="M24.01,4.09h-2.05v4.88h1.97c2.01,0,2.94-.97,2.94-2.51s-.75-2.37-2.87-2.37m3.09,15.47l-2.15-5.42c-.39-1.04-.9-1.58-1.65-1.58h-1.33v7h-4.67V.43h7.07c4.13,0,7.14,1.44,7.14,5.64,0,2.73-1.9,4.31-3.73,4.95v.04s.93,.25,1.72,1.97l2.87,6.57h-5.28v-.04Z"/>
        <path class="cls-1" d="M44.58,8.87c0-3.52-1.08-5.13-3.37-5.13s-3.41,1.62-3.41,5.13v2.3c0,3.52,1.08,5.13,3.37,5.13s3.41-1.62,3.41-5.13v-2.3Zm-3.52,11.16c-6.75,0-7.97-3.8-7.97-10.05S34.56,0,41.35,0s7.97,3.8,7.97,9.98c.04,6.21-1.44,10.05-8.26,10.05"/>
      </g>
      <polygon class="cls-1" points="62.17 19.56 55.63 7.43 55.6 7.43 55.63 19.56 51.43 19.56 51.43 .43 56.39 .43 62.88 12.56 62.96 12.56 62.85 .43 67.12 .43 67.12 19.56 62.17 19.56"/>
      <path class="cls-1" d="M80.72,8.87c0-3.52-1.08-5.13-3.37-5.13s-3.41,1.62-3.41,5.13v2.3c0,3.52,1.08,5.13,3.37,5.13s3.41-1.62,3.41-5.13v-2.3Zm-3.52,11.16c-6.75,0-7.97-3.8-7.97-10.05s1.47-9.98,8.26-9.98,7.97,3.8,7.97,9.98-1.47,10.05-8.26,10.05"/>
    </g>
  </g>
</svg>